<svg version="1.1" id="Layer_1" xmlns="http://www.w3.org/2000/svg" xmlns:xlink="http://www.w3.org/1999/xlink" x="0px" y="0px"
	 width="100%" viewBox="0 0 928 1024" enable-background="new 0 0 928 1024" xml:space="preserve">
<path fill="#000000" opacity="1.000000" stroke="none" 
	d="
M377.000000,1.000000 
	C439.020905,1.000000 501.041779,1.000000 563.385803,1.359111 
	C538.511536,6.512710 514.997253,15.036074 494.432983,31.045029 
	C487.643463,36.330551 483.969879,41.392838 484.104431,50.679249 
	C484.704865,92.121658 484.373077,133.577591 484.377625,175.028625 
	C484.379181,189.194031 484.397217,203.359451 484.369202,217.524811 
	C484.360840,221.763535 485.397278,225.863541 489.292023,227.732193 
	C499.633026,232.693665 507.922119,225.922714 507.718933,216.776566 
	C507.367371,200.952393 507.531494,185.114243 507.647308,169.283188 
	C507.708649,160.895126 509.583649,152.642365 513.067139,145.190475 
	C518.268860,134.062988 526.308655,124.934639 537.276917,118.983345 
	C546.391479,114.037865 556.029846,110.687431 566.955444,111.949799 
	C567.105408,117.891273 571.237549,120.890442 574.622131,124.557449 
	C584.262756,135.002533 599.039001,136.359406 611.065369,129.374069 
	C622.564331,122.695091 628.880249,106.490677 624.466187,94.342583 
	C620.125488,82.396194 611.398865,74.946175 598.727478,73.770439 
	C588.235962,72.796959 578.599060,75.930229 571.752319,84.714500 
	C570.378296,86.477425 569.023254,87.478668 566.809265,87.379204 
	C562.308899,87.177017 557.876648,87.790565 553.411560,88.320946 
	C538.158020,90.132812 524.673340,95.823952 513.042114,105.900787 
	C511.758820,107.012642 510.737244,108.981522 508.191528,107.982033 
	C508.036194,107.337029 507.687378,106.560394 507.685730,105.783012 
	C507.649994,88.951515 507.645630,72.119919 507.662720,55.288372 
	C507.664032,53.982121 507.686462,52.709961 508.900177,51.681355 
	C518.622803,43.441463 529.546875,37.118771 541.447083,32.830616 
	C551.378052,29.252064 561.516113,26.702482 572.378052,26.079163 
	C582.768433,25.482904 593.047852,25.884445 603.087036,27.360371 
	C614.852112,29.090027 625.998596,33.611607 636.699707,39.250816 
	C657.901672,50.423767 674.213440,66.361275 685.577332,87.347321 
	C687.685425,91.240379 690.182495,93.038490 694.625366,92.664650 
	C708.864197,91.466507 722.952148,93.499718 736.525635,97.168114 
	C753.092346,101.645500 768.225403,109.658913 782.118652,119.949760 
	C796.069946,130.283630 807.015137,143.180359 815.927368,157.935883 
	C824.473450,172.085175 830.282166,187.174072 833.370544,203.528656 
	C836.769775,221.529633 835.938904,239.464584 831.897888,256.871521 
	C828.391174,271.976624 821.294434,286.034485 811.910217,298.792023 
	C801.840576,312.481506 789.976440,324.314026 775.996704,333.745911 
	C762.011169,343.181610 746.214905,348.914612 730.001221,353.510468 
	C725.291199,354.845520 721.971191,354.051147 718.370483,350.604553 
	C709.050781,341.683594 695.073975,340.853882 682.245667,347.874481 
	C673.310669,352.764343 667.420288,366.890381 669.208313,377.998596 
	C671.456116,391.963318 683.262573,401.377716 694.010315,402.531372 
	C708.855286,404.124786 722.532410,397.939789 726.894775,383.142548 
	C727.831421,379.965485 729.719971,378.328156 733.042542,377.483643 
	C740.422424,375.607880 748.021423,374.508789 755.131836,371.627502 
	C761.688965,368.970367 768.228088,366.268890 774.752014,363.596405 
	C775.073608,364.269806 775.334045,364.559174 775.331543,364.846344 
	C775.119934,389.596252 783.807861,411.234131 798.519226,430.703888 
	C799.975403,432.631073 799.776306,434.074768 799.140930,436.113312 
	C795.796936,446.841614 798.039062,456.980316 805.421814,464.845459 
	C816.535278,476.685089 830.784119,479.042938 845.344482,469.082001 
	C858.240601,460.259613 861.257080,441.196655 852.706177,428.725983 
	C845.088379,417.616119 834.673218,414.337036 822.066772,415.484100 
	C820.433411,415.632751 818.805237,416.204712 817.531860,414.516632 
	C814.044739,409.893890 810.645142,405.229553 808.027954,400.026794 
	C800.192322,384.450287 799.738831,367.833130 801.265442,351.005341 
	C801.506042,348.353729 801.824280,345.173889 804.099670,343.215912 
	C816.753906,332.326691 827.765015,320.040741 837.003479,306.097656 
	C838.641174,303.625854 838.555420,299.497864 842.395630,298.857086 
	C846.420166,298.185486 847.189575,302.440155 849.550476,304.285706 
	C860.067505,312.507111 868.448425,322.796509 876.324707,333.442078 
	C886.023804,346.551392 893.817322,360.832764 900.267700,375.779877 
	C903.412231,383.066620 906.455994,390.577454 908.092102,398.294922 
	C911.001831,412.019745 914.445374,425.567413 914.873718,439.917084 
	C915.296387,454.076965 914.770020,468.058472 913.596497,482.089142 
	C912.942810,489.904846 910.162781,497.290192 908.623535,504.908173 
	C905.838013,518.693726 900.416565,531.528381 894.518250,544.035767 
	C889.685425,554.283997 882.822876,563.579163 876.794983,573.256287 
	C875.505615,575.326172 874.097778,577.439636 870.892761,577.559998 
	C866.997070,569.746948 860.855713,563.734619 854.256897,558.175720 
	C843.754883,549.328613 831.453979,544.109314 818.271484,540.740173 
	C816.546021,540.299133 814.813599,540.082642 813.768372,538.095947 
	C807.697144,526.555725 797.743896,521.967285 785.072937,522.427124 
	C773.607056,522.843201 762.598145,531.366943 758.426208,542.622925 
	C753.836243,555.006531 758.741943,567.340881 766.485107,573.980286 
	C781.303101,586.686096 799.882996,584.854919 811.778442,569.250610 
	C814.353027,565.873352 816.732666,565.392029 820.199768,566.769287 
	C836.296265,573.163086 848.178772,583.791809 854.820068,600.133972 
	C857.151062,605.869751 858.384033,611.876526 860.464905,617.652161 
	C865.278992,631.013855 867.165527,645.073059 868.096375,659.038330 
	C869.187744,675.411987 868.319580,691.821472 865.613831,708.210266 
	C863.514099,720.928223 859.713318,733.034607 855.647949,745.065857 
	C851.670654,756.836121 845.973389,767.963562 839.429932,778.592407 
	C831.228333,791.914612 821.889771,804.350769 811.195984,815.800781 
	C802.875610,824.709717 793.413025,832.224854 783.637268,839.391968 
	C776.737549,844.450378 769.567810,849.089294 761.960083,852.796814 
	C760.393066,851.639771 760.732544,850.208984 760.654114,848.938171 
	C759.597107,831.808350 756.100586,815.075500 750.264954,799.056885 
	C745.354126,785.576782 738.797058,772.682861 730.858765,760.610352 
	C721.384521,746.201965 709.892151,733.503357 696.881226,722.303589 
	C687.469055,714.201538 677.227600,707.103821 666.071411,701.446533 
	C662.487305,699.629028 659.290588,697.177063 657.008545,693.793396 
	C650.586121,684.270691 645.512817,674.188049 642.885376,662.852295 
	C640.449036,652.341003 639.829041,641.894836 641.471985,631.249878 
	C642.846863,622.342041 645.612793,614.021667 649.585022,605.852173 
	C653.412720,597.980103 658.966003,591.664307 664.179871,584.875793 
	C671.217346,589.075256 678.479858,590.867004 686.078979,589.219910 
	C699.830872,586.239136 709.061218,574.192017 709.752502,560.837708 
	C710.588562,544.685181 699.506042,532.872864 686.898438,530.280701 
	C669.696655,526.743958 653.140137,537.707520 650.120178,555.056763 
	C649.519897,558.505188 651.503601,562.320618 648.639587,565.429749 
	C645.936279,568.364380 643.321045,571.382141 640.720764,574.409485 
	C633.973206,582.265320 628.635010,591.023071 624.559143,600.513794 
	C620.281860,610.473389 618.074280,620.910400 616.985291,631.729736 
	C615.468750,646.796570 616.825439,661.508728 620.630310,676.067322 
	C621.236938,678.388306 623.039734,680.358398 622.920959,682.938538 
	C621.302063,683.670227 619.812744,683.391235 618.356934,683.131104 
	C609.882690,681.616760 601.463074,679.350464 592.928040,678.774048 
	C586.944824,678.369934 582.854370,676.426636 578.767273,672.199036 
	C574.131226,667.403687 568.334351,664.503113 561.080566,664.230591 
	C549.984436,663.813538 541.965332,668.437561 534.527466,676.232178 
	C528.388184,682.665955 528.117920,702.237793 531.780884,708.104065 
	C538.581482,718.995239 548.454712,724.586975 561.483643,723.559692 
	C573.479126,722.613953 581.671753,716.016357 586.801331,705.415039 
	C587.972717,702.994324 589.689453,702.393677 592.045532,702.771912 
	C614.286499,706.342407 635.868164,712.061951 655.547668,723.395020 
	C662.562866,727.434998 669.496643,731.812195 675.774292,736.892212 
	C685.680298,744.908630 694.311646,754.251404 702.483521,764.113342 
	C711.707153,775.244629 718.646912,787.679321 724.277893,800.717102 
	C730.988770,816.255066 734.540039,832.743469 736.621216,849.660400 
	C739.026917,869.215759 735.384705,887.937683 730.715149,906.558105 
	C727.594360,919.002747 721.265503,930.108643 714.349976,940.948364 
	C702.149414,960.072083 685.686279,974.522339 665.863831,984.830444 
	C650.572998,992.782166 634.402222,998.292542 616.729370,999.777161 
	C596.452881,1001.480469 576.758911,999.707153 557.952576,992.688782 
	C540.513672,986.180786 524.473328,976.706238 511.109070,963.277283 
	C508.545715,960.701477 507.550201,958.060913 507.563477,954.460022 
	C507.675415,924.129822 507.611450,893.798950 507.638397,863.468323 
	C507.639801,861.884888 507.156342,860.147583 508.523590,858.642700 
	C511.516815,859.276184 513.853027,861.158447 516.337463,862.738464 
	C530.245239,871.582947 545.682068,874.953064 561.872009,874.423401 
	C570.748474,874.133057 579.766357,873.353149 588.093201,869.486572 
	C590.110413,868.549805 592.221191,868.131958 594.178467,869.789673 
	C603.427673,877.623962 622.422607,877.192749 632.293030,868.141235 
	C643.566589,857.803101 645.873718,839.254395 636.170410,827.320374 
	C627.771790,816.990906 616.396606,814.156616 604.276550,816.856262 
	C592.948608,819.379517 585.413147,827.572021 583.274048,839.121216 
	C582.135864,845.266052 579.199097,847.622070 573.646667,848.189697 
	C572.498718,848.307129 571.375854,848.672119 570.242310,848.926880 
	C557.433594,851.806213 545.342346,849.883057 533.687927,843.918030 
	C526.280151,840.126526 519.652283,835.685974 514.422668,828.963989 
	C510.803101,824.311523 507.578247,819.979370 507.584869,813.726379 
	C507.653717,748.732178 507.624817,683.737976 507.621216,618.743713 
	C507.621124,617.077332 507.754608,615.392517 507.558502,613.748169 
	C507.053162,609.510620 505.171997,606.205750 500.961792,604.552856 
	C492.529480,601.242310 484.202423,606.451050 484.257965,616.507080 
	C484.509399,662.001648 484.370117,707.498352 484.370239,752.994324 
	C484.370392,822.821472 484.375824,892.648560 484.357483,962.475708 
	C484.355927,968.364380 486.138855,973.193054 490.571594,977.464722 
	C503.896454,990.305359 518.010376,1001.894348 535.099792,1009.501221 
	C544.645020,1013.749939 554.126648,1017.892151 564.486816,1020.018921 
	C570.706177,1021.295593 577.151245,1022.166565 583.000000,1025.000000 
	C507.979095,1025.000000 432.958221,1025.000000 357.766937,1024.733154 
	C358.526855,1024.191284 359.441498,1023.834290 360.389709,1023.653015 
	C374.416870,1020.972900 388.340698,1017.711121 401.395752,1011.892212 
	C419.426086,1003.855591 435.335785,992.608826 449.420715,978.669678 
	C454.535034,973.608398 456.664764,968.015625 456.661530,961.034668 
	C456.608795,846.876526 456.624908,732.718445 456.624176,618.560303 
	C456.624146,617.060486 456.709137,615.551636 456.577271,614.062744 
	C456.303741,610.974609 455.176422,608.345947 452.595520,606.356934 
	C448.115356,602.904297 443.402435,602.713440 438.607544,605.318359 
	C434.273773,607.672913 433.370728,611.840942 433.371674,616.393494 
	C433.385101,681.721924 433.312744,747.050598 433.503876,812.378479 
	C433.519470,817.705750 431.970764,822.047974 429.277069,826.292725 
	C427.843475,828.551880 425.488464,829.890381 423.787323,831.979309 
	C417.754944,839.386780 409.431488,844.025879 400.737091,847.025635 
	C388.814453,851.139221 376.391876,851.403870 364.072418,847.450623 
	C360.894348,846.430786 359.195862,845.302124 358.452515,841.660339 
	C356.421906,831.711792 351.618805,823.696228 341.947968,818.797424 
	C336.290283,815.931580 330.654419,816.545776 324.911896,816.412659 
	C309.838135,816.063354 296.241974,834.590332 298.810852,849.159363 
	C301.258820,863.042969 308.604614,872.319336 323.076508,874.958557 
	C331.656128,876.523315 339.614441,875.139160 346.473114,869.707458 
	C348.309509,868.253174 349.843506,868.248047 351.439972,868.904663 
	C363.687927,873.942017 376.311523,874.503662 389.438873,873.888611 
	C403.265137,873.240784 415.210144,868.495972 426.638428,861.441711 
	C428.547485,860.263306 430.380493,858.810547 432.970428,858.741089 
	C433.122925,859.799866 433.341400,860.610901 433.341888,861.421997 
	C433.360962,893.086243 433.336121,924.750488 433.406281,956.414551 
	C433.412048,959.024231 432.270508,960.769165 430.582153,962.496765 
	C422.054474,971.222290 412.103485,978.097168 401.588348,984.071594 
	C395.271820,987.660461 388.621216,991.010132 381.709625,993.121399 
	C371.295105,996.302734 360.842072,999.249390 349.689453,999.935913 
	C337.647522,1000.677063 325.690796,1000.642944 313.975067,998.531982 
	C298.249023,995.698364 283.623627,989.635803 269.603546,981.629761 
	C249.559814,970.184143 234.174194,954.146790 222.508514,934.819580 
	C215.759125,923.637512 210.997040,911.289490 208.138565,898.062805 
	C203.577515,876.958130 202.228271,856.172241 206.542206,834.945923 
	C210.132339,817.280945 215.857101,800.493774 224.645889,784.739075 
	C228.942245,777.037537 233.940323,769.906311 239.360733,762.914062 
	C247.490494,752.426697 256.854950,743.207581 267.245422,735.303772 
	C279.205750,726.205933 292.239716,718.662781 306.616608,713.510071 
	C320.567963,708.509949 334.809113,705.039185 349.392700,702.760132 
	C351.313721,702.459900 352.555420,703.075012 353.673279,705.131104 
	C361.884125,720.233459 375.872223,727.387939 393.324860,721.727051 
	C409.365326,716.524231 417.823883,691.669128 407.812439,678.082703 
	C395.149414,660.897827 372.478882,658.741760 358.807495,675.607239 
	C357.303253,677.462830 355.562592,678.293701 353.263214,678.381409 
	C344.611389,678.711487 336.172943,680.470032 327.690369,682.042236 
	C324.785553,682.580566 321.727844,684.398438 318.251221,682.399658 
	C319.702850,677.759644 321.807678,673.292480 322.429016,668.627686 
	C324.400055,653.829773 325.409851,639.130676 322.949738,624.057983 
	C319.828857,604.936584 312.020447,588.505615 299.758606,573.886658 
	C294.924683,568.123474 288.683228,563.083496 290.500519,554.179993 
	C290.647919,553.457886 290.103851,552.593201 289.875946,551.796204 
	C285.357025,535.992554 269.740417,526.431152 252.132660,530.727112 
	C230.942444,535.897217 224.802444,564.948242 238.589996,579.378113 
	C248.530487,589.781738 260.098480,592.585510 273.471527,586.787231 
	C275.549255,585.886475 277.289642,585.162292 279.173615,587.479065 
	C284.615875,594.171509 289.416443,601.220642 292.963898,609.120667 
	C297.286713,618.747498 299.766937,628.832764 300.309967,639.323608 
	C301.227997,657.058228 296.488251,673.350769 287.387329,688.531372 
	C284.239655,693.781799 280.771942,698.514709 275.052246,701.133484 
	C271.279083,702.861023 268.055786,705.495911 264.521851,707.549072 
	C251.518433,715.103760 240.300323,724.872437 230.016937,735.593750 
	C213.552322,752.759460 201.445801,772.864563 192.373535,794.835449 
	C186.580017,808.866089 183.801926,823.607849 181.231293,838.464783 
	C180.434952,843.067322 181.498260,848.089294 178.813568,852.553040 
	C177.930725,852.250183 177.270660,852.127808 176.715240,851.817871 
	C163.494461,844.439880 151.089432,835.765808 139.888367,825.685974 
	C120.992416,808.681641 105.896172,788.567749 94.693451,765.695984 
	C86.223831,748.404114 79.381477,730.626831 76.220474,711.374084 
	C73.689735,695.959961 71.750206,680.717834 72.469223,665.037292 
	C73.141724,650.371155 75.958359,636.119873 78.839699,621.848389 
	C79.718727,617.494507 81.914230,613.423340 83.073997,609.106323 
	C88.564995,588.667236 101.079506,574.575745 120.723587,566.728943 
	C124.293312,565.303101 126.657982,565.753601 129.160004,569.155090 
	C138.145966,581.371338 151.472504,584.979187 165.638885,579.539673 
	C181.077499,573.611694 188.848816,552.460815 180.589340,538.240417 
	C168.102066,516.740845 139.526154,517.454041 127.164856,537.340820 
	C125.878281,539.410583 124.472015,540.337158 122.310799,540.924805 
	C112.358841,543.631287 102.747215,547.024170 94.004677,552.804504 
	C84.025497,559.402466 75.888451,567.645142 69.738327,577.802856 
	C67.501366,576.898743 65.793915,575.996765 64.699715,574.145081 
	C60.001102,566.193604 54.892090,558.501831 50.204765,550.527832 
	C43.432014,539.006226 38.429844,526.773193 34.699947,514.166016 
	C30.535694,500.090668 27.151037,485.836548 26.259748,470.864380 
	C25.355480,455.674225 25.181700,440.502197 27.005304,425.608368 
	C29.692671,403.660034 36.821823,382.674896 46.694450,362.830750 
	C58.712418,338.674469 75.102142,317.768127 95.330032,299.905518 
	C97.661903,297.846283 99.977898,298.232239 101.463539,301.086792 
	C108.694481,314.980530 118.931580,326.499512 130.346802,336.965576 
	C136.237946,342.366882 140.090424,348.107849 140.294189,356.518433 
	C140.520630,365.865784 140.914810,375.367676 138.828766,384.308716 
	C136.708527,393.396332 132.691162,402.214813 127.123573,409.980743 
	C124.482353,413.664825 121.663567,416.870117 115.905472,415.567932 
	C110.150581,414.266479 103.852928,415.284149 99.041405,418.435211 
	C89.192192,424.885406 82.494125,433.431183 83.268379,446.455139 
	C84.282310,463.510925 98.998253,475.945282 113.922165,475.175201 
	C136.325256,474.019226 147.464233,453.363617 141.583420,435.412933 
	C140.852402,433.181610 141.155777,431.849457 142.595383,430.089355 
	C152.410278,418.089813 158.782486,404.386230 162.679977,389.412689 
	C164.817322,381.201447 165.674469,372.853729 165.888947,364.711426 
	C167.594421,363.817383 168.697662,364.440460 169.701340,364.920715 
	C181.445923,370.540344 193.691483,374.677399 206.480362,377.072662 
	C210.926956,377.905518 213.555084,380.006256 214.551178,384.525696 
	C216.009048,391.140381 220.868027,395.733917 226.189011,398.731689 
	C240.717041,406.916595 260.219513,402.831604 268.552155,387.425934 
	C276.187866,373.308685 272.397491,359.444763 261.881927,350.485718 
	C249.650543,340.064728 232.611877,340.350983 221.217621,351.890747 
	C218.776077,354.363434 216.093140,354.843140 213.031525,353.956848 
	C206.822342,352.159363 200.531433,350.550140 194.490662,348.285889 
	C184.237442,344.442657 174.008362,340.193481 165.056168,333.919983 
	C148.615082,322.398315 134.620056,308.304871 123.933861,291.122620 
	C117.402748,280.621338 111.601562,269.449860 109.129227,257.572815 
	C106.045242,242.757492 104.298332,227.549667 106.452553,212.092377 
	C108.180412,199.694427 110.919121,187.667145 115.566032,176.155975 
	C119.669792,165.990280 125.253860,156.521576 131.674240,147.585770 
	C148.841064,123.693153 171.931244,107.887100 199.579071,98.723312 
	C214.623245,93.736969 230.268265,91.627632 246.174286,92.689201 
	C250.798584,92.997818 253.726410,91.569908 255.516739,87.164383 
	C256.745972,84.139519 258.494934,81.261124 260.383942,78.579605 
	C272.618195,61.212849 287.869873,47.524754 306.997681,37.725742 
	C330.030212,25.926401 354.353668,23.567696 379.143921,27.092371 
	C396.976135,29.627750 413.296265,37.514160 428.072388,48.117558 
	C431.795929,50.789581 433.676849,53.859531 433.530640,58.899250 
	C433.100586,73.719002 433.397522,88.559319 433.348602,103.391380 
	C433.342834,105.147179 433.903870,107.035118 432.653717,108.713142 
	C430.010529,108.574341 428.827515,106.256966 426.962158,105.003311 
	C422.286560,101.860962 417.909760,98.083023 412.871674,95.709175 
	C400.889648,90.063499 388.123871,87.271065 374.802246,87.385406 
	C372.759705,87.402939 371.075012,87.086746 369.570953,85.239899 
	C361.310211,75.096458 350.506805,71.777802 337.949524,74.568275 
	C324.949371,77.457153 317.005432,88.075996 315.590637,99.213943 
	C313.855927,112.870140 319.729492,123.697853 331.867584,130.210419 
	C348.375183,139.067383 364.132690,130.701508 371.955170,117.531357 
	C375.356567,111.804665 376.130402,110.622406 382.905334,111.739677 
	C413.391296,116.767235 432.832642,140.749176 433.331329,170.546188 
	C433.593414,186.207306 433.352905,201.876450 433.391388,217.541855 
	C433.408508,224.513794 438.296448,229.611969 444.690216,229.481781 
	C452.128906,229.330322 456.544250,225.025085 456.603333,217.672852 
	C456.745270,200.013000 456.915009,182.352493 456.899567,164.692413 
	C456.865997,126.368210 456.556213,88.043137 456.776520,49.720814 
	C456.817261,42.633999 455.217407,37.655663 449.292358,33.212524 
	C432.913971,20.930534 415.611115,10.862955 395.477722,6.060273 
	C389.282318,4.582395 382.836182,3.848886 377.000000,1.000000 
M565.135498,524.604675 
	C568.055298,520.291565 571.935059,517.851440 577.305847,518.697449 
	C583.190430,519.624390 589.075745,520.540405 594.693909,522.711365 
	C599.942566,524.739441 603.953308,522.890503 606.666443,517.872070 
	C609.822388,512.034546 613.084473,506.240570 616.603760,500.617493 
	C619.785522,495.533478 619.477417,490.555573 615.239380,486.375458 
	C612.036255,483.216034 608.735413,480.139832 605.728638,476.800964 
	C602.062073,472.729462 600.366943,468.294464 602.931702,462.684296 
	C606.274719,455.371643 606.979736,447.407104 607.652954,439.468384 
	C608.204590,432.962708 609.169922,427.021973 616.114197,423.248474 
	C621.230713,420.468201 627.005859,419.181213 631.736328,415.642487 
	C635.387573,412.911163 637.370605,410.040558 636.118835,405.074371 
	C634.258972,397.695129 632.864563,390.174622 631.730347,382.645203 
	C631.024292,377.958252 628.293274,376.031128 624.134583,375.480011 
	C620.194031,374.957794 616.125061,375.115723 612.279968,374.239624 
	C607.844360,373.228882 602.095154,374.575653 599.739502,368.904297 
	C595.404480,358.467957 590.721924,348.274109 583.502991,339.410004 
	C579.823853,334.892365 580.360718,329.672028 583.127136,325.133606 
	C586.126343,320.213226 587.344727,314.680023 589.732117,309.589569 
	C591.281738,306.285339 590.227783,303.753998 587.772278,301.590729 
	C581.710083,296.250122 575.611084,290.950378 569.471497,285.698975 
	C566.887573,283.488831 564.084229,283.004272 560.655823,284.122070 
	C554.630005,286.086761 550.164062,290.433502 545.074585,293.774780 
	C540.564026,296.736023 536.891602,297.368469 531.940002,294.381409 
	C524.913818,290.142944 517.928772,285.637878 509.181519,284.959778 
	C501.649200,284.375793 496.194916,280.420685 494.134003,272.553162 
	C493.549927,270.323425 492.998108,268.117920 492.497589,265.865204 
	C490.189545,255.477478 488.961700,252.042648 481.507843,251.549515 
	C473.709442,251.033615 465.844360,251.230957 458.020782,251.489899 
	C452.459015,251.673965 448.980927,255.028793 448.503815,260.533539 
	C448.047699,265.796661 445.936340,270.423187 444.007812,275.187958 
	C442.178955,279.706543 438.830994,281.632599 434.200989,282.501617 
	C425.897980,284.060028 417.679535,285.814697 410.216400,290.319244 
	C403.151154,294.583649 397.092224,293.529480 390.564941,288.321625 
	C387.327850,285.738861 383.742432,283.596283 380.355560,281.196747 
	C376.151398,278.218140 372.099396,278.931763 368.448730,281.983887 
	C362.391815,287.047760 356.612091,292.443634 350.545410,297.495270 
	C347.345642,300.159698 346.661224,303.101685 348.305817,306.769806 
	C350.542786,311.759186 352.670654,316.801483 355.053528,321.720215 
	C357.381348,326.525421 356.554047,330.894592 353.305267,334.733459 
	C346.937958,342.257233 341.709137,350.376801 338.364258,359.716431 
	C336.600250,364.641998 333.265350,367.428986 327.499847,367.538513 
	C321.900238,367.644897 316.277985,368.604004 310.749878,369.638519 
	C307.619659,370.224274 304.134491,370.767670 303.363647,375.134338 
	C302.038544,382.640656 300.418854,390.095703 298.875488,397.562469 
	C297.474213,404.342133 299.311890,408.382385 305.701843,411.260132 
	C310.252563,413.309509 314.645477,415.648590 319.122925,417.805145 
	C322.897766,419.623291 324.330200,422.281433 324.319611,425.982910 
	C324.292847,435.334625 325.436981,444.450012 328.005402,453.497314 
	C329.820923,459.892548 330.800659,466.299957 324.085815,471.496979 
	C320.136658,474.553528 316.455902,478.289124 313.563721,482.614685 
	C310.986786,486.468781 310.537140,489.942322 313.182617,494.104706 
	C316.726227,499.680206 319.868286,505.534302 322.849213,511.437195 
	C325.584351,516.853455 329.403320,519.048096 335.262634,517.596741 
	C338.800415,516.720520 342.202759,515.255737 345.761658,514.515930 
	C352.275208,513.161865 358.357147,511.993408 363.477081,518.941162 
	C368.039917,525.132935 373.516235,531.160400 380.466583,534.810913 
	C389.275116,539.437317 391.636108,546.448242 390.336395,555.531189 
	C390.148895,556.841736 389.828125,558.132690 389.599762,559.438049 
	C388.087097,568.085144 389.505096,574.024780 394.860840,575.539551 
	C402.550507,577.714539 409.513306,581.851257 417.367706,583.358521 
	C422.344727,584.313721 426.495026,583.065247 429.316040,578.362366 
	C431.789276,574.239197 434.783051,570.426086 437.216461,566.281921 
	C439.008759,563.229614 441.483643,562.161743 444.718842,562.678345 
	C456.645416,564.582764 468.651398,563.544495 480.605286,563.455750 
	C486.138580,563.414612 489.372650,565.381836 491.532318,570.107178 
	C493.849426,575.177124 497.978455,578.929260 501.405090,583.170837 
	C504.058441,586.455200 507.365295,587.248840 511.632294,585.362549 
	C518.418884,582.362488 525.630188,580.424988 532.448059,577.378052 
	C536.946350,575.367676 539.047974,572.517395 538.593933,567.781616 
	C538.086853,562.492981 537.659546,557.218567 537.510010,551.893860 
	C537.377136,547.161255 539.058838,543.368958 542.858826,541.356934 
	C551.002991,537.044922 558.396423,531.914124 565.135498,524.604675 
z"/>
<path fill="#000000" opacity="1.000000" stroke="none" 
	d="
M1.000000,476.468658 
	C3.692960,482.641541 4.005715,489.807922 5.213438,496.731659 
	C8.391340,514.950195 14.184822,532.344666 21.738277,549.055115 
	C30.505484,568.450684 41.997929,586.296143 56.241241,602.227905 
	C58.738884,605.021606 57.800983,608.148376 56.978691,610.668457 
	C48.863735,635.538025 47.363510,661.191345 48.569538,686.962585 
	C49.340771,703.442810 51.687115,719.811768 56.496601,735.845093 
	C58.976231,744.111450 61.724583,752.261597 64.780174,760.272278 
	C69.857872,773.584290 76.666763,786.094788 84.443893,798.050781 
	C94.255722,813.134827 105.556129,827.021118 118.637093,839.370178 
	C129.863785,849.968811 141.780136,859.705261 155.095474,867.702332 
	C162.471588,872.132263 169.725250,876.748657 177.540375,880.366882 
	C180.739166,881.847900 180.961502,884.857788 181.225327,887.489258 
	C183.155594,906.742798 188.884766,924.965942 198.083893,941.750061 
	C209.494003,962.568359 224.782104,980.364380 244.111328,994.558716 
	C258.453491,1005.090698 274.241455,1012.681641 290.991547,1018.182495 
	C299.591431,1021.006836 308.688904,1022.315857 317.780762,1024.654785 
	C212.386719,1025.000000 106.773438,1025.000000 1.000000,1025.000000 
	C1.000000,842.312500 1.000000,659.624878 1.000000,476.468658 
z"/>
<path fill="#000000" opacity="1.000000" stroke="none" 
	d="
M340.531342,1.000000 
	C334.354645,4.093830 326.993927,4.379887 320.049896,6.332477 
	C302.593658,11.241013 286.684784,19.188906 272.350006,30.248665 
	C260.338867,39.515694 249.762619,50.273212 241.468262,62.964813 
	C238.699997,67.200668 235.817795,68.194611 231.101837,68.597046 
	C219.591461,69.579262 208.119827,70.702980 196.821671,73.946136 
	C182.811996,77.967644 169.642822,83.641373 157.240372,91.015839 
	C143.785507,99.016083 131.900482,109.127907 121.576141,120.930206 
	C111.928520,131.958923 103.890259,144.090347 97.339020,157.230515 
	C90.180534,171.588669 84.848129,186.755569 82.899033,202.480988 
	C80.376450,222.833481 79.663666,243.586472 85.618629,263.602966 
	C87.831848,271.042267 86.605629,274.942841 80.568977,280.115326 
	C64.447723,293.928864 50.442406,309.724365 38.624828,327.663971 
	C28.666100,342.781799 20.806623,358.777191 14.462275,375.476471 
	C7.993901,392.502228 4.368835,410.404572 2.243176,428.546448 
	C2.169633,429.174103 1.771602,429.763763 1.262406,430.685547 
	C1.000000,287.748108 1.000000,144.496216 1.000000,1.000000 
	C114.020775,1.000000 227.041733,1.000000 340.531342,1.000000 
z"/>
<path fill="#000000" opacity="1.000000" stroke="none" 
	d="
M929.000000,380.531372 
	C927.528931,377.541443 925.918396,374.134735 924.609253,370.615936 
	C915.735596,346.764191 902.102112,325.693451 886.385742,305.929810 
	C880.968323,299.117218 874.955811,292.618256 868.382507,286.940002 
	C863.929688,283.093475 859.917542,278.639954 854.898743,275.458679 
	C853.009399,274.261047 852.624573,272.948120 853.352539,270.862457 
	C854.278992,268.208069 854.928894,265.451080 855.597473,262.713776 
	C859.967957,244.821686 860.043518,226.722076 858.572144,208.477890 
	C857.322266,192.981064 852.793274,178.523544 846.883789,164.235977 
	C838.563782,144.119888 826.232849,126.887230 810.716309,111.932610 
	C797.145386,98.853165 781.674866,88.564590 764.157227,81.126526 
	C754.163696,76.883232 743.983887,73.570328 733.484802,71.389297 
	C725.097412,69.646935 716.514099,68.398552 707.875305,68.435570 
	C704.952393,68.448090 702.868225,67.748199 701.244080,65.143761 
	C694.251648,53.930725 685.235046,44.386150 675.357788,35.779728 
	C655.973022,18.889044 633.557678,7.984957 608.169800,3.381886 
	C605.575134,2.911446 603.015259,2.248996 600.219604,1.337821 
	C709.598938,1.000000 819.197937,1.000000 929.000000,1.000000 
	C929.000000,127.354156 929.000000,253.708420 929.000000,380.531372 
z"/>
<path fill="#000000" opacity="1.000000" stroke="none" 
	d="
M622.468628,1025.000000 
	C628.855896,1023.259277 635.631958,1021.030334 642.586609,1019.893555 
	C652.740479,1018.233704 661.915405,1014.030701 671.054565,1009.828613 
	C689.198303,1001.486389 705.061951,989.812439 718.710144,975.225037 
	C726.642761,966.746643 733.306702,957.328674 739.464417,947.457336 
	C746.390137,936.354919 750.724731,924.249939 754.974060,912.040344 
	C757.499634,904.783691 758.245361,897.155151 759.463318,889.662048 
	C760.289856,884.576660 761.609375,881.442139 766.828491,878.737061 
	C778.965210,872.446777 790.790955,865.463074 801.633057,856.898865 
	C811.029480,849.476624 820.373291,842.060486 828.645996,833.379395 
	C837.000183,824.612854 844.548035,815.164429 852.027649,805.659058 
	C852.719666,804.779541 853.458923,803.937439 854.440552,802.761230 
	C855.583435,805.841248 854.046326,807.638123 853.229004,809.511169 
	C847.777771,822.003601 851.095215,831.708008 863.546204,837.573059 
	C870.203064,840.708923 876.683594,843.984680 882.725281,848.210449 
	C886.868530,851.108276 907.499390,853.139099 912.332520,851.579712 
	C916.596558,850.203857 920.018616,847.667480 922.856873,844.269104 
	C924.463928,842.345032 926.094727,840.451782 928.704712,839.162109 
	C929.000000,890.020874 929.000000,941.041809 928.755798,992.373413 
	C921.454773,993.550293 913.930115,993.039185 908.584900,999.114868 
	C905.955505,1002.103699 903.297546,1005.096741 900.977295,1008.321472 
	C897.408447,1013.281677 895.105347,1018.675232 897.000000,1025.000000 
	C805.645752,1025.000000 714.291565,1025.000000 622.468628,1025.000000 
z"/>
<path fill="#000000" opacity="1.000000" stroke="none" 
	d="
M929.000000,683.531372 
	C927.874695,680.876160 926.901917,677.686646 925.591187,674.642578 
	C923.155701,668.986206 918.744202,668.139832 914.324097,672.364380 
	C913.002075,673.627991 911.749146,674.968140 910.518250,676.322083 
	C906.533813,680.704590 904.571777,680.396912 902.497620,675.030640 
	C900.208557,669.108643 900.208618,669.108643 893.431213,671.591492 
	C892.159546,665.058350 892.743164,658.441956 891.815308,651.945190 
	C890.060669,639.660339 889.359436,627.183960 885.368652,615.340393 
	C883.152649,608.764221 883.181641,603.592224 888.271912,597.792236 
	C899.765747,584.695679 908.973999,569.978577 916.614136,554.204773 
	C921.028015,545.091980 924.533447,535.677673 928.657104,526.171082 
	C929.000000,578.354248 929.000000,630.708435 929.000000,683.531372 
z"/>
<path fill="#000000" opacity="1.000000" stroke="none" 
	d="
M701.999084,364.530701 
	C707.782715,367.832916 709.301575,371.718872 707.200745,377.039215 
	C705.846802,380.468109 700.520386,383.106384 696.851257,382.165619 
	C692.466003,381.041229 689.250183,376.493134 689.692139,372.040619 
	C690.266846,366.251038 695.386108,362.964813 701.999084,364.530701 
z"/>
<path fill="#000000" opacity="1.000000" stroke="none" 
	d="
M818.681641,445.793884 
	C819.278381,439.145325 821.202209,436.429138 826.113953,435.825531 
	C830.191040,435.324493 833.627441,436.814270 835.719238,440.592682 
	C838.248535,445.161285 837.013184,449.838501 832.612610,452.581512 
	C827.975159,455.472168 823.502136,454.688049 820.422852,450.268463 
	C819.600220,449.087769 819.256958,447.572998 818.681641,445.793884 
z"/>
<path fill="#000000" opacity="1.000000" stroke="none" 
	d="
M551.535950,688.472168 
	C557.973450,682.862793 565.614075,683.950439 567.486023,690.961304 
	C568.407043,694.410706 568.742676,698.916565 564.429871,701.517761 
	C560.439087,703.924866 556.482117,704.065002 552.860901,701.125488 
	C549.442444,698.350769 548.459717,694.683838 550.331055,690.502319 
	C550.601074,689.898865 550.970093,689.339661 551.535950,688.472168 
z"/>
<path fill="#000000" opacity="1.000000" stroke="none" 
	d="
M682.230347,568.489929 
	C676.938782,569.133362 673.068665,566.811462 671.136414,561.830627 
	C669.739380,558.229492 671.307495,555.322205 674.019958,553.003235 
	C677.582214,549.957703 681.573914,549.787109 685.586914,551.932739 
	C689.052490,553.785583 689.289368,557.427246 689.147217,560.639893 
	C688.973450,564.568054 686.723633,567.438171 682.230347,568.489929 
z"/>
<path fill="#000000" opacity="1.000000" stroke="none" 
	d="
M604.182983,106.855164 
	C597.918884,113.555206 596.220825,114.150993 591.644531,111.575470 
	C587.221497,109.086197 585.473450,104.145004 587.406250,99.595009 
	C588.928772,96.010841 594.387573,93.997978 598.579773,95.474983 
	C603.178833,97.095314 605.593079,101.736702 604.182983,106.855164 
z"/>
<path fill="#000000" opacity="1.000000" stroke="none" 
	d="
M603.688599,848.053589 
	C602.582581,843.118225 604.639221,838.932312 608.781982,837.340454 
	C612.757141,835.812927 616.466370,836.642151 619.084839,839.873779 
	C622.621399,844.238525 622.186829,849.767334 617.999512,853.268616 
	C614.784912,855.956665 610.844421,855.558716 607.296692,853.749817 
	C605.322388,852.743225 604.896362,850.268250 603.688599,848.053589 
z"/>
<path fill="#000000" opacity="1.000000" stroke="none" 
	d="
M789.415405,560.883301 
	C783.504333,561.127869 778.746826,558.207703 778.012817,553.816650 
	C777.295654,549.525879 779.336609,546.427429 783.216370,544.595642 
	C787.997742,542.338135 791.740906,543.576111 794.619080,548.270142 
	C797.006287,552.163391 796.225403,556.201782 792.397644,559.313293 
	C791.640320,559.928955 790.671570,560.284485 789.415405,560.883301 
z"/>
<path fill="#000000" opacity="1.000000" stroke="none" 
	d="
M872.923828,769.906067 
	C879.255249,754.882935 883.493896,739.353088 888.260498,723.894226 
	C890.256714,724.882202 889.991699,726.139099 889.829285,727.229187 
	C888.413513,736.731750 886.613464,746.183655 881.865295,754.656372 
	C879.808716,758.326111 879.172302,762.541748 876.880310,765.991333 
	C875.857849,767.530090 875.807190,770.273132 872.923828,769.906067 
z"/>
<path fill="#000000" opacity="1.000000" stroke="none" 
	d="
M337.569214,108.160721 
	C334.916199,103.219437 335.659851,99.415207 339.473236,96.553871 
	C343.087677,93.841812 349.392334,94.039139 352.449738,96.960030 
	C354.701782,99.111519 355.035553,105.690269 353.045807,108.709785 
	C350.750824,112.192513 345.726288,113.726898 342.187744,112.393028 
	C340.089844,111.602211 339.635376,109.370323 337.569214,108.160721 
z"/>
<path fill="#000000" opacity="1.000000" stroke="none" 
	d="
M373.571106,694.363525 
	C373.279236,689.040833 375.981079,686.159180 380.330231,684.826477 
	C384.230499,683.631470 388.556000,686.158569 390.801392,690.608826 
	C392.681000,694.333984 391.641235,697.877258 388.947327,700.525024 
	C385.711975,703.704895 381.545471,704.292664 377.490173,702.006104 
	C374.829254,700.505859 372.681396,698.349670 373.571106,694.363525 
z"/>
<path fill="#000000" opacity="1.000000" stroke="none" 
	d="
M121.422096,448.900024 
	C116.000854,455.755768 110.036430,455.916748 105.773018,449.952179 
	C103.126175,446.249298 103.207016,442.676239 105.959732,439.488190 
	C108.519493,436.523529 111.868629,434.763458 116.148193,436.170258 
	C120.338432,437.547668 122.315697,440.377045 122.355103,444.690399 
	C122.367241,446.019043 122.417953,447.364380 121.422096,448.900024 
z"/>
<path fill="#000000" opacity="1.000000" stroke="none" 
	d="
M155.504883,542.955566 
	C160.242905,544.529846 163.143463,547.556519 163.126556,552.080322 
	C163.113434,555.587280 160.980606,558.656616 157.626343,560.281921 
	C153.989304,562.044250 150.578476,561.570923 147.601822,558.627991 
	C144.324524,555.387756 143.996094,551.726318 145.890259,547.717346 
	C147.739365,543.803650 151.012207,542.512695 155.504883,542.955566 
z"/>
<path fill="#000000" opacity="1.000000" stroke="none" 
	d="
M262.491577,568.709595 
	C258.579926,569.103821 255.510040,567.923523 253.462692,565.080566 
	C251.012115,561.677734 251.116135,557.826172 253.153564,554.286194 
	C255.153717,550.810974 258.683014,550.223145 262.295502,550.774597 
	C266.233368,551.375793 268.902161,553.840942 270.082184,557.601624 
	C271.325562,561.564087 268.082306,566.302979 262.491577,568.709595 
z"/>
<path fill="#000000" opacity="1.000000" stroke="none" 
	d="
M244.315643,381.830994 
	C237.969376,382.519806 234.267761,379.933777 233.222702,374.518005 
	C232.346710,369.978394 235.352646,365.382538 240.102310,363.999603 
	C244.255814,362.790192 249.612213,365.939697 251.032288,370.426270 
	C252.500168,375.063873 250.162857,379.194641 244.315643,381.830994 
z"/>
<path fill="#000000" opacity="1.000000" stroke="none" 
	d="
M322.204681,839.232605 
	C328.716034,834.978271 333.889099,836.227783 337.052185,842.056030 
	C339.619934,846.787292 336.662476,850.072754 334.347046,853.302124 
	C332.658997,855.656494 325.390015,855.510925 323.155029,853.641602 
	C320.468475,851.394592 319.169342,845.416016 320.674896,842.242615 
	C321.101166,841.344055 321.516907,840.440491 322.204681,839.232605 
z"/>
<path fill="#000000" opacity="1.000000" stroke="none" 
	d="
M571.250000,363.931519 
	C577.333130,375.454376 580.881592,387.427795 583.388306,399.793671 
	C586.517944,415.233276 585.177002,430.300415 581.693665,445.597107 
	C576.519958,468.316467 565.299072,487.440491 549.130249,503.705902 
	C540.323608,512.565186 529.573853,519.026917 518.436951,524.753357 
	C503.276367,532.548767 486.935181,535.913940 470.188904,537.199707 
	C459.544556,538.017029 449.115601,535.382507 438.759064,532.979004 
	C423.868561,529.523315 410.499634,522.827271 398.143707,514.019653 
	C387.108856,506.153717 378.071747,496.421875 370.454041,485.141510 
	C355.555786,463.080109 348.518677,438.779022 349.824982,412.381805 
	C350.477325,399.199524 353.877533,386.439941 359.010254,373.979492 
	C365.460175,358.321381 374.643646,344.806519 386.763733,333.354187 
	C400.795746,320.095215 417.172394,310.122833 435.874603,305.239838 
	C454.591156,300.353088 473.635162,299.561768 492.852539,304.120300 
	C512.507568,308.782684 529.676208,317.643860 545.009705,330.675049 
	C555.947083,339.970245 563.946716,351.391418 571.250000,363.931519 
M466.993134,479.009888 
	C467.151611,479.145508 467.310120,479.281128 467.054291,479.986786 
	C464.153717,481.657745 463.185028,484.120636 463.313690,487.471313 
	C463.543610,493.460022 463.337708,499.464294 463.382843,505.461517 
	C463.500702,521.125488 461.247131,519.530884 478.051422,519.631958 
	C482.163635,519.656677 483.683044,517.718262 483.635681,513.801697 
	C483.542969,506.139374 483.675690,498.474457 483.603241,490.811676 
	C483.578461,488.189545 484.018982,485.747101 485.936920,483.933594 
	C491.252441,478.907623 496.358673,473.583466 502.132324,469.136230 
	C511.772888,461.710388 519.495178,453.712280 516.686951,440.142731 
	C516.290161,438.225739 516.577637,436.153839 516.645020,434.156891 
	C516.792786,429.778259 517.177490,425.523560 511.753540,423.436768 
	C510.209229,422.842651 509.114655,420.475067 508.302368,418.697510 
	C505.967651,413.588531 510.027893,406.396606 515.096497,406.369812 
	C507.422394,416.008606 508.771881,420.734467 520.337524,424.517029 
	C519.424011,426.718201 519.360107,429.035400 519.367310,431.377777 
	C519.389282,438.541473 519.278687,445.706818 519.403625,452.868317 
	C519.450684,455.563965 518.863220,457.939667 516.736755,459.524902 
	C510.039551,464.517639 504.811981,471.112183 498.331390,476.302704 
	C490.640320,482.462738 484.235931,489.057159 486.299347,500.127625 
	C486.689575,502.221283 486.325226,504.449615 486.370697,506.614532 
	C486.632416,519.076782 483.670898,520.016541 498.825043,514.895996 
	C509.735596,511.209320 509.989868,510.861938 509.489624,499.037720 
	C509.200684,492.208710 511.222198,487.436035 516.744629,483.330261 
	C521.608704,479.713898 526.824097,476.038757 524.928589,467.992188 
	C523.973877,463.939056 529.933105,458.742828 534.474182,458.852173 
	C538.177063,458.941284 541.718079,460.233704 543.838318,465.459229 
	C538.758789,461.898560 534.438538,459.577118 529.901733,463.540161 
	C526.848450,466.207336 526.633545,469.808502 528.613281,473.106445 
	C532.121399,478.950226 537.413879,476.410065 542.505920,475.145142 
	C539.643372,479.965118 535.969849,481.410309 531.283630,478.926086 
	C528.053467,477.213684 526.107849,477.736969 524.033875,480.379578 
	C523.131348,481.529602 521.538330,482.148560 520.674988,483.316376 
	C518.017395,486.911316 512.424622,488.213531 512.395935,493.847900 
	C512.378113,497.346344 512.370117,500.844879 512.371277,504.343353 
	C512.372375,507.792114 513.535706,509.025452 516.933105,507.049561 
	C526.882812,501.262970 535.782776,494.330933 543.444519,485.607910 
	C557.982056,469.056641 566.164856,449.620880 568.371521,428.106689 
	C571.010132,402.382202 563.087646,379.011871 548.479614,357.934540 
	C546.162964,354.591888 542.455322,352.213318 538.410339,348.485443 
	C538.410339,355.842529 538.425232,362.249359 538.400208,368.656067 
	C538.393677,370.316895 539.325562,371.445618 539.989380,373.007111 
	C539.866577,373.158752 539.743774,373.310364 538.874023,373.453003 
	C536.823303,373.564880 534.772644,373.676758 531.848511,373.836304 
	C534.507324,371.605682 535.727722,369.645874 535.661743,366.866058 
	C535.507629,360.371643 535.605164,353.870972 535.623535,347.372925 
	C535.628845,345.470856 535.226196,343.885162 533.670654,342.497314 
	C529.209045,338.516754 524.517334,334.869263 519.402161,331.772888 
	C514.959106,329.083405 513.453186,329.845245 513.417664,334.925049 
	C513.352417,344.255341 513.305420,353.586884 513.395874,362.916473 
	C513.422058,365.615631 512.665710,367.736603 510.648193,369.538483 
	C501.606201,377.613922 492.639709,385.774139 483.567413,393.815186 
	C481.259308,395.860931 480.272827,398.190735 480.330109,401.262695 
	C480.457397,408.091675 480.489563,414.927948 480.311707,421.754761 
	C480.224579,425.099823 481.031403,427.268524 484.370056,428.830475 
	C488.640228,430.828156 490.636780,436.162872 489.351685,440.138275 
	C487.810242,444.906769 483.456360,448.443329 479.245087,448.347687 
	C474.545227,448.240936 470.590668,445.048126 469.125854,440.177673 
	C467.776398,435.690796 469.564209,431.168549 474.324493,428.446655 
	C476.908539,426.969116 477.659119,425.075165 477.626251,422.351593 
	C477.551941,416.187775 477.870148,410.009338 477.553680,403.861328 
	C477.294189,398.820099 478.827820,395.220642 482.620636,391.647522 
	C486.173492,388.300415 490.424164,385.691223 493.378510,381.593994 
	C495.276611,378.961700 497.909302,376.735260 500.552704,374.788544 
	C507.276947,369.836639 512.432190,364.383575 510.729645,354.994568 
	C510.086151,351.445801 510.668732,347.681732 510.621277,344.016724 
	C510.356781,323.581329 513.585693,327.607147 493.213501,321.179779 
	C493.054657,321.129639 492.896210,321.077484 492.740112,321.019440 
	C488.920776,319.600220 487.422058,321.329987 487.397430,324.989929 
	C487.370483,328.988617 486.885010,333.062408 487.473877,336.971741 
	C488.976562,346.946991 485.612061,354.162506 476.989349,359.495880 
	C473.581635,361.603668 470.367859,364.730988 472.231842,369.890717 
	C472.752960,371.333130 472.482269,373.274841 470.126831,374.111847 
	C469.608643,370.340576 469.466644,366.469696 466.083832,363.862488 
	C462.463165,361.072021 458.907318,363.736572 454.063690,364.304474 
	C458.202881,360.343750 461.808258,359.883087 465.720917,361.407013 
	C467.946655,362.273926 469.813812,362.345612 471.698669,360.659760 
	C475.286469,357.450714 478.986298,354.367249 482.606415,351.193817 
	C484.395020,349.625946 484.655426,347.509094 484.639099,345.264526 
	C484.595459,339.266571 484.631287,333.268036 484.628387,327.269745 
	C484.624176,318.500610 483.848419,317.698853 475.059296,317.412201 
	C473.894348,317.374207 472.723480,317.473511 471.561096,317.408081 
	C467.673981,317.189301 466.210602,319.066345 466.314270,322.855865 
	C466.464569,328.349548 466.344238,333.851349 466.300446,339.349335 
	C466.285126,341.271179 466.022430,343.222229 463.503326,343.247559 
	C456.563904,343.317383 449.623322,343.271698 442.301788,343.271698 
	C443.874451,341.093201 445.686646,341.663208 447.253693,341.616608 
	C450.749634,341.512634 454.253967,341.488770 457.748840,341.608337 
	C461.079590,341.722321 462.704254,340.409210 462.631744,336.938843 
	C462.523895,331.775970 462.598297,326.609222 462.602631,321.444122 
	C462.604889,318.767029 461.356964,317.215271 458.611908,317.658203 
	C447.468475,319.456207 436.435059,321.659790 426.079132,326.444672 
	C416.530945,330.856323 407.520355,336.043060 399.839417,343.348602 
	C394.734589,348.203888 389.990570,353.342926 385.979279,358.761871 
	C386.784454,360.223755 387.552094,360.541077 388.410767,360.548492 
	C393.908295,360.596161 399.439301,361.000580 404.895142,360.535309 
	C411.256500,359.992798 415.295776,362.382385 419.140930,367.469818 
	C422.409027,371.793732 425.507355,377.665253 433.423920,375.407257 
	C437.319122,374.296295 441.629852,379.431122 441.570557,383.721802 
	C438.912781,380.426483 435.902344,377.826141 431.467926,378.624084 
	C427.139832,379.402832 425.144653,382.518402 423.968506,386.973022 
	C423.806702,387.086243 423.644897,387.199463 423.065674,386.790802 
	C422.724945,384.802795 422.731567,382.785126 423.711121,381.018921 
	C424.807617,379.041656 424.257996,377.593781 422.888245,376.084045 
	C420.100220,373.011017 417.306213,369.936951 414.665802,366.738556 
	C412.586334,364.219574 410.126221,363.207184 406.832306,363.304993 
	C400.173737,363.502747 393.500000,363.524353 386.842957,363.303284 
	C383.276276,363.184845 381.014526,364.829193 379.759766,367.742554 
	C377.147675,373.807434 374.172028,379.678619 371.777496,385.888428 
	C365.320312,402.633850 364.978699,419.719055 367.615967,436.910980 
	C369.715149,450.595062 374.884308,463.468567 382.799011,474.942902 
	C388.834595,483.692902 395.835022,491.668793 404.372070,498.185272 
	C413.246216,504.959076 422.441223,511.072296 433.349091,514.167542 
	C437.153473,515.247131 438.661102,513.897095 438.631714,510.105927 
	C438.576141,502.942108 438.497528,495.774536 438.676147,488.614716 
	C438.757812,485.341064 437.771484,482.752747 435.349731,480.659088 
	C427.044830,473.479248 419.781952,465.169403 411.121613,458.371948 
	C407.432861,455.476624 405.041687,452.086334 405.524353,446.901276 
	C405.985687,441.945862 405.652069,436.913696 405.616211,431.915649 
	C405.581360,427.053131 406.915741,421.666473 400.204071,418.892487 
	C405.801636,419.997467 410.669403,420.338257 415.463684,417.718475 
	C415.116058,418.935455 414.743347,419.850769 414.098267,420.124634 
	C409.560974,422.050903 409.177124,425.756317 409.323578,430.013031 
	C409.535400,436.170349 409.498596,442.343536 409.332489,448.503632 
	C409.243347,451.810699 410.527496,454.071259 412.944397,456.259125 
	C422.176544,464.616394 431.215363,473.186829 440.377167,481.622498 
	C441.483368,482.641022 441.678284,483.601746 441.635010,485.083069 
	C441.421082,492.406281 441.398560,499.736053 441.379517,507.063721 
	C441.351532,517.813965 441.375793,517.823120 451.919220,519.467102 
	C452.899872,519.619995 453.915314,519.534912 454.911163,519.607483 
	C458.919739,519.899414 460.713440,518.111877 460.649475,514.036682 
	C460.531830,506.541168 460.516907,499.040039 460.672363,491.545654 
	C460.777740,486.464569 460.762207,482.205383 455.276398,478.929077 
	C450.049774,475.807648 450.229553,468.765045 454.755066,465.959106 
	C454.630035,467.920074 454.424622,469.689331 454.421814,471.458954 
	C454.413422,476.724915 457.850616,479.763611 463.083160,479.167572 
	C464.234589,479.036407 465.373383,478.793854 466.993134,479.009888 
M482.796387,430.755066 
	C478.631317,429.074829 474.777130,429.363403 472.437775,433.554749 
	C470.495605,437.034393 470.798859,440.641296 474.064453,443.476440 
	C477.353210,446.331696 482.127350,446.300598 484.950623,443.474304 
	C487.890900,440.530853 487.211609,434.993164 482.796387,430.755066 
z"/>
<path fill="#000000" opacity="1.000000" stroke="none" 
	d="
M540.173950,372.779907 
	C545.387268,373.494659 546.835815,377.300262 547.288757,381.623688 
	C547.749573,386.022552 545.474976,389.395081 541.842896,391.352203 
	C537.689697,393.590210 533.648499,392.535217 529.284790,388.830231 
	C535.254883,388.705078 541.784424,392.446686 544.229858,384.699249 
	C545.620789,380.292664 544.072754,376.529785 539.846191,373.711914 
	C539.743774,373.310364 539.866577,373.158752 540.173950,372.779907 
z"/>
<path fill="#000000" opacity="1.000000" stroke="none" 
	d="
M424.211365,386.803406 
	C427.658234,395.986023 436.685944,395.621918 441.442871,388.878723 
	C442.046356,392.563080 438.499664,396.052124 433.826080,396.371735 
	C428.482239,396.737183 423.476837,392.709656 423.423615,387.633179 
	C423.644897,387.199463 423.806702,387.086243 424.211365,386.803406 
z"/>
<path fill="#000000" opacity="1.000000" stroke="none" 
	d="
M399.425537,411.324524 
	C399.396393,413.149811 399.396393,414.610840 399.396393,416.883026 
	C396.304993,410.762115 397.363464,407.032379 402.590820,403.444153 
	C406.049438,401.069977 409.386688,400.487030 413.540436,404.843933 
	C406.831818,404.074249 401.540314,404.452606 399.425537,411.324524 
z"/>
<path fill="#000000" opacity="1.000000" stroke="none" 
	d="
M525.613159,415.061218 
	C525.682068,410.815765 522.945374,408.661011 519.950317,406.325134 
	C524.377563,406.223053 527.364929,409.185120 528.243652,413.961548 
	C528.952271,417.813538 526.565674,422.068970 522.454346,423.727997 
	C523.280212,420.691406 526.102600,418.631165 525.613159,415.061218 
z"/>
<path fill="#000000" opacity="1.000000" stroke="none" 
	d="
M454.371155,370.281006 
	C453.570740,378.624084 459.794128,378.275635 466.263336,379.306396 
	C460.852539,381.065063 456.737305,380.961273 454.172607,377.761475 
	C451.678528,374.649902 450.383301,370.519135 453.062897,366.296906 
	C454.901672,367.280975 454.093628,368.753815 454.371155,370.281006 
z"/>
<path fill="#000000" opacity="1.000000" stroke="none" 
	d="
M466.755554,478.806274 
	C470.959381,472.978577 470.562073,467.669556 464.516205,462.582367 
	C468.544220,462.929840 470.022705,464.309723 471.494781,467.564178 
	C473.716705,472.476562 471.177155,475.802917 467.746490,479.213318 
	C467.310120,479.281128 467.151611,479.145508 466.755554,478.806274 
z"/>
<path fill="#000000" opacity="1.000000" stroke="none" 
	d="
M428.888214,333.682617 
	C433.364624,330.473480 437.366119,331.282745 440.866180,336.298157 
	C437.078796,334.125305 432.885956,334.688782 428.888214,333.682617 
z"/>
<path fill="#000000" opacity="1.000000" stroke="none" 
	d="
M528.762695,376.306458 
	C530.003357,375.563202 531.427063,375.375000 530.776306,376.867279 
	C529.420471,379.976440 529.539612,383.267822 529.044434,387.163513 
	C525.606323,383.264862 526.081299,379.945251 528.762695,376.306458 
z"/>
<path fill="#000000" opacity="1.000000" stroke="none" 
	d="
M425.418030,347.511841 
	C422.017670,344.123901 422.878143,340.668030 424.229034,337.209656 
	C424.725037,337.197754 425.221008,337.185822 425.716980,337.173920 
	C425.716980,340.603973 425.716980,344.034058 425.418030,347.511841 
z"/>
</svg>