<?xml version="1.0" encoding="UTF-8"?>
<!DOCTYPE svg PUBLIC "-//W3C//DTD SVG 1.1//EN" "http://www.w3.org/Graphics/SVG/1.1/DTD/svg11.dtd">
<svg xmlns="http://www.w3.org/2000/svg" version="1.1" width="1088px" height="1186px" style="shape-rendering:geometricPrecision; text-rendering:geometricPrecision; image-rendering:optimizeQuality; fill-rule:evenodd; clip-rule:evenodd" xmlns:xlink="http://www.w3.org/1999/xlink">
<g><path style="opacity:1" fill="#faf5f8" d="M 406.5,-0.5 C 411.5,-0.5 416.5,-0.5 421.5,-0.5C 462.032,1.95416 497.199,16.9542 527,44.5C 527.171,92.8744 527.671,141.208 528.5,189.5C 527.677,211.457 527.177,233.457 527,255.5C 521.285,264.47 513.785,266.304 504.5,261C 502.959,259.421 501.792,257.587 501,255.5C 500.667,232.5 500.333,209.5 500,186.5C 492.391,149.052 469.558,129.386 431.5,127.5C 424.962,146.506 411.628,154.672 391.5,152C 371.214,145.613 362.38,131.78 365,110.5C 371.932,89.2786 386.432,80.7786 408.5,85C 416.476,87.4833 422.81,92.1499 427.5,99C 455.549,98.3439 479.716,107.511 500,126.5C 500.667,103.833 500.667,81.1667 500,58.5C 452.064,22.6946 401.231,18.1946 347.5,45C 322.679,59.4871 303.679,79.4871 290.5,105C 227.006,102.827 177.84,127.994 143,180.5C 117.099,225.257 113.766,271.59 133,319.5C 157.576,368.39 196.743,398.39 250.5,409.5C 260.325,398.122 272.659,393.955 287.5,397C 303.952,402.05 312.619,413.217 313.5,430.5C 312.135,447.422 303.468,458.588 287.5,464C 265.265,467.391 250.932,458.391 244.5,437C 225.717,433.128 207.717,426.961 190.5,418.5C 190.379,448.374 180.879,474.707 162,497.5C 162.713,502.78 163.546,508.113 164.5,513.5C 162.5,534.833 150.833,546.5 129.5,548.5C 102.336,544.164 91.5025,528.497 97,501.5C 101.75,490.415 109.917,483.249 121.5,480C 128.119,479.664 134.619,479.497 141,479.5C 160.354,455.067 166.02,427.734 158,397.5C 139.974,381.49 124.974,363.157 113,342.5C 62.5578,385.375 34.2245,440.042 28,506.5C 24.4255,567.241 41.0922,621.574 78,669.5C 93.6314,644.918 115.798,629.585 144.5,623.5C 156.562,603.814 173.229,598.647 194.5,608C 208.856,618.398 213.69,632.231 209,649.5C 198.996,669.842 183.162,676.342 161.5,669C 154,665.5 148.5,660 145,652.5C 124.002,658.329 108.669,670.996 99,690.5C 70.0284,769.09 78.3618,843.423 124,913.5C 145.397,944.404 172.564,968.737 205.5,986.5C 213.747,905.613 253.247,845.613 324,806.5C 348.32,774.905 352.986,740.571 338,703.5C 333.151,693.128 326.818,683.795 319,675.5C 301.609,684.345 286.276,681.678 273,667.5C 266.887,658.389 264.887,648.389 267,637.5C 272.05,621.048 283.217,612.381 300.5,611.5C 324.296,614.134 335.796,627.468 335,651.5C 370.175,687.187 381.842,729.521 370,778.5C 368.887,782.508 367.387,786.341 365.5,790C 380.674,787.262 396.008,785.262 411.5,784C 425.295,766.699 441.962,763.366 461.5,774C 477.562,789.01 479.728,805.843 468,824.5C 453.62,838.303 437.787,840.137 420.5,830C 414.363,825.538 410.363,819.704 408.5,812.5C 343.791,818.442 294.291,848.775 260,903.5C 231.362,954.902 227.028,1008.24 247,1063.5C 269.412,1111.24 306.245,1141.41 357.5,1154C 412.658,1164.05 460.158,1149.55 500,1110.5C 500.667,1070.5 500.667,1030.5 500,990.5C 469.942,1012.53 437.442,1016.86 402.5,1003.5C 388.451,1014.43 373.784,1015.26 358.5,1006C 343.201,991.833 340.701,975.666 351,957.5C 366.574,941.084 383.741,939.25 402.5,952C 409.482,959.297 413.482,967.963 414.5,978C 449.488,989.67 477.655,980.504 499,950.5C 500.328,869.248 500.994,787.915 501,706.5C 504.198,699.317 509.698,696.484 517.5,698C 522.206,699.105 525.373,701.938 527,706.5C 527.667,844.167 527.667,981.833 527,1119.5C 526,1121.83 525,1124.17 524,1126.5C 490.625,1161.6 449.792,1181.27 401.5,1185.5C 393.5,1185.5 385.5,1185.5 377.5,1185.5C 295.604,1176.11 241.104,1132.44 214,1054.5C 210.913,1042.98 208.58,1031.31 207,1019.5C 120.735,976.032 70.4017,906.365 56,810.5C 51.481,772.527 54.981,735.36 66.5,699C 25.9233,652.456 3.58998,598.289 -0.5,536.5C -0.5,527.833 -0.5,519.167 -0.5,510.5C 5.54248,430.911 39.2091,365.745 100.5,315C 81.3164,240.385 99.3164,176.385 154.5,123C 188.897,93.5269 228.897,78.1935 274.5,77C 305.525,29.3124 349.525,3.47905 406.5,-0.5 Z M 394.5,107.5 C 405.99,106.156 410.824,111.156 409,122.5C 402.738,131.234 396.072,131.567 389,123.5C 386.358,116.591 388.191,111.258 394.5,107.5 Z M 275.5,419.5 C 285.828,419.326 290.328,424.326 289,434.5C 284.672,441.696 278.838,443.196 271.5,439C 265.674,430.989 267.007,424.489 275.5,419.5 Z M 126.5,502.5 C 136.828,502.326 141.328,507.326 140,517.5C 135.733,524.876 129.899,526.376 122.5,522C 116.373,513.924 117.706,507.424 126.5,502.5 Z M 173.5,626.5 C 183.319,626.15 187.819,630.817 187,640.5C 184.386,647.157 179.553,649.657 172.5,648C 165.124,643.733 163.624,637.899 168,630.5C 169.812,629.023 171.645,627.69 173.5,626.5 Z M 296.5,635.5 C 309.621,635.438 313.787,641.438 309,653.5C 301.122,659.428 294.789,658.095 290,649.5C 288.669,643.163 290.836,638.497 296.5,635.5 Z M 437.5,791.5 C 449.146,790.971 453.646,796.304 451,807.5C 443.964,815.664 437.297,815.331 431,806.5C 428.915,799.48 431.081,794.48 437.5,791.5 Z M 374.5,967.5 C 387.564,966.709 392.064,972.376 388,984.5C 380.4,991.522 374.066,990.522 369,981.5C 367.814,975.553 369.647,970.887 374.5,967.5 Z"/></g>
<g><path style="opacity:1" fill="#faf5f8" d="M 664.5,-0.5 C 669.833,-0.5 675.167,-0.5 680.5,-0.5C 736.925,4.04004 780.925,29.7067 812.5,76.5C 896.749,82.2934 954.249,124.293 985,202.5C 994.253,231.28 996.586,260.614 992,290.5C 989.995,299.171 988.328,307.838 987,316.5C 1047.91,366.318 1081.41,430.652 1087.5,509.5C 1087.5,518.833 1087.5,528.167 1087.5,537.5C 1083.2,598.917 1060.87,652.75 1020.5,699C 1046.03,788.02 1031.19,869.52 976,943.5C 949.432,975.773 917.432,1001.11 880,1019.5C 870.424,1090.05 833.591,1140.55 769.5,1171C 750.049,1178.7 730.049,1183.53 709.5,1185.5C 701.5,1185.5 693.5,1185.5 685.5,1185.5C 637.208,1181.27 596.375,1161.6 563,1126.5C 562,1124.17 561,1121.83 560,1119.5C 559.333,981.833 559.333,844.167 560,706.5C 564.983,697.508 572.15,695.341 581.5,700C 583.617,701.731 585.117,703.898 586,706.5C 586.333,787.167 586.667,867.833 587,948.5C 607.873,980.015 636.373,989.848 672.5,978C 675.809,954.179 689.475,942.845 713.5,944C 734.139,949.106 743.639,962.273 742,983.5C 735.529,1005.99 720.695,1015.16 697.5,1011C 692.468,1009.4 687.968,1006.9 684,1003.5C 649.241,1016.82 616.908,1012.49 587,990.5C 586.333,1030.5 586.333,1070.5 587,1110.5C 629.473,1151.66 679.639,1165.5 737.5,1152C 802.533,1131.63 840.367,1087.8 851,1020.5C 857.266,947.219 831.099,888.719 772.5,845C 744.181,825.394 712.848,814.894 678.5,813.5C 668.185,834.777 651.851,841.277 629.5,833C 610.399,820.007 606.233,803.173 617,782.5C 631.765,766.067 648.599,763.567 667.5,775C 670.538,777.703 673.205,780.703 675.5,784C 690.684,785.002 705.684,787.169 720.5,790.5C 703.128,737.667 713.628,691.334 752,651.5C 751.136,627.584 762.636,614.251 786.5,611.5C 803.783,612.381 814.95,621.048 820,637.5C 823.379,658.923 814.879,673.09 794.5,680C 784.908,681.441 775.908,680.108 767.5,676C 740.299,706.357 733.465,740.857 747,779.5C 750.976,788.788 755.976,797.455 762,805.5C 833.956,844.684 873.289,905.351 880,987.5C 952.818,945.928 994.152,883.261 1004,799.5C 1007.15,761.903 1001.82,725.57 988,690.5C 978.331,670.996 962.998,658.329 942,652.5C 931.063,670.481 915.563,675.981 895.5,669C 879.52,660.085 873.353,646.585 877,628.5C 885.005,607.913 899.838,600.079 921.5,605C 931.021,608.52 938.021,614.854 942.5,624C 971.312,629.641 993.479,644.808 1009,669.5C 1061.99,597.247 1072.99,518.914 1042,434.5C 1026.95,398.129 1004.28,367.462 974,342.5C 962.331,363.178 947.331,381.178 929,396.5C 920.674,427.849 926.841,455.849 947.5,480.5C 973.534,476.504 988.201,487.504 991.5,513.5C 989.69,534.311 978.357,545.978 957.5,548.5C 936.167,546.5 924.5,534.833 922.5,513.5C 923.019,508.887 924.019,504.387 925.5,500C 906.269,475.977 896.769,448.477 897,417.5C 879.872,426.766 861.705,433.266 842.5,437C 835.95,458.192 821.617,467.192 799.5,464C 779.029,456.567 770.862,442.067 775,420.5C 782.306,401.424 796.14,393.591 816.5,397C 824.604,398.884 831.27,403.051 836.5,409.5C 899.588,395.908 941.422,358.575 962,297.5C 974.337,237.183 958.17,186.016 913.5,144C 879.731,115.855 840.731,102.855 796.5,105C 767.754,52.7826 723.42,27.1159 663.5,28C 634.757,30.297 609.257,40.4637 587,58.5C 586.333,81.1667 586.333,103.833 587,126.5C 607.301,107.506 631.467,98.339 659.5,99C 669.329,85.8326 682.329,81.1659 698.5,85C 716.745,92.3087 724.578,105.809 722,125.5C 714.169,148.834 698.336,157.001 674.5,150C 664.664,145.34 658.33,137.84 655.5,127.5C 627.243,128.042 606.41,140.708 593,165.5C 589.78,172.496 587.78,179.829 587,187.5C 586.667,210.167 586.333,232.833 586,255.5C 580.352,264.713 572.852,266.547 563.5,261C 562.333,259.167 561.167,257.333 560,255.5C 559.813,233.143 559.313,210.809 558.5,188.5C 559.324,140.522 559.824,92.5222 560,44.5C 589.508,17.1631 624.341,2.16307 664.5,-0.5 Z M 684.5,107.5 C 696.127,106.954 700.627,112.287 698,123.5C 690.928,131.567 684.262,131.234 678,122.5C 676.366,115.775 678.532,110.775 684.5,107.5 Z M 804.5,419.5 C 816.184,419.005 820.684,424.338 818,435.5C 810.88,443.767 804.213,443.434 798,434.5C 796.366,427.775 798.532,422.775 804.5,419.5 Z M 954.5,502.5 C 966.696,503.233 970.529,509.233 966,520.5C 958.498,526.572 952.165,525.572 947,517.5C 945.289,510.254 947.789,505.254 954.5,502.5 Z M 907.5,626.5 C 918.984,626.805 923.151,632.472 920,643.5C 915.782,648.63 910.616,649.796 904.5,647C 897.245,638.949 898.245,632.115 907.5,626.5 Z M 782.5,635.5 C 792.808,634.643 797.641,639.309 797,649.5C 792.211,658.095 785.878,659.428 778,653.5C 773.667,645.957 775.167,639.957 782.5,635.5 Z M 641.5,791.5 C 653.7,791.191 658.2,796.857 655,808.5C 646.487,816.082 639.821,814.749 635,804.5C 634.509,798.816 636.675,794.482 641.5,791.5 Z M 703.5,967.5 C 714.99,966.156 719.824,971.156 718,982.5C 710.106,992.284 703.106,991.617 697,980.5C 696.509,974.816 698.675,970.482 703.5,967.5 Z"/></g>
<g><path style="opacity:1" fill="#faf5f8" d="M 526.5,289.5 C 538.576,289.062 550.576,289.562 562.5,291C 564.041,292.579 565.208,294.413 566,296.5C 567.845,303.545 569.845,310.545 572,317.5C 573.061,320.562 574.894,323.062 577.5,325C 584.444,327.153 591.444,329.153 598.5,331C 606.167,334.833 613.833,338.667 621.5,342.5C 630.266,338.95 638.266,334.116 645.5,328C 649.197,326.101 652.864,326.101 656.5,328C 664.314,335.07 672.314,341.904 680.5,348.5C 681.447,350.059 682.113,351.726 682.5,353.5C 679.839,362.491 676.339,371.158 672,379.5C 671.333,382.5 671.333,385.5 672,388.5C 681.171,399.03 687.838,411.03 692,424.5C 694.807,429.158 698.974,431.658 704.5,432C 711.167,432.667 717.833,433.333 724.5,434C 726.286,434.785 727.786,435.951 729,437.5C 731.704,448.72 733.87,460.053 735.5,471.5C 735.352,474.63 734.018,477.13 731.5,479C 722.918,482.964 714.584,487.297 706.5,492C 705.54,493.419 704.707,494.919 704,496.5C 703.483,510.271 700.816,523.604 696,536.5C 695.035,540.782 695.702,544.782 698,548.5C 703.333,553.833 708.667,559.167 714,564.5C 716.121,568.997 715.788,573.33 713,577.5C 707.833,586 702.667,594.5 697.5,603C 695.577,603.808 693.577,604.308 691.5,604.5C 684.173,602.668 676.839,600.835 669.5,599C 665.705,598.163 662.039,598.496 658.5,600C 648.732,611.452 637.232,620.618 624,627.5C 623.333,628.833 622.667,630.167 622,631.5C 621.36,639.68 621.527,647.847 622.5,656C 623.1,660.131 621.766,663.464 618.5,666C 607.805,670.232 596.971,674.065 586,677.5C 582.225,676.735 579.225,674.735 577,671.5C 572.29,664.579 567.456,657.746 562.5,651C 554.512,650.928 546.512,651.095 538.5,651.5C 528.463,651.16 518.463,650.66 508.5,650C 502.966,656.902 497.799,664.068 493,671.5C 489.662,674.318 485.829,675.151 481.5,674C 471.723,670.611 462.056,666.944 452.5,663C 451.299,662.097 450.465,660.931 450,659.5C 449.595,651.83 449.762,644.163 450.5,636.5C 450.589,632.715 450.089,629.048 449,625.5C 444.397,620.896 439.23,617.062 433.5,614C 426.801,607.636 420.468,600.969 414.5,594C 412.419,593.131 410.253,592.631 408,592.5C 399.449,594.263 390.949,596.263 382.5,598.5C 380.803,598.101 379.137,597.601 377.5,597C 371.541,587.584 365.708,578.084 360,568.5C 359.183,565.036 359.517,561.702 361,558.5C 366.634,551.864 372.634,545.531 379,539.5C 379.985,537.634 380.485,535.634 380.5,533.5C 379.312,527.101 377.812,520.768 376,514.5C 375.311,504.75 374.311,495.084 373,485.5C 365.69,480.427 357.857,476.261 349.5,473C 344.725,469.345 343.225,464.512 345,458.5C 346.466,448.699 348.466,439.032 351,429.5C 352.648,428.283 354.481,427.45 356.5,427C 364.51,426.073 372.51,425.073 380.5,424C 384.066,423.3 386.9,421.467 389,418.5C 393.292,406.577 399.625,395.91 408,386.5C 409.897,383.873 411.397,381.039 412.5,378C 409.457,369.91 406.124,361.91 402.5,354C 400.46,348.069 402.127,343.402 407.5,340C 414.5,334.333 421.5,328.667 428.5,323C 431.5,322.333 434.5,322.333 437.5,323C 445.41,329.454 454.077,334.621 463.5,338.5C 472.049,334.726 480.715,331.226 489.5,328C 495.508,326.666 501.508,325.332 507.5,324C 510.734,322.056 512.9,319.222 514,315.5C 516.155,308.545 518.155,301.545 520,294.5C 521.805,292.174 523.972,290.508 526.5,289.5 Z M 535.5,346.5 C 593.331,347.976 635.831,373.976 663,424.5C 686.307,479.983 678.64,530.65 640,576.5C 594.662,620.434 542.495,630.934 483.5,608C 432.802,582.137 406.135,540.637 403.5,483.5C 404.891,436.211 424.557,398.711 462.5,371C 484.658,356.114 508.991,347.947 535.5,346.5 Z"/></g>
<g><path style="opacity:1" fill="#faf5f8" d="M 528.5,366.5 C 530.5,366.5 532.5,366.5 534.5,366.5C 534.5,375.5 534.5,384.5 534.5,393.5C 527.167,393.5 519.833,393.5 512.5,393.5C 512.335,388.16 509.668,384.66 504.5,383C 493,381.833 487.833,387 489,398.5C 493.146,406.371 499.312,408.537 507.5,405C 509.787,402.93 511.453,400.43 512.5,397.5C 521.141,396.502 529.808,396.169 538.5,396.5C 538.5,386.5 538.5,376.5 538.5,366.5C 545.52,366.502 552.52,366.835 559.5,367.5C 559.667,379.505 559.5,391.505 559,403.5C 553.314,408.687 547.481,413.687 541.5,418.5C 530.895,412.803 524.228,415.803 521.5,427.5C 522.647,436.923 527.981,440.756 537.5,439C 545.042,434.99 547.542,428.823 545,420.5C 551,415.167 557,409.833 563,404.5C 563.333,392.5 563.667,380.5 564,368.5C 572.611,370.704 580.945,373.704 589,377.5C 589.667,392.5 589.667,407.5 589,422.5C 576.667,434.167 564.333,445.833 552,457.5C 551.5,469.495 551.333,481.495 551.5,493.5C 545.193,494.646 541.86,498.479 541.5,505C 544.456,517.321 551.456,520.321 562.5,514C 567.709,507.134 567.042,500.801 560.5,495C 558.975,493.991 557.308,493.491 555.5,493.5C 555.333,481.495 555.5,469.495 556,457.5C 568.033,445.798 580.367,434.465 593,423.5C 593.333,408.833 593.667,394.167 594,379.5C 602.833,384.001 610.833,389.668 618,396.5C 618.832,407.182 618.666,417.849 617.5,428.5C 607.841,433.425 606.007,440.425 612,449.5C 619.964,455.011 626.631,453.678 632,445.5C 633.929,437.357 631.095,431.691 623.5,428.5C 622.167,419.5 622.167,410.5 623.5,401.5C 655.369,436.999 664.202,477.666 650,523.5C 640.803,547.075 625.97,566.242 605.5,581C 601.381,583.726 597.048,585.893 592.5,587.5C 592.334,580.492 592.5,573.492 593,566.5C 597.881,561.319 603.047,556.485 608.5,552C 611.811,552.383 615.145,553.217 618.5,554.5C 628.127,552.712 631.961,547.045 630,537.5C 622.333,526.833 614.667,526.833 607,537.5C 606.674,541.53 606.674,545.53 607,549.5C 601,554.833 595,560.167 589,565.5C 588.832,573.853 588.332,582.187 587.5,590.5C 579.812,594.089 571.812,596.756 563.5,598.5C 562.334,586.514 562.167,574.514 563,562.5C 575.333,550.833 587.667,539.167 600,527.5C 600.167,515.486 600.667,503.486 601.5,491.5C 608.789,488.591 611.622,483.258 610,475.5C 607.033,468.547 601.867,466.047 594.5,468C 586.881,471.747 584.715,477.58 588,485.5C 590.123,488.299 592.79,490.299 596,491.5C 596.833,503.514 596.666,515.514 595.5,527.5C 583.183,538.65 571.016,549.983 559,561.5C 558.5,574.162 558.333,586.829 558.5,599.5C 550.858,600.263 543.191,600.597 535.5,600.5C 535.5,585.5 535.5,570.5 535.5,555.5C 541.807,554.354 545.14,550.521 545.5,544C 542.953,532.097 536.286,528.931 525.5,534.5C 519.089,541.24 519.422,547.74 526.5,554C 528.025,555.009 529.692,555.509 531.5,555.5C 531.5,570.5 531.5,585.5 531.5,600.5C 524.457,599.78 517.457,598.78 510.5,597.5C 510.667,584.163 510.5,570.829 510,557.5C 497.967,545.798 485.633,534.465 473,523.5C 472.5,511.505 472.333,499.505 472.5,487.5C 481.014,485.486 484.181,480.152 482,471.5C 476.248,462.107 469.248,461.107 461,468.5C 456.697,477.09 458.863,483.424 467.5,487.5C 468.333,499.486 468.833,511.486 469,523.5C 481.333,535.167 493.667,546.833 506,558.5C 506.5,570.829 506.667,583.162 506.5,595.5C 459.957,580.438 432.457,548.772 424,500.5C 420.002,471.488 425.835,444.655 441.5,420C 453.181,419.167 464.848,419.334 476.5,420.5C 481,425.5 485.5,430.5 490,435.5C 489.529,438.823 488.695,442.157 487.5,445.5C 489.108,454.618 494.442,458.451 503.5,457C 513.993,451.016 514.993,443.683 506.5,435C 504.541,434.069 502.541,433.236 500.5,432.5C 497.898,433.654 495.232,434.154 492.5,434C 487.167,428 481.833,422 476.5,416C 466.151,415.832 455.817,415.332 445.5,414.5C 466.418,386.873 494.084,370.873 528.5,366.5 Z"/></g>
<g><path style="opacity:1" fill="#faf5f8" d="M 496.5,385.5 C 507.299,384.459 511.466,389.125 509,399.5C 504.016,404.459 498.682,404.793 493,400.5C 490.206,394.408 491.373,389.408 496.5,385.5 Z"/></g>
<g><path style="opacity:1" fill="#faf5f8" d="M 530.5,418.5 C 539.871,418.034 543.705,422.367 542,431.5C 539.103,436.155 534.937,437.655 529.5,436C 524.845,433.103 523.345,428.937 525,423.5C 526.352,421.251 528.185,419.584 530.5,418.5 Z"/></g>
<g><path style="opacity:1" fill="#faf5f8" d="M 617.5,431.5 C 627.212,430.709 631.045,435.043 629,444.5C 626.103,449.155 621.937,450.655 616.5,449C 611.931,446.459 610.431,442.625 612,437.5C 613.36,434.977 615.193,432.977 617.5,431.5 Z"/></g>
<g><path style="opacity:1" fill="#faf5f8" d="M 496.5,436.5 C 505.905,435.735 509.905,439.901 508.5,449C 505.948,453.939 501.948,455.605 496.5,454C 488.649,448.19 488.649,442.356 496.5,436.5 Z"/></g>
<g><path style="opacity:1" fill="#faf5f8" d="M 467.5,466.5 C 477.741,466 481.574,470.667 479,480.5C 475.692,484.327 471.526,485.494 466.5,484C 461.931,481.459 460.431,477.625 462,472.5C 463.36,469.977 465.193,467.977 467.5,466.5 Z"/></g>
<g><path style="opacity:1" fill="#faf5f8" d="M 596.5,469.5 C 605.473,469.98 608.973,474.647 607,483.5C 604.459,488.069 600.625,489.569 595.5,488C 589.908,485.598 588.075,481.431 590,475.5C 591.436,472.558 593.603,470.558 596.5,469.5 Z"/></g>
<g><path style="opacity:1" fill="#faf5f8" d="M 551.5,495.5 C 560.528,496.027 564.028,500.694 562,509.5C 559.459,514.069 555.625,515.569 550.5,514C 544.908,511.598 543.075,507.431 545,501.5C 546.436,498.558 548.603,496.558 551.5,495.5 Z"/></g>
<g><path style="opacity:1" fill="#faf5f8" d="M 615.5,532.5 C 624.871,532.034 628.705,536.367 627,545.5C 626.215,547.286 625.049,548.786 623.5,550C 613.362,552.52 608.862,548.687 610,538.5C 611.36,535.977 613.193,533.977 615.5,532.5 Z"/></g>
<g><path style="opacity:1" fill="#faf5f8" d="M 529.5,534.5 C 538.987,533.819 543.154,538.153 542,547.5C 536.827,555.036 531.16,555.369 525,548.5C 523.309,542.61 524.809,537.944 529.5,534.5 Z"/></g>
</svg>
