<?xml version="1.0" encoding="UTF-8"?>
<!DOCTYPE svg PUBLIC "-//W3C//DTD SVG 1.1//EN" "http://www.w3.org/Graphics/SVG/1.1/DTD/svg11.dtd">
<svg xmlns="http://www.w3.org/2000/svg" version="1.1" width="1149px" height="1252px" style="shape-rendering:geometricPrecision; text-rendering:geometricPrecision; image-rendering:optimizeQuality; fill-rule:evenodd; clip-rule:evenodd" xmlns:xlink="http://www.w3.org/1999/xlink">
<g><path style="opacity:1" fill="#faf5f8" d="M 422.5,-0.5 C 432.167,-0.5 441.833,-0.5 451.5,-0.5C 491.911,3.46743 527.078,19.1341 557,46.5C 557.667,120.5 557.667,194.5 557,268.5C 551.991,278.17 544.491,280.67 534.5,276C 531.894,274.062 530.061,271.562 529,268.5C 528.667,243.833 528.333,219.167 528,194.5C 522.172,164.003 504.338,144.503 474.5,136C 468.528,134.911 462.528,134.077 456.5,133.5C 449.541,153.992 435.208,162.825 413.5,160C 391.182,152.873 382.015,137.707 386,114.5C 393.857,93.9842 408.691,85.4842 430.5,89C 439.444,91.3031 446.444,96.3031 451.5,104C 480.884,103.457 506.384,112.957 528,132.5C 528.667,108.833 528.667,85.1667 528,61.5C 487.374,29.6428 442.207,21.1428 392.5,36C 354.509,49.663 326.176,74.3297 307.5,110C 241.743,108.128 190.243,133.961 153,187.5C 124.88,233.916 120.213,282.583 139,333.5C 163.965,387.078 205.465,419.744 263.5,431.5C 267.481,430.04 270.814,427.54 273.5,424C 291.004,414.224 307.171,416.057 322,429.5C 333.43,444.757 334.097,460.424 324,476.5C 309.734,491.806 293.234,494.639 274.5,485C 266.2,479.198 260.867,471.365 258.5,461.5C 238.661,457.22 219.661,450.554 201.5,441.5C 201.043,473.88 190.71,502.547 170.5,527.5C 177.007,546.144 172.34,561.31 156.5,573C 138.182,582.269 122.015,579.436 108,564.5C 96.5161,545.591 98.6828,528.425 114.5,513C 124.812,505.736 135.979,503.903 148,507.5C 169.416,481.089 175.749,451.422 167,418.5C 147.647,402.324 131.814,383.324 119.5,361.5C 66.8556,405.774 37.0223,462.44 30,531.5C 25.5333,596.75 43.2,655.083 83,706.5C 99.0775,680.442 122.244,664.609 152.5,659C 162.913,640.082 178.579,633.416 199.5,639C 217.915,647.659 225.415,662.159 222,682.5C 213.855,704.159 198.355,712.659 175.5,708C 166.277,705.442 159.444,699.942 155,691.5C 154.196,690.196 153.029,689.529 151.5,689.5C 130.066,695.435 114.566,708.435 105,728.5C 71.1507,822.738 85.484,908.738 148,986.5C 168.231,1009.25 191.564,1027.92 218,1042.5C 226.182,955.735 268.182,891.402 344,849.5C 373.24,808.007 373.907,766.007 346,723.5C 343.353,719.686 340.187,716.353 336.5,713.5C 321.434,720.969 307.1,719.803 293.5,710C 282.436,698.915 278.936,685.748 283,670.5C 292.459,649.688 308.293,642.188 330.5,648C 347.701,655.883 355.534,669.383 354,688.5C 385.602,719.078 399.269,756.412 395,800.5C 393.409,812.522 390.742,824.188 387,835.5C 402.496,831.112 418.329,828.612 434.5,828C 449.068,809.753 466.734,806.086 487.5,817C 504.056,831.868 506.889,849.035 496,868.5C 483.543,882.992 468.377,886.825 450.5,880C 441.153,875.487 434.82,868.32 431.5,858.5C 364.702,863.643 313.202,894.31 277,950.5C 246.306,1002.69 239.973,1057.69 258,1115.5C 278.231,1166.73 314.731,1200.23 367.5,1216C 428.91,1231.11 482.41,1216.94 528,1173.5C 528.667,1131.17 528.667,1088.83 528,1046.5C 496.415,1069.43 462.415,1073.76 426,1059.5C 406.9,1073.63 388.9,1072.3 372,1055.5C 361.733,1039.58 362.067,1023.91 373,1008.5C 386.719,995.459 402.219,992.959 419.5,1001C 430.709,1008.75 437.042,1019.41 438.5,1033C 475.904,1044.75 505.738,1034.59 528,1002.5C 528.333,917.167 528.667,831.833 529,746.5C 534.073,736.809 541.573,734.309 551.5,739C 553,740.5 554.5,742 556,743.5C 557.662,889.444 557.995,1035.44 557,1181.5C 554.123,1189.39 549.289,1195.89 542.5,1201C 509.707,1230.4 471.374,1247.23 427.5,1251.5C 416.167,1251.5 404.833,1251.5 393.5,1251.5C 321.135,1241.95 268.635,1204.62 236,1139.5C 227.049,1119.03 221.216,1097.7 218.5,1075.5C 129.211,1031 76.3773,959.334 60,860.5C 54.4846,818.85 57.9846,778.016 70.5,738C 26.8421,688.496 3.17539,630.662 -0.5,564.5C -0.5,556.167 -0.5,547.833 -0.5,539.5C 5.6955,455.436 41.1955,386.769 106,333.5C 86.9357,260.765 102.269,196.431 152,140.5C 190.163,102.593 236.33,82.593 290.5,80.5C 321.835,33.1524 365.835,6.15245 422.5,-0.5 Z M 419.5,112.5 C 427.698,112.366 432.031,116.366 432.5,124.5C 430.561,135.262 424.561,138.429 414.5,134C 406.811,124.608 408.478,117.442 419.5,112.5 Z M 291.5,442.5 C 304.459,443.265 308.626,449.599 304,461.5C 296.587,467.322 289.92,466.655 284,459.5C 281.587,451.66 284.087,445.994 291.5,442.5 Z M 133.5,530.5 C 144.865,530.028 149.699,535.362 148,546.5C 143.283,553.796 137.116,555.296 129.5,551C 123.292,542.605 124.625,535.772 133.5,530.5 Z M 183.5,661.5 C 196.423,662.236 200.589,668.569 196,680.5C 190.51,686.049 184.677,686.549 178.5,682C 172.671,673.323 174.338,666.49 183.5,661.5 Z M 314.5,670.5 C 325.992,670.81 330.492,676.477 328,687.5C 323.803,693.471 318.303,694.971 311.5,692C 303.252,683.569 304.252,676.402 314.5,670.5 Z M 462.5,835.5 C 471.321,834.489 476.655,838.322 478.5,847C 475.518,858.157 468.851,861.157 458.5,856C 452.292,847.605 453.625,840.772 462.5,835.5 Z M 396.5,1021.5 C 409.129,1020.62 413.963,1026.29 411,1038.5C 403.587,1046.68 396.587,1046.35 390,1037.5C 387.947,1030.59 390.114,1025.25 396.5,1021.5 Z"/></g>
<g><path style="opacity:1" fill="#faf5f8" d="M 696.5,-0.5 C 706.167,-0.5 715.833,-0.5 725.5,-0.5C 782.412,6.26445 826.745,33.4311 858.5,81C 938.903,85.092 997.07,122.925 1033,194.5C 1052.95,239.65 1055.78,285.817 1041.5,333C 1104.48,383.785 1140.15,449.619 1148.5,530.5C 1148.5,544.833 1148.5,559.167 1148.5,573.5C 1142.65,636.077 1119.32,691.077 1078.5,738.5C 1105.02,833.039 1088.86,919.372 1030,997.5C 1002.19,1031.15 968.694,1057.48 929.5,1076.5C 921.839,1138.69 892.172,1187.19 840.5,1222C 813.906,1238.14 785.239,1247.98 754.5,1251.5C 743.167,1251.5 731.833,1251.5 720.5,1251.5C 670.903,1246.45 629.07,1225.78 595,1189.5C 593.472,1186.58 592.139,1183.58 591,1180.5C 590.333,1036.5 590.333,892.5 591,748.5C 593.563,738.965 599.729,735.132 609.5,737C 615.864,738.702 619.364,742.868 620,749.5C 620.333,833.833 620.667,918.167 621,1002.5C 643.164,1035.17 672.998,1045.17 710.5,1032.5C 714.58,1006.8 729.58,994.963 755.5,997C 777.812,1004.11 786.979,1019.28 783,1042.5C 777.19,1058.97 765.523,1067.97 748,1069.5C 738.43,1069.09 730.097,1065.76 723,1059.5C 686.54,1073.87 652.54,1069.54 621,1046.5C 620.333,1088.83 620.333,1131.17 621,1173.5C 655.694,1207.74 697.528,1223.9 746.5,1222C 810.763,1215.81 857.263,1183.97 886,1126.5C 912.548,1054.33 902.214,987.992 855,927.5C 818.906,885.369 773.073,862.202 717.5,858C 707.085,880.37 690.085,887.703 666.5,880C 646.803,867.908 641.303,851.074 650,829.5C 661.049,812.926 676.216,807.426 695.5,813C 703.01,816.176 709.01,821.176 713.5,828C 729.038,828.72 744.372,830.886 759.5,834.5C 760.167,834.167 760.833,833.833 761.5,833.5C 745.249,786.348 751.749,742.681 781,702.5C 784.966,697.533 789.299,692.866 794,688.5C 793.51,662.998 805.843,648.664 831,645.5C 855.453,648.284 867.453,661.951 867,686.5C 860.931,711.629 845.098,721.796 819.5,717C 816.792,715.931 814.125,714.764 811.5,713.5C 784.914,742.113 776.414,775.446 786,813.5C 790.059,827.621 796.726,840.288 806,851.5C 881.064,892.884 922.564,956.551 930.5,1042.5C 1007.31,997.951 1050.81,931.284 1061,842.5C 1064.25,800.341 1057.25,760.007 1040,721.5C 1029.91,704.921 1015.41,694.254 996.5,689.5C 992.404,694.099 988.07,698.599 983.5,703C 961.182,714.873 943.015,710.373 929,689.5C 921.35,669.121 926.516,652.954 944.5,641C 966.637,632.211 983.637,638.045 995.5,658.5C 1025.34,664.534 1048.5,680.201 1065,705.5C 1065.67,706.833 1066.33,706.833 1067,705.5C 1122.83,628.572 1133.83,545.572 1100,456.5C 1083.64,419.116 1059.97,387.116 1029,360.5C 1017.05,383.364 1001.05,403.03 981,419.5C 972.862,451.484 979.029,480.317 999.5,506C 1016.85,502.89 1031.02,508.057 1042,521.5C 1050.11,537.159 1049.11,552.159 1039,566.5C 1020.05,582.739 1001.38,582.406 983,565.5C 974.879,553.431 973.379,540.598 978.5,527C 957.409,502.062 947.242,473.229 948,440.5C 929.798,450.846 910.298,457.512 889.5,460.5C 886.876,476.625 877.543,486.459 861.5,490C 843.416,492.706 829.916,486.206 821,470.5C 814.186,452.897 817.686,437.73 831.5,425C 850.101,413.622 867.101,415.622 882.5,431C 941.402,420.764 983.568,388.598 1009,334.5C 1031.26,272.378 1021.26,216.044 979,165.5C 941.684,126.492 895.85,107.992 841.5,110C 813.346,58.654 769.846,31.4873 711,28.5C 677.37,29.2636 647.37,39.9302 621,60.5C 620.333,84.5 620.333,108.5 621,132.5C 642.144,112.779 667.31,103.279 696.5,104C 710.232,87.3199 726.899,83.6533 746.5,93C 764.283,106.97 768.116,124.136 758,144.5C 746.198,159.913 731.031,164.413 712.5,158C 701.928,152.936 695.261,144.77 692.5,133.5C 654.669,135.656 630.836,154.989 621,191.5C 620.973,217.562 620.306,243.562 619,269.5C 615.266,276.45 609.432,279.283 601.5,278C 595.553,276.387 592.053,272.553 591,266.5C 590.333,193.5 590.333,120.5 591,47.5C 620.652,19.4249 655.818,3.42489 696.5,-0.5 Z M 724.5,112.5 C 736.329,113.155 740.496,119.155 737,130.5C 731.095,138.054 724.762,138.387 718,131.5C 713.693,122.919 715.86,116.586 724.5,112.5 Z M 851.5,442.5 C 862.989,443.481 867.156,449.481 864,460.5C 860.212,465.153 855.378,466.653 849.5,465C 842.06,460.377 840.56,454.211 845,446.5C 847.013,444.752 849.18,443.418 851.5,442.5 Z M 1007.5,530.5 C 1016.3,529.462 1021.63,533.295 1023.5,542C 1021.65,550.867 1016.31,554.534 1007.5,553C 996.899,545.504 996.899,538.004 1007.5,530.5 Z M 958.5,661.5 C 965.311,660.654 970.144,663.321 973,669.5C 974.485,678.351 970.819,683.685 962,685.5C 950.843,682.518 947.843,675.851 953,665.5C 954.812,664.023 956.645,662.69 958.5,661.5 Z M 827.5,670.5 C 837.983,670.148 842.816,675.148 842,685.5C 839.166,692.666 833.999,695.166 826.5,693C 819.06,688.377 817.56,682.211 822,674.5C 823.812,673.023 825.645,671.69 827.5,670.5 Z M 678.5,835.5 C 687.3,834.462 692.633,838.295 694.5,847C 691.485,858.175 684.819,861.175 674.5,856C 668.465,847.709 669.798,840.876 678.5,835.5 Z M 743.5,1021.5 C 756.129,1020.62 760.963,1026.29 758,1038.5C 750.587,1046.68 743.587,1046.35 737,1037.5C 735.062,1030.39 737.229,1025.06 743.5,1021.5 Z"/></g>
<g><path style="opacity:1" fill="#faf5f8" d="M 454.5,293.5 C 457.167,293.5 459.833,293.5 462.5,293.5C 462.5,299.5 462.5,305.5 462.5,311.5C 466.637,311.482 469.137,313.482 470,317.5C 470.5,324.826 470.666,332.159 470.5,339.5C 462.5,339.5 454.5,339.5 446.5,339.5C 446.334,332.159 446.5,324.826 447,317.5C 447.863,313.482 450.363,311.482 454.5,311.5C 454.5,305.5 454.5,299.5 454.5,293.5 Z"/></g>
<g><path style="opacity:1" fill="#faf5f8" d="M 488.5,293.5 C 491.167,293.5 493.833,293.5 496.5,293.5C 496.5,299.5 496.5,305.5 496.5,311.5C 500.09,311.544 502.59,313.211 504,316.5C 504.5,324.159 504.666,331.826 504.5,339.5C 496.833,339.5 489.167,339.5 481.5,339.5C 481.334,331.16 481.5,322.827 482,314.5C 483.734,312.549 485.901,311.549 488.5,311.5C 488.5,305.5 488.5,299.5 488.5,293.5 Z"/></g>
<g><path style="opacity:1" fill="#faf5f8" d="M 522.5,293.5 C 525.5,293.5 528.5,293.5 531.5,293.5C 531.171,299.537 531.504,305.537 532.5,311.5C 534.753,312.253 536.587,313.586 538,315.5C 538.5,323.493 538.666,331.493 538.5,339.5C 530.833,339.5 523.167,339.5 515.5,339.5C 515.334,331.493 515.5,323.493 516,315.5C 517.272,312.778 519.439,311.444 522.5,311.5C 522.5,305.5 522.5,299.5 522.5,293.5 Z"/></g>
<g><path style="opacity:1" fill="#faf5f8" d="M 556.5,293.5 C 559.5,293.5 562.5,293.5 565.5,293.5C 565.171,299.537 565.504,305.537 566.5,311.5C 568.815,312.234 570.648,313.568 572,315.5C 572.5,323.493 572.666,331.493 572.5,339.5C 564.833,339.5 557.167,339.5 549.5,339.5C 549.334,331.493 549.5,323.493 550,315.5C 551.352,313.568 553.185,312.234 555.5,311.5C 556.496,305.537 556.829,299.537 556.5,293.5 Z"/></g>
<g><path style="opacity:1" fill="#faf5f8" d="M 590.5,293.5 C 593.5,293.5 596.5,293.5 599.5,293.5C 599.5,299.5 599.5,305.5 599.5,311.5C 602.561,311.444 604.728,312.778 606,315.5C 606.5,323.493 606.666,331.493 606.5,339.5C 598.833,339.5 591.167,339.5 583.5,339.5C 583.334,331.493 583.5,323.493 584,315.5C 585.413,313.586 587.247,312.253 589.5,311.5C 590.496,305.537 590.829,299.537 590.5,293.5 Z"/></g>
<g><path style="opacity:1" fill="#faf5f8" d="M 624.5,293.5 C 627.5,293.5 630.5,293.5 633.5,293.5C 633.5,299.5 633.5,305.5 633.5,311.5C 636.099,311.549 638.266,312.549 640,314.5C 640.5,322.827 640.666,331.16 640.5,339.5C 632.833,339.5 625.167,339.5 617.5,339.5C 617.334,331.826 617.5,324.159 618,316.5C 619.033,313.967 620.867,312.301 623.5,311.5C 624.496,305.537 624.829,299.537 624.5,293.5 Z"/></g>
<g><path style="opacity:1" fill="#faf5f8" d="M 659.5,293.5 C 662.167,293.5 664.833,293.5 667.5,293.5C 667.5,299.5 667.5,305.5 667.5,311.5C 670.099,311.549 672.266,312.549 674,314.5C 674.5,322.827 674.666,331.16 674.5,339.5C 666.833,339.5 659.167,339.5 651.5,339.5C 651.334,331.826 651.5,324.159 652,316.5C 653.41,313.211 655.91,311.544 659.5,311.5C 659.5,305.5 659.5,299.5 659.5,293.5 Z"/></g>
<g><path style="opacity:1" fill="#faf5f8" d="M 693.5,293.5 C 696.167,293.5 698.833,293.5 701.5,293.5C 701.5,299.5 701.5,305.5 701.5,311.5C 705.09,311.544 707.59,313.211 709,316.5C 709.5,324.159 709.666,331.826 709.5,339.5C 701.5,339.5 693.5,339.5 685.5,339.5C 685.334,332.159 685.5,324.826 686,317.5C 686.863,313.482 689.363,311.482 693.5,311.5C 693.5,305.5 693.5,299.5 693.5,293.5 Z"/></g>
<g><path style="opacity:1" fill="#faf5f8" d="M 437.5,345.5 C 531.167,345.333 624.834,345.5 718.5,346C 723.573,347.406 727.073,350.572 729,355.5C 729.667,450.167 729.667,544.833 729,639.5C 727.167,644 724,647.167 719.5,649C 625.167,649.667 530.833,649.667 436.5,649C 431.572,647.073 428.406,643.573 427,638.5C 426.333,544.5 426.333,450.5 427,356.5C 428.684,350.984 432.184,347.318 437.5,345.5 Z M 537.5,419.5 C 548.187,419.168 558.854,419.501 569.5,420.5C 590.43,471.297 610.764,522.297 630.5,573.5C 619.813,573.832 609.146,573.499 598.5,572.5C 594.296,561.263 589.963,550.096 585.5,539C 564.5,538.333 543.5,538.333 522.5,539C 517.97,550.255 513.637,561.589 509.5,573C 499.172,573.5 488.839,573.666 478.5,573.5C 498.16,522.177 517.827,470.844 537.5,419.5 Z M 648.5,419.5 C 658.5,419.5 668.5,419.5 678.5,419.5C 678.5,470.833 678.5,522.167 678.5,573.5C 668.5,573.5 658.5,573.5 648.5,573.5C 648.5,522.167 648.5,470.833 648.5,419.5 Z M 450.5,614.5 C 459.008,614.833 462.175,619.166 460,627.5C 452.465,634.441 446.965,632.941 443.5,623C 444.33,618.793 446.664,615.96 450.5,614.5 Z"/></g>
<g><path style="opacity:1" fill="#faf5f8" d="M 397.5,366.5 C 404.833,366.5 412.167,366.5 419.5,366.5C 419.5,374.167 419.5,381.833 419.5,389.5C 411.16,389.666 402.827,389.5 394.5,389C 393.034,387.448 392.034,385.614 391.5,383.5C 385.872,382.505 380.206,382.171 374.5,382.5C 374.5,379.833 374.5,377.167 374.5,374.5C 380.206,374.829 385.872,374.495 391.5,373.5C 392.148,369.862 394.148,367.529 397.5,366.5 Z"/></g>
<g><path style="opacity:1" fill="#faf5f8" d="M 736.5,366.5 C 743.841,366.334 751.174,366.5 758.5,367C 762.518,367.863 764.518,370.363 764.5,374.5C 770.167,374.5 775.833,374.5 781.5,374.5C 781.5,377.167 781.5,379.833 781.5,382.5C 775.833,382.5 770.167,382.5 764.5,382.5C 764.451,385.099 763.451,387.266 761.5,389C 753.173,389.5 744.84,389.666 736.5,389.5C 736.5,381.833 736.5,374.167 736.5,366.5 Z"/></g>
<g><path style="opacity:1" fill="#faf5f8" d="M 395.5,401.5 C 403.5,401.5 411.5,401.5 419.5,401.5C 419.5,409.167 419.5,416.833 419.5,424.5C 412.159,424.666 404.826,424.5 397.5,424C 393.482,423.137 391.482,420.637 391.5,416.5C 385.833,416.5 380.167,416.5 374.5,416.5C 374.5,413.833 374.5,411.167 374.5,408.5C 380.206,408.829 385.872,408.495 391.5,407.5C 391.937,404.775 393.27,402.775 395.5,401.5 Z"/></g>
<g><path style="opacity:1" fill="#faf5f8" d="M 736.5,401.5 C 744.84,401.334 753.173,401.5 761.5,402C 763.451,403.734 764.451,405.901 764.5,408.5C 770.167,408.5 775.833,408.5 781.5,408.5C 781.5,411.167 781.5,413.833 781.5,416.5C 775.833,416.5 770.167,416.5 764.5,416.5C 764.456,420.09 762.789,422.59 759.5,424C 751.841,424.5 744.174,424.666 736.5,424.5C 736.5,416.833 736.5,409.167 736.5,401.5 Z"/></g>
<g><path style="opacity:1" fill="#faf5f8" d="M 395.5,435.5 C 403.5,435.5 411.5,435.5 419.5,435.5C 419.5,443.167 419.5,450.833 419.5,458.5C 411.826,458.666 404.159,458.5 396.5,458C 393.211,456.59 391.544,454.09 391.5,450.5C 385.833,450.5 380.167,450.5 374.5,450.5C 374.5,447.833 374.5,445.167 374.5,442.5C 380.206,442.829 385.872,442.495 391.5,441.5C 392.361,439.089 393.694,437.089 395.5,435.5 Z"/></g>
<g><path style="opacity:1" fill="#faf5f8" d="M 736.5,435.5 C 744.507,435.334 752.507,435.5 760.5,436C 762.811,437.052 764.144,438.885 764.5,441.5C 770.128,442.495 775.794,442.829 781.5,442.5C 781.5,445.167 781.5,447.833 781.5,450.5C 775.833,450.5 770.167,450.5 764.5,450.5C 764.456,454.09 762.789,456.59 759.5,458C 751.841,458.5 744.174,458.666 736.5,458.5C 736.5,450.833 736.5,443.167 736.5,435.5 Z"/></g>
<g><path style="opacity:1" fill="#faf5f8" d="M 552.5,455.5 C 554.284,456.574 555.451,458.24 556,460.5C 562.402,477.872 568.902,495.205 575.5,512.5C 560.833,513.833 546.167,513.833 531.5,512.5C 538.704,493.553 545.704,474.553 552.5,455.5 Z"/></g>
<g><path style="opacity:1" fill="#faf5f8" d="M 396.5,469.5 C 404.167,469.5 411.833,469.5 419.5,469.5C 419.5,477.167 419.5,484.833 419.5,492.5C 411.493,492.666 403.493,492.5 395.5,492C 393.586,490.587 392.253,488.753 391.5,486.5C 385.872,485.505 380.206,485.171 374.5,485.5C 374.5,482.5 374.5,479.5 374.5,476.5C 380.206,476.829 385.872,476.495 391.5,475.5C 392.497,472.845 394.164,470.845 396.5,469.5 Z"/></g>
<g><path style="opacity:1" fill="#faf5f8" d="M 736.5,469.5 C 744.507,469.334 752.507,469.5 760.5,470C 762.414,471.413 763.747,473.247 764.5,475.5C 770.128,476.495 775.794,476.829 781.5,476.5C 781.5,479.5 781.5,482.5 781.5,485.5C 775.794,485.171 770.128,485.505 764.5,486.5C 763.766,488.815 762.432,490.648 760.5,492C 752.507,492.5 744.507,492.666 736.5,492.5C 736.5,484.833 736.5,477.167 736.5,469.5 Z"/></g>
<g><path style="opacity:1" fill="#faf5f8" d="M 396.5,503.5 C 404.167,503.5 411.833,503.5 419.5,503.5C 419.5,511.167 419.5,518.833 419.5,526.5C 411.493,526.666 403.493,526.5 395.5,526C 393.568,524.648 392.234,522.815 391.5,520.5C 385.872,519.505 380.206,519.171 374.5,519.5C 374.5,516.5 374.5,513.5 374.5,510.5C 380.206,510.829 385.872,510.495 391.5,509.5C 392.497,506.845 394.164,504.845 396.5,503.5 Z"/></g>
<g><path style="opacity:1" fill="#faf5f8" d="M 736.5,503.5 C 744.174,503.334 751.841,503.5 759.5,504C 762.033,505.033 763.699,506.867 764.5,509.5C 770.128,510.495 775.794,510.829 781.5,510.5C 781.5,513.5 781.5,516.5 781.5,519.5C 775.794,519.171 770.128,519.505 764.5,520.5C 764.144,523.115 762.811,524.948 760.5,526C 752.507,526.5 744.507,526.666 736.5,526.5C 736.5,518.833 736.5,511.167 736.5,503.5 Z"/></g>
<g><path style="opacity:1" fill="#faf5f8" d="M 396.5,537.5 C 404.167,537.5 411.833,537.5 419.5,537.5C 419.5,545.167 419.5,552.833 419.5,560.5C 411.16,560.666 402.827,560.5 394.5,560C 393.034,558.448 392.034,556.614 391.5,554.5C 385.872,553.505 380.206,553.171 374.5,553.5C 374.5,550.833 374.5,548.167 374.5,545.5C 380.167,545.5 385.833,545.5 391.5,545.5C 391.667,541.821 393.334,539.154 396.5,537.5 Z"/></g>
<g><path style="opacity:1" fill="#faf5f8" d="M 736.5,537.5 C 744.174,537.334 751.841,537.5 759.5,538C 762.789,539.41 764.456,541.91 764.5,545.5C 770.167,545.5 775.833,545.5 781.5,545.5C 781.5,548.167 781.5,550.833 781.5,553.5C 775.833,553.5 770.167,553.5 764.5,553.5C 764.451,556.099 763.451,558.266 761.5,560C 753.173,560.5 744.84,560.666 736.5,560.5C 736.5,552.833 736.5,545.167 736.5,537.5 Z"/></g>
<g><path style="opacity:1" fill="#faf5f8" d="M 398.5,571.5 C 405.5,571.5 412.5,571.5 419.5,571.5C 419.5,579.5 419.5,587.5 419.5,595.5C 412.159,595.666 404.826,595.5 397.5,595C 393.482,594.137 391.482,591.637 391.5,587.5C 385.833,587.5 380.167,587.5 374.5,587.5C 374.5,584.833 374.5,582.167 374.5,579.5C 380.206,579.829 385.872,579.495 391.5,578.5C 392.256,574.41 394.59,572.076 398.5,571.5 Z"/></g>
<g><path style="opacity:1" fill="#faf5f8" d="M 736.5,571.5 C 744.903,571.13 753.236,571.63 761.5,573C 763.451,574.734 764.451,576.901 764.5,579.5C 770.167,579.5 775.833,579.5 781.5,579.5C 781.5,582.167 781.5,584.833 781.5,587.5C 775.833,587.5 770.167,587.5 764.5,587.5C 764.518,591.637 762.518,594.137 758.5,595C 751.174,595.5 743.841,595.666 736.5,595.5C 736.5,587.5 736.5,579.5 736.5,571.5 Z"/></g>
<g><path style="opacity:1" fill="#faf5f8" d="M 395.5,606.5 C 403.5,606.5 411.5,606.5 419.5,606.5C 419.5,614.167 419.5,621.833 419.5,629.5C 411.826,629.666 404.159,629.5 396.5,629C 393.211,627.59 391.544,625.09 391.5,621.5C 385.833,621.5 380.167,621.5 374.5,621.5C 374.5,618.833 374.5,616.167 374.5,613.5C 380.206,613.829 385.872,613.495 391.5,612.5C 392.361,610.089 393.694,608.089 395.5,606.5 Z"/></g>
<g><path style="opacity:1" fill="#faf5f8" d="M 736.5,606.5 C 744.507,606.334 752.507,606.5 760.5,607C 763.222,608.272 764.556,610.439 764.5,613.5C 770.167,613.5 775.833,613.5 781.5,613.5C 781.5,616.167 781.5,618.833 781.5,621.5C 775.833,621.5 770.167,621.5 764.5,621.5C 764.456,625.09 762.789,627.59 759.5,629C 751.841,629.5 744.174,629.666 736.5,629.5C 736.5,621.833 736.5,614.167 736.5,606.5 Z"/></g>
<g><path style="opacity:1" fill="#faf5f8" d="M 446.5,656.5 C 454.5,656.5 462.5,656.5 470.5,656.5C 470.666,664.174 470.5,671.841 470,679.5C 468.59,682.789 466.09,684.456 462.5,684.5C 462.5,690.5 462.5,696.5 462.5,702.5C 459.833,702.5 457.167,702.5 454.5,702.5C 454.5,696.5 454.5,690.5 454.5,684.5C 450.363,684.518 447.863,682.518 447,678.5C 446.5,671.174 446.334,663.841 446.5,656.5 Z"/></g>
<g><path style="opacity:1" fill="#faf5f8" d="M 481.5,656.5 C 489.167,656.5 496.833,656.5 504.5,656.5C 504.666,664.174 504.5,671.841 504,679.5C 502.59,682.789 500.09,684.456 496.5,684.5C 496.5,690.5 496.5,696.5 496.5,702.5C 493.833,702.5 491.167,702.5 488.5,702.5C 488.5,696.5 488.5,690.5 488.5,684.5C 485.901,684.451 483.734,683.451 482,681.5C 481.5,673.173 481.334,664.84 481.5,656.5 Z"/></g>
<g><path style="opacity:1" fill="#faf5f8" d="M 515.5,656.5 C 523.167,656.5 530.833,656.5 538.5,656.5C 538.666,664.507 538.5,672.507 538,680.5C 536.429,682.923 534.263,684.256 531.5,684.5C 531.5,690.5 531.5,696.5 531.5,702.5C 528.5,702.5 525.5,702.5 522.5,702.5C 522.5,696.5 522.5,690.5 522.5,684.5C 519.439,684.556 517.272,683.222 516,680.5C 515.5,672.507 515.334,664.507 515.5,656.5 Z"/></g>
<g><path style="opacity:1" fill="#faf5f8" d="M 549.5,656.5 C 557.167,656.5 564.833,656.5 572.5,656.5C 572.666,664.507 572.5,672.507 572,680.5C 570.728,683.222 568.561,684.556 565.5,684.5C 565.5,690.5 565.5,696.5 565.5,702.5C 562.5,702.5 559.5,702.5 556.5,702.5C 556.5,696.5 556.5,690.5 556.5,684.5C 553.439,684.556 551.272,683.222 550,680.5C 549.5,672.507 549.334,664.507 549.5,656.5 Z"/></g>
<g><path style="opacity:1" fill="#faf5f8" d="M 583.5,656.5 C 591.167,656.5 598.833,656.5 606.5,656.5C 606.666,664.507 606.5,672.507 606,680.5C 604.728,683.222 602.561,684.556 599.5,684.5C 599.5,690.5 599.5,696.5 599.5,702.5C 596.5,702.5 593.5,702.5 590.5,702.5C 590.5,696.5 590.5,690.5 590.5,684.5C 587.737,684.256 585.571,682.923 584,680.5C 583.5,672.507 583.334,664.507 583.5,656.5 Z"/></g>
<g><path style="opacity:1" fill="#faf5f8" d="M 617.5,656.5 C 625.167,656.5 632.833,656.5 640.5,656.5C 640.666,664.84 640.5,673.173 640,681.5C 638.266,683.451 636.099,684.451 633.5,684.5C 633.5,690.5 633.5,696.5 633.5,702.5C 630.5,702.5 627.5,702.5 624.5,702.5C 624.829,696.463 624.496,690.463 623.5,684.5C 621.247,683.747 619.413,682.414 618,680.5C 617.5,672.507 617.334,664.507 617.5,656.5 Z"/></g>
<g><path style="opacity:1" fill="#faf5f8" d="M 651.5,656.5 C 659.167,656.5 666.833,656.5 674.5,656.5C 674.666,664.84 674.5,673.173 674,681.5C 672.266,683.451 670.099,684.451 667.5,684.5C 667.5,690.5 667.5,696.5 667.5,702.5C 664.833,702.5 662.167,702.5 659.5,702.5C 659.5,696.5 659.5,690.5 659.5,684.5C 655.91,684.456 653.41,682.789 652,679.5C 651.5,671.841 651.334,664.174 651.5,656.5 Z"/></g>
<g><path style="opacity:1" fill="#faf5f8" d="M 685.5,656.5 C 693.5,656.5 701.5,656.5 709.5,656.5C 709.666,664.174 709.5,671.841 709,679.5C 707.59,682.789 705.09,684.456 701.5,684.5C 701.5,690.5 701.5,696.5 701.5,702.5C 698.833,702.5 696.167,702.5 693.5,702.5C 693.5,696.5 693.5,690.5 693.5,684.5C 689.363,684.518 686.863,682.518 686,678.5C 685.5,671.174 685.334,663.841 685.5,656.5 Z"/></g>
</svg>
