<svg version="1.1" id="Layer_1" xmlns="http://www.w3.org/2000/svg" xmlns:xlink="http://www.w3.org/1999/xlink" x="0px" y="0px"
	 width="100%" viewBox="0 0 928 1024" enable-background="new 0 0 928 1024" xml:space="preserve">
<path fill="#000000" opacity="1.000000" stroke="none" 
	d="
M379.000000,1.000000 
	C440.020905,1.000000 501.041779,1.000000 562.326477,1.345944 
	C555.668335,3.275658 548.623169,4.455195 541.848572,6.521935 
	C524.255737,11.888978 508.294617,20.422359 493.586395,31.555531 
	C486.455566,36.953098 482.999786,42.634979 483.102417,52.241817 
	C483.672058,105.564850 483.374939,158.897141 483.376862,212.226257 
	C483.376923,213.892609 483.279572,215.570602 483.436371,217.223373 
	C484.335754,226.703674 492.947418,231.532806 501.496521,227.718185 
	C507.412720,225.078384 508.498199,220.040497 508.556976,214.638443 
	C508.734772,198.308304 508.354675,181.969162 508.706543,165.644623 
	C509.087921,147.951218 517.166870,133.874664 530.792969,122.993492 
	C540.566040,115.189095 552.261047,112.213219 564.458862,110.823830 
	C566.759583,110.561768 567.178528,112.073914 567.821411,113.655830 
	C573.305115,127.149139 583.384277,133.282898 597.882507,132.652710 
	C608.386719,132.196136 616.382751,127.435371 621.554016,118.550987 
	C627.566833,108.220757 627.770874,96.880714 621.199951,87.257133 
	C609.050293,69.463097 587.742371,67.476303 572.651306,84.217659 
	C571.464294,85.534447 570.175049,86.418884 568.354919,86.325157 
	C564.174561,86.109901 560.073364,86.785645 555.965332,87.403748 
	C544.248230,89.166740 533.096497,92.390488 522.897644,98.765038 
	C518.379639,101.588928 514.513428,105.573227 508.926636,107.549576 
	C508.806152,105.557587 508.640778,104.080368 508.639069,102.602959 
	C508.621246,87.104210 508.738190,71.604095 508.546173,56.107716 
	C508.503937,52.700512 509.684814,50.490585 512.309143,48.637634 
	C526.388611,38.696758 541.418823,30.881521 558.570435,27.759947 
	C567.364929,26.159369 576.237366,24.018888 585.141479,24.823847 
	C601.841248,26.333551 618.140625,29.455040 633.509521,37.051731 
	C656.236816,48.285610 673.821899,64.573799 685.898743,86.794937 
	C687.685181,90.081879 689.777588,91.879517 693.701843,91.656990 
	C702.694763,91.147064 711.581848,92.286316 720.476746,93.582199 
	C738.083618,96.147301 754.514526,102.122658 769.749329,111.064934 
	C782.349548,118.460831 793.050842,128.198929 802.851379,139.182083 
	C816.885315,154.909470 826.041260,173.105682 831.205505,193.145538 
	C834.521545,206.013474 836.650146,219.251205 835.604553,232.889801 
	C834.928406,241.708572 834.134644,250.631027 831.688110,258.879303 
	C825.241028,280.615204 813.911316,299.966156 797.853271,316.066376 
	C788.868896,325.074310 778.850464,332.889771 767.178223,338.698700 
	C754.943909,344.787292 742.597412,350.138977 729.325256,353.451599 
	C725.523865,354.400391 722.999512,353.832672 719.938538,351.229919 
	C712.213867,344.661713 703.372192,340.742767 692.886841,343.498047 
	C671.642517,349.080505 664.765808,368.998260 672.063965,386.017639 
	C679.587952,403.563599 703.031189,407.479645 716.565369,397.473999 
	C721.478455,393.841919 725.638184,389.665344 727.230530,383.593658 
	C728.140442,380.124115 730.344543,378.669434 733.622070,377.671448 
	C741.998047,375.121155 750.603943,373.529053 758.805908,370.085815 
	C764.048401,367.885010 769.057312,364.583191 775.307556,363.975800 
	C775.664185,367.690765 775.887024,371.462280 776.413513,375.190948 
	C777.455994,382.573914 778.393127,390.010956 780.783203,397.102722 
	C784.682312,408.672363 790.248535,419.391541 797.928162,428.950226 
	C799.825256,431.311493 800.016724,433.726593 799.261719,436.781738 
	C796.308350,448.732422 799.066711,459.923615 808.313416,467.642731 
	C823.132935,480.014069 848.839417,475.604401 855.766785,455.677399 
	C863.981567,432.046783 844.853455,411.373718 822.694824,415.152802 
	C819.774475,415.650848 817.819214,414.900757 815.979431,412.281891 
	C804.908386,396.522186 799.323914,379.162811 800.744263,359.893890 
	C801.291504,352.470154 800.844543,344.457184 808.561096,339.440521 
	C815.764832,334.757263 820.573364,327.617798 826.039062,321.167480 
	C832.317261,313.758240 837.347046,305.482666 842.900085,296.647888 
	C891.741760,340.499847 917.568054,394.415009 916.027771,459.648499 
	C914.993042,503.472321 900.190735,543.287720 872.918579,578.348877 
	C871.081116,576.539917 869.669800,575.542908 868.768188,574.202942 
	C858.233032,558.546204 843.853577,548.197327 825.690796,543.287292 
	C818.921692,541.457275 813.969971,538.056030 809.698425,532.248352 
	C804.228577,524.811462 795.657410,520.979004 786.557739,521.872925 
	C772.568359,523.247253 761.910156,530.286804 758.006042,546.199890 
	C754.720642,559.590881 763.698547,576.585022 777.485168,580.273132 
	C791.369568,583.987366 803.877563,581.255981 812.835754,568.693298 
	C814.076416,566.953430 815.529053,565.810242 818.260620,566.489868 
	C833.230103,570.214233 843.765503,579.636292 851.338989,592.477112 
	C856.218262,600.749939 858.781738,610.083679 861.438171,619.305603 
	C864.549866,630.107910 867.505066,641.153259 868.033264,652.220093 
	C869.157043,675.763428 869.541687,699.438477 863.238831,722.563110 
	C855.801270,749.851135 844.209900,775.225159 827.123596,797.783630 
	C813.117554,816.275269 796.263306,831.999512 776.872375,844.832520 
	C772.400940,847.791748 767.830017,850.804260 762.154724,852.711914 
	C760.140930,836.752014 757.368713,821.540344 752.838135,806.619629 
	C748.965149,793.864624 743.739502,781.742065 736.955017,770.431641 
	C726.690063,753.318787 714.790344,737.334839 699.279907,724.469971 
	C690.869568,717.494202 682.751282,710.016418 672.749207,705.265808 
	C662.463196,700.380310 654.890442,692.711487 650.118164,682.602417 
	C643.925537,669.484619 639.748291,655.821289 640.562683,640.942139 
	C641.662964,620.838440 648.891174,603.390137 661.810425,588.062195 
	C664.062317,585.390564 665.957825,585.406006 668.624695,586.778625 
	C675.895935,590.521179 683.259583,590.378540 690.789856,587.418884 
	C704.937744,581.858215 711.289673,569.953613 710.312012,557.468506 
	C709.284302,544.343872 701.617493,532.500671 685.307190,530.235962 
	C664.673767,527.370972 652.533081,540.035278 650.799805,556.568909 
	C650.118042,563.071655 647.376831,567.256409 643.553894,571.531921 
	C628.678528,588.168274 620.038452,607.525696 617.435364,629.725769 
	C615.555847,645.754883 616.152954,661.466675 621.538940,676.807373 
	C622.214233,678.730896 623.085510,680.857117 621.605042,682.469299 
	C620.088562,684.120605 617.920288,683.195618 615.968079,682.714417 
	C606.616455,680.409363 597.204468,678.398010 587.514099,678.395264 
	C585.246704,678.394653 583.875244,677.412292 582.491577,675.804260 
	C577.372681,669.855164 571.309204,665.681702 563.172180,664.706177 
	C542.483215,662.225647 528.528503,676.829773 529.009583,694.500854 
	C529.461060,711.082886 538.091919,719.743225 555.061646,724.216614 
	C564.464294,726.695190 580.244202,719.468567 585.130188,708.775940 
	C587.969849,702.561462 591.287781,702.821045 596.120728,703.665283 
	C597.914734,703.978638 599.697998,704.363403 601.499512,704.622559 
	C619.070129,707.150452 635.805542,712.661377 651.356262,720.922852 
	C668.224243,729.884094 683.359558,741.353333 696.116394,755.916382 
	C707.925781,769.397766 717.395142,784.315063 724.515808,800.576660 
	C731.856934,817.341431 735.984436,835.172729 737.239502,853.440552 
	C738.664917,874.188721 735.738403,894.591309 728.695862,914.117859 
	C721.250916,934.760315 708.834290,952.321716 692.369568,966.876038 
	C674.380920,982.777832 653.705811,993.000488 630.023499,997.948242 
	C612.779846,1001.550903 595.968323,1001.866394 578.756042,998.443176 
	C553.159973,993.352478 530.944763,982.057129 512.006287,964.156433 
	C509.524292,961.810425 508.551819,959.228638 508.564240,955.785095 
	C508.673706,925.454590 508.614258,895.123474 508.657776,864.792603 
	C508.660217,863.080383 508.048309,861.141235 509.619263,859.651611 
	C510.187042,859.711548 510.718506,859.655457 511.148926,859.837891 
	C511.904755,860.158081 512.609436,860.606506 513.317078,861.031982 
	C522.746826,866.700989 532.498474,871.317993 543.540527,873.275940 
	C558.629639,875.951660 573.302185,874.684204 587.707886,870.008423 
	C590.760193,869.017761 592.872559,869.245911 595.543701,870.756958 
	C602.383484,874.626282 609.438293,877.277527 617.725830,875.692749 
	C640.484741,871.340393 649.076660,845.913513 636.635376,828.228943 
	C629.283630,817.778809 618.407166,814.601868 606.663696,816.784180 
	C594.610535,819.024170 585.863770,826.549255 583.471741,839.157776 
	C582.291870,845.377258 578.953918,847.995483 573.370483,848.833130 
	C569.116821,849.471313 564.834778,850.257263 560.555054,850.324890 
	C545.330933,850.565430 531.882568,845.591431 520.531738,835.447388 
	C512.776184,828.516357 508.233734,820.699524 508.343933,809.192810 
	C508.939240,747.036743 508.631012,684.871948 508.630371,622.710205 
	C508.630341,620.710876 508.749298,618.694275 508.538483,616.714966 
	C507.301727,605.102295 498.212036,600.867310 490.591217,604.930359 
	C485.048370,607.885437 483.340424,613.100830 483.342926,619.214844 
	C483.389160,733.039185 483.396912,846.863464 483.314972,960.687744 
	C483.311005,966.179504 484.952332,970.987793 488.352020,974.919861 
	C496.315033,984.129944 505.800293,991.755371 515.784302,998.610413 
	C524.239563,1004.415833 533.209961,1009.481262 542.852417,1013.213684 
	C550.883789,1016.322571 558.919373,1019.241821 567.439148,1020.945190 
	C572.655823,1021.988159 578.285339,1021.890747 583.000000,1025.000000 
	C507.979095,1025.000000 432.958221,1025.000000 357.766602,1024.732666 
	C366.732727,1021.549438 376.327026,1020.752197 385.535034,1017.852600 
	C410.133362,1010.106384 431.123840,996.702209 449.670074,979.107971 
	C455.129456,973.928833 457.697601,967.693542 457.690948,960.001831 
	C457.593018,846.342468 457.624207,732.683105 457.623962,619.023682 
	C457.623962,617.857117 457.604095,616.690491 457.608704,615.523987 
	C457.630951,609.879211 453.951355,606.874756 449.574127,604.482544 
	C445.286285,602.139160 441.519745,603.931824 437.945404,606.343445 
	C434.055206,608.968201 433.322815,612.814758 433.327789,617.257446 
	C433.401764,683.086548 433.349609,748.915710 433.449402,814.744690 
	C433.455231,818.599670 432.832336,822.059509 430.422272,824.965942 
	C427.248169,828.793701 424.189362,832.853943 420.417480,836.025085 
	C405.564117,848.513367 388.306488,852.513184 369.344238,849.189819 
	C366.140625,848.628296 362.968628,847.237671 360.090851,845.665039 
	C357.675751,844.345215 359.031647,841.363159 358.383636,839.201416 
	C355.735443,830.367188 350.492828,823.270081 342.397705,819.105225 
	C331.505707,813.501404 316.480164,816.058044 307.982239,824.262329 
	C298.463196,833.452515 297.296967,845.452271 301.167725,857.512695 
	C306.053894,872.736877 327.294067,881.024292 341.120087,873.240479 
	C344.554901,871.306885 348.120575,867.500488 352.993134,869.732056 
	C357.588074,871.836548 362.531067,872.576111 367.415192,873.376099 
	C386.489166,876.500183 404.690582,874.161133 421.875366,864.752319 
	C425.322052,862.865234 428.333679,859.592468 432.930756,859.508301 
	C433.100006,860.654419 433.323608,861.464355 433.324249,862.274414 
	C433.348602,894.105591 433.324402,925.936768 433.406952,957.767761 
	C433.414459,960.662476 431.864288,962.395264 429.999969,964.082031 
	C414.039215,978.522583 396.096375,989.601929 375.281372,995.509827 
	C355.753021,1001.052551 335.991119,1003.109924 315.787689,999.102661 
	C303.382355,996.642151 291.262878,993.184875 279.982391,987.693970 
	C269.006897,982.351501 258.789825,975.672485 249.579285,967.298279 
	C237.838013,956.622986 227.965271,944.693970 220.447845,930.797119 
	C213.063614,917.146545 208.915939,902.558472 206.102646,887.231506 
	C202.641922,868.377502 203.857407,849.802856 207.161469,831.417480 
	C210.210754,814.449707 216.641663,798.232788 225.294678,783.293213 
	C237.928970,761.479858 254.908020,743.335205 275.873047,729.257385 
	C298.471069,714.083069 323.809631,706.260864 350.642059,702.871704 
	C352.497131,702.637390 353.734741,702.999390 354.358948,705.131836 
	C355.708740,709.743286 358.846863,713.201477 362.408173,716.253357 
	C371.240448,723.822449 381.170471,726.948608 392.372101,722.473816 
	C404.325409,717.698853 411.549194,708.804138 412.525757,695.810669 
	C413.544800,682.252441 405.167725,670.174377 392.735565,666.189087 
	C379.626221,661.986816 368.264313,664.794128 358.572540,675.731445 
	C357.410980,677.042297 356.548096,678.311890 354.657410,678.304138 
	C344.102509,678.261169 333.946167,680.799927 323.729767,683.007568 
	C319.269928,683.971252 317.805023,682.513123 319.378784,678.394104 
	C321.953339,671.655640 323.372223,664.793884 323.932709,657.585144 
	C325.084198,642.774719 325.354980,628.117554 320.911774,613.698181 
	C319.000885,607.496948 316.822754,601.448853 313.975647,595.603882 
	C309.542267,586.502625 304.448456,577.979553 297.117340,570.775940 
	C294.018524,567.731018 290.210205,564.937195 290.483459,559.219116 
	C291.132355,545.640930 284.123993,536.113342 271.881042,531.518066 
	C261.959045,527.794006 251.792435,528.690430 242.772018,535.600830 
	C229.459900,545.799011 228.316727,562.369629 235.111938,574.605774 
	C242.425079,587.774475 259.675140,593.777039 273.063110,586.714478 
	C275.522491,585.417114 277.008423,585.722168 279.089996,587.726929 
	C287.211639,595.548767 291.789764,605.514648 295.737030,615.650391 
	C298.100647,621.719666 300.039398,628.143005 300.394196,634.884094 
	C301.247040,651.089478 299.434265,666.692322 291.648743,681.295105 
	C287.792297,688.528259 284.079498,696.252197 276.889313,700.269653 
	C254.556595,712.747681 235.270645,728.518311 219.391037,748.654419 
	C209.262405,761.498047 201.000885,775.416138 194.561264,790.289978 
	C188.641602,803.962891 184.711105,818.359863 182.205963,833.154480 
	C181.120941,839.562378 181.037155,846.240906 178.703079,852.837463 
	C177.226257,852.132141 176.180801,851.698486 175.197601,851.152710 
	C168.375275,847.365845 162.108337,842.732849 155.642258,838.395264 
	C142.595581,829.643372 131.919434,818.289795 121.569786,806.753174 
	C109.472984,793.269043 100.199478,777.705505 92.464897,761.354614 
	C88.373123,752.704590 84.814713,743.733643 81.848198,734.636047 
	C77.426682,721.076416 74.788231,707.054871 73.350960,692.855652 
	C72.042633,679.930298 72.182632,666.973877 73.297264,654.034424 
	C73.996605,645.916077 76.048416,638.032104 77.519058,630.045227 
	C79.658508,618.426270 83.212624,607.188171 87.941887,596.502686 
	C93.699501,583.493591 104.022644,574.420410 116.833687,568.254761 
	C123.859879,564.873291 126.505188,564.879883 129.048859,568.846130 
	C133.756760,576.186951 140.355438,580.318237 148.957291,581.305786 
	C160.383240,582.617493 170.417770,580.065247 177.665268,570.439880 
	C184.522705,561.332581 185.763763,551.333496 181.536575,540.801270 
	C176.509293,528.275574 166.200577,522.289307 153.582291,521.821533 
	C142.392593,521.406738 133.929550,528.281128 127.596474,537.186707 
	C125.989929,539.445862 124.293793,540.730896 121.798004,541.315430 
	C102.520317,545.830322 86.668655,555.656067 74.429436,571.357910 
	C72.689217,573.590454 71.807526,576.908264 68.055298,577.771790 
	C42.841133,545.360596 29.028652,508.226471 25.909006,467.518127 
	C22.164000,418.649536 36.014809,374.176239 64.096466,334.251801 
	C73.741272,320.539551 84.647575,307.705231 98.563568,297.622589 
	C104.838982,304.729401 108.507629,312.817596 114.161659,319.570435 
	C120.485542,327.123291 127.061615,334.416870 134.457031,340.839478 
	C137.696594,343.652924 139.243774,346.506165 139.413422,350.532593 
	C139.482651,352.175659 139.719894,353.841492 140.122910,355.435730 
	C142.603638,365.248932 140.855179,375.090271 138.823959,384.493317 
	C136.699631,394.327484 131.604095,403.354736 125.960938,411.820068 
	C124.190979,414.475159 121.549263,415.679199 118.170181,415.082855 
	C104.372093,412.647491 93.221603,419.415314 87.713493,429.303406 
	C81.792221,439.933167 81.469093,451.399170 89.021446,462.144379 
	C97.207001,473.790405 112.907318,477.946106 127.772202,471.083923 
	C138.457916,466.151001 147.793274,447.609833 141.990051,435.915497 
	C141.073654,434.068848 140.871765,432.112061 142.637756,429.985931 
	C155.259933,414.789337 162.280151,397.233368 164.875000,377.654022 
	C165.489822,373.014984 164.736908,368.156036 166.403397,363.304474 
	C180.185883,369.670349 194.020065,374.633270 208.446503,377.885773 
	C211.092453,378.482300 213.141388,379.666260 213.857132,382.924683 
	C214.439392,385.575348 216.039200,388.122406 217.625595,390.412048 
	C225.019470,401.083496 235.747925,404.233734 247.853546,402.199097 
	C260.491974,400.074921 268.781281,392.363708 271.309082,379.572266 
	C274.303833,364.418091 268.529419,353.856232 257.594147,347.117676 
	C246.099060,340.034149 231.632324,340.856842 221.221802,351.842682 
	C219.169998,354.007874 217.097595,354.415558 214.089371,353.746948 
	C193.380295,349.144348 174.349579,340.995880 157.571960,327.861847 
	C131.906158,307.769958 114.709389,282.429688 108.198128,250.056824 
	C105.202644,235.163773 105.173759,220.515366 107.561058,205.588150 
	C110.703094,185.941742 118.005219,168.170197 128.960815,151.610672 
	C138.437485,137.286575 150.506424,125.735565 164.333511,115.851357 
	C177.321503,106.566978 191.834900,100.005417 207.119202,96.208267 
	C220.380692,92.913651 234.130341,90.684723 248.041534,91.625824 
	C251.102188,91.832870 253.314529,91.107834 254.922684,88.004204 
	C261.046234,76.186050 268.734039,65.248199 278.696442,56.550968 
	C294.440643,42.806210 312.309265,32.847778 333.110352,28.060192 
	C352.393677,23.621933 371.320251,24.565237 390.114777,29.246899 
	C404.727753,32.886955 417.756226,40.337158 429.996277,49.076302 
	C432.512939,50.873131 433.449005,53.218151 433.425751,56.348759 
	C433.309265,72.013557 433.391968,87.679756 433.337891,103.345230 
	C433.332581,104.888199 433.934631,106.721008 432.247345,107.826584 
	C431.009094,107.979462 430.286804,107.244087 429.535248,106.606544 
	C413.539001,93.036995 394.748230,87.074203 374.076691,86.484329 
	C371.168610,86.401337 369.631012,84.957634 367.868347,83.133560 
	C360.110321,75.105186 350.799408,70.985153 339.614349,73.670700 
	C320.575043,78.242073 309.249725,98.079750 319.164032,117.237267 
	C330.114105,138.396301 357.790161,135.904404 368.322357,123.053986 
	C371.408966,119.288025 372.437164,114.407753 375.845764,110.939934 
	C377.107788,111.164009 378.238586,111.475807 379.384979,111.551605 
	C395.718781,112.631516 409.321106,119.200089 419.784821,131.864014 
	C428.299286,142.168777 433.057526,154.086670 433.303650,167.454300 
	C433.610382,184.114273 433.484924,200.785156 433.323853,217.449188 
	C433.267700,223.256958 436.650055,226.165375 441.176056,228.467285 
	C445.515961,230.674561 449.133942,228.942337 452.714203,226.464752 
	C456.747742,223.673477 457.656555,219.709808 457.647430,215.146957 
	C457.595490,189.148727 457.623169,163.150330 457.623322,137.151993 
	C457.623505,106.487289 457.629425,75.822578 457.611359,45.157883 
	C457.609924,42.703453 458.069214,40.114204 455.791534,38.202194 
	C437.145264,22.549286 417.023834,9.804107 392.603638,5.057762 
	C388.008942,4.164726 383.133545,3.673258 379.000000,1.000000 
M597.618408,377.500244 
	C597.620239,351.180054 597.628967,324.859833 597.620422,298.539642 
	C597.617065,288.200928 592.749146,283.371704 582.339050,283.371399 
	C510.207520,283.369141 438.075378,283.513977 365.945129,283.209625 
	C356.249725,283.168732 349.148285,289.569702 349.198303,300.123138 
	C349.541809,372.585938 349.379211,445.051147 349.383820,517.515564 
	C349.384491,528.315857 353.691193,532.623108 364.568085,532.624634 
	C437.365875,532.634888 510.163635,532.634583 582.961426,532.627502 
	C593.974548,532.626404 597.619080,528.957336 597.619812,517.932312 
	C597.622925,471.454956 597.619690,424.977631 597.618408,377.500244 
M521.645203,256.487701 
	C517.804443,253.771835 520.195435,249.789429 519.678223,246.414581 
	C519.341858,244.220428 519.550903,241.948853 516.622131,241.521805 
	C513.052307,241.001297 511.362335,242.474045 511.347382,246.190063 
	C511.328827,250.791641 512.704346,255.854141 506.992767,258.711853 
	C505.494690,259.461395 505.340820,261.831543 505.371155,263.735626 
	C505.421448,266.893433 505.567932,270.067322 505.327942,273.208008 
	C504.970215,277.888641 506.727936,279.805542 511.599884,279.691803 
	C526.490479,279.344208 524.530457,281.424042 524.573608,266.658234 
	C524.583374,263.319214 525.776794,259.544342 521.645203,256.487701 
M487.504242,241.458679 
	C483.714508,241.392410 483.507812,243.904572 483.313965,246.821808 
	C483.101532,250.018997 484.736267,253.702713 482.020844,256.342133 
	C475.520020,262.660919 477.590881,270.835724 479.228027,277.434052 
	C480.406738,282.184692 487.800568,278.732025 492.322174,279.609619 
	C492.641510,279.671600 492.985535,279.596130 493.317596,279.604370 
	C496.235107,279.676666 497.583710,278.197540 497.578094,275.339691 
	C497.569275,270.851990 497.577454,266.364258 497.577820,261.876556 
	C497.577942,260.302521 497.212097,258.431885 495.865662,257.946869 
	C490.446777,255.994858 491.738129,251.558487 491.609833,247.579880 
	C491.526794,245.004669 492.226288,241.956268 487.504242,241.458679 
M523.263977,539.208435 
	C521.612610,538.116577 519.739319,538.422363 517.941284,538.434082 
	C503.869141,538.525696 505.432251,537.011658 505.384613,550.891541 
	C505.374481,553.836975 504.669220,557.210693 507.626129,559.116699 
	C511.298584,561.483948 511.636383,564.818054 511.399139,568.594177 
	C511.295563,570.242859 511.325195,571.921448 511.513123,573.561401 
	C511.733459,575.484131 513.037170,576.401855 514.922180,576.540955 
	C516.921753,576.688477 519.193970,576.129761 519.198853,574.101624 
	C519.214172,567.789124 521.471924,562.540771 524.035645,556.817932 
	C526.152588,552.092224 525.484314,545.472656 523.263977,539.208435 
M497.621582,548.471069 
	C497.606049,538.394104 497.605988,538.385620 487.568512,538.440918 
	C485.908112,538.450073 484.233734,538.458862 482.592529,538.672729 
	C481.081146,538.869751 479.348419,539.419739 479.086609,541.053467 
	C478.117584,547.100281 476.807251,553.544128 479.750641,559.058655 
	C481.948334,563.176147 483.774963,566.942383 483.406555,571.624878 
	C483.235413,573.800415 483.942230,575.573364 486.204590,576.359009 
	C489.550293,577.520874 491.349274,575.837219 491.653015,571.615173 
	C491.885864,568.377808 490.058563,564.036072 492.816864,562.126038 
	C497.740845,558.716309 497.753357,554.279236 497.621582,548.471069 
M563.486511,257.945190 
	C559.937195,263.988220 561.627380,270.582275 561.604919,276.968262 
	C561.598022,278.924316 563.404907,279.582672 565.242737,279.587494 
	C569.398193,279.598389 573.553772,279.604889 577.709167,279.586975 
	C580.427734,279.575256 581.572021,278.039185 581.576965,275.463348 
	C581.585022,271.307953 581.609314,267.152435 581.584534,262.997223 
	C581.570862,260.692505 580.753174,258.136475 578.747925,257.538239 
	C574.055542,256.138367 574.590942,252.699326 574.606812,249.256454 
	C574.613708,247.760910 574.625122,246.262741 574.549316,244.770096 
	C574.450500,242.825211 573.436523,241.592133 571.429504,241.646484 
	C569.431213,241.700592 568.488647,242.993820 568.429321,244.922394 
	C568.373169,246.749466 568.187805,248.602402 568.406494,250.401764 
	C568.843201,253.994995 567.871521,256.544037 563.486511,257.945190 
M379.537354,244.276123 
	C379.115265,242.025238 377.620209,241.317917 375.529480,241.544296 
	C373.854919,241.725586 372.511688,242.643875 372.526123,244.329529 
	C372.576569,250.230438 371.611023,255.196167 367.754486,260.490295 
	C364.372528,265.132965 364.542755,273.075684 367.627563,278.063446 
	C370.049530,281.979370 376.607391,279.156677 381.306671,279.543030 
	C384.164459,279.778015 385.562927,278.066742 385.581879,275.250153 
	C385.608673,271.262848 385.482422,267.269806 385.658783,263.289703 
	C385.798798,260.130219 384.987976,257.660492 381.817566,256.560669 
	C379.777222,255.852875 379.658295,254.292343 379.645782,252.580765 
	C379.627594,250.088654 379.610443,247.596558 379.537354,244.276123 
M344.626251,426.740295 
	C344.627930,424.578857 344.681244,422.415894 344.617035,420.256409 
	C344.549805,417.995392 345.274170,414.875458 342.452454,414.214905 
	C336.471344,412.814789 329.410767,411.417511 324.573273,414.730408 
	C320.289429,417.664215 316.538544,418.486633 311.942078,418.409851 
	C309.513489,418.369263 307.694427,419.110504 307.425812,421.910431 
	C307.088654,425.424133 308.837006,426.657135 312.146545,426.645752 
	C316.672699,426.630219 321.548981,425.606384 324.191772,431.161102 
	C324.856659,432.558594 327.035583,432.636841 328.756927,432.620178 
	C332.248077,432.586395 335.750336,432.447876 339.228577,432.664429 
	C343.038483,432.901642 344.921295,431.467163 344.626251,426.740295 
M467.674286,257.786652 
	C463.007690,256.308411 463.583099,252.510788 463.574799,248.843933 
	C463.569702,246.599945 464.377869,244.065567 462.331543,242.233276 
	C461.258087,241.272110 459.860291,241.316177 458.542725,241.798615 
	C456.625641,242.500565 456.426239,244.128998 456.371155,245.876221 
	C456.221039,250.636688 457.752808,256.002625 451.704803,258.685059 
	C451.134430,258.938049 450.691681,260.114960 450.673431,260.874512 
	C450.545715,266.194366 450.261017,271.536041 450.610718,276.832153 
	C450.820435,280.008392 453.917755,279.958984 456.126160,279.529663 
	C460.549744,278.669617 467.286560,282.653381 469.000580,276.890533 
	C470.688385,271.215820 470.940094,264.425201 467.674286,257.786652 
M441.598145,275.005005 
	C441.603271,271.181488 441.596527,267.357910 441.618713,263.534485 
	C441.629517,261.669220 441.734833,259.318787 440.018860,258.549225 
	C434.542847,256.093414 435.737579,251.397369 435.616394,247.072296 
	C435.546722,244.585526 435.920166,241.666092 432.244049,241.571793 
	C428.366394,241.472290 428.416931,244.371735 428.364227,247.158859 
	C428.286499,251.267670 429.568573,255.876755 424.071960,258.014221 
	C423.214966,258.347473 422.593079,260.293091 422.544586,261.520111 
	C422.354340,266.333130 422.412628,271.157043 422.430847,275.976685 
	C422.438019,277.874878 423.405487,279.367828 425.312012,279.442169 
	C429.791016,279.616913 434.287384,279.630524 438.764618,279.433838 
	C440.682587,279.349579 441.478180,277.735870 441.598145,275.005005 
M626.652222,417.442139 
	C624.666504,414.353851 621.883911,413.061401 618.198303,413.396515 
	C616.057495,413.591156 613.882812,413.406860 611.723389,413.404785 
	C603.387146,413.396729 603.369629,413.398499 603.380249,421.592010 
	C603.395996,433.740936 602.274109,432.635620 614.290710,432.593353 
	C617.553589,432.581879 621.957458,433.940155 623.744995,431.063629 
	C626.892395,425.998810 631.204163,426.510956 635.771973,426.610291 
	C638.428955,426.668060 640.381348,425.821991 640.537170,422.799683 
	C640.710327,419.442200 638.528076,418.584534 635.752014,418.421783 
	C632.944519,418.257172 630.136169,418.107330 626.652222,417.442139 
M407.241089,279.616211 
	C411.999146,280.236755 414.065460,278.247406 413.667145,273.385712 
	C413.409454,270.240509 413.580444,267.057312 413.617493,263.891815 
	C413.646393,261.419800 413.058472,258.777588 411.022675,257.701599 
	C407.440430,255.808197 407.518860,252.901245 407.615417,249.721405 
	C407.650787,248.556244 407.599915,247.388718 407.607819,246.222412 
	C407.625305,243.644684 407.128784,241.426514 403.863037,241.561783 
	C401.029022,241.679199 400.334991,243.577728 400.374451,246.037079 
	C400.409180,248.202499 400.388641,250.369980 400.335175,252.535141 
	C400.307007,253.675568 400.636536,255.363144 399.531464,255.753159 
	C393.280975,257.959137 394.373718,263.135345 394.376190,267.878479 
	C394.382996,280.883118 393.429871,279.559570 407.241089,279.616211 
M469.582672,555.797791 
	C469.591095,551.971008 469.485352,548.139709 469.638702,544.318726 
	C469.805115,540.171387 468.278656,538.362976 463.840607,538.341187 
	C450.352570,538.275024 450.336517,538.130676 450.387054,551.504761 
	C450.398163,554.448303 449.486328,558.133972 452.502167,559.773743 
	C456.888214,562.158630 456.359100,565.844543 456.375580,569.611877 
	C456.381378,570.941956 456.319550,572.288147 456.500183,573.597839 
	C456.765778,575.523376 458.042145,576.465698 459.953918,576.514038 
	C461.886566,576.562927 463.647552,575.562134 463.409546,573.737610 
	C462.517944,566.902527 464.816071,561.379761 469.582672,555.797791 
M394.392456,543.021790 
	C394.390228,546.845093 394.394196,550.668396 394.382812,554.491699 
	C394.377777,556.180298 394.246094,558.339172 395.756256,559.069702 
	C401.164520,561.686096 400.416626,566.416992 400.365326,570.990662 
	C400.333893,573.793152 400.416962,576.674683 404.297913,576.504883 
	C407.949371,576.345032 407.573120,573.421509 407.614594,570.942322 
	C407.688110,566.549500 406.732513,561.900635 411.888550,559.198120 
	C412.872894,558.682190 413.414246,556.585327 413.478455,555.186646 
	C413.676422,550.874756 413.580597,546.547363 413.524872,542.226929 
	C413.498047,540.148865 412.523041,538.592407 410.303467,538.533020 
	C406.153076,538.421997 401.994049,538.429443 397.844727,538.569275 
	C395.717712,538.640930 394.606689,540.047424 394.392456,543.021790 
M561.377380,546.614136 
	C561.739990,550.971497 559.659668,556.394226 563.898438,559.251038 
	C568.323853,562.233765 568.636963,565.865234 568.397278,570.248901 
	C568.343750,571.227966 568.488708,572.245483 568.711975,573.205811 
	C569.072510,574.756531 569.867981,576.065125 571.669495,576.077271 
	C573.601440,576.090271 574.197754,574.605957 574.331482,573.053406 
	C574.544922,570.574951 574.622742,568.078186 574.616455,565.589539 
	C574.611572,563.637329 574.956421,562.013000 576.907715,561.049194 
	C580.870361,559.091980 581.780518,555.771362 581.693359,551.542297 
	C581.383301,536.485474 583.277222,538.535339 568.739258,538.454590 
	C561.655212,538.415222 561.478027,538.648865 561.377380,546.614136 
M314.563354,454.620239 
	C317.206726,454.996704 320.515625,453.451538 322.173065,456.754456 
	C323.465363,459.329742 325.519287,459.654053 327.963684,459.624695 
	C331.784729,459.578735 335.611328,459.496033 339.427063,459.645325 
	C343.338776,459.798370 344.722107,457.988037 344.656647,454.223053 
	C344.382324,438.444031 346.762817,440.579773 330.961914,440.367249 
	C327.426331,440.319702 324.136017,440.927612 322.471436,444.332550 
	C321.102661,447.132355 318.994263,447.512299 316.355927,447.400146 
	C314.533203,447.322632 312.696808,447.347900 310.877075,447.476349 
	C308.774078,447.624847 307.507538,448.749115 307.443634,450.968719 
	C307.379730,453.188843 308.489960,454.383240 310.680328,454.549744 
	C311.672607,454.625153 312.672699,454.598114 314.563354,454.620239 
M533.679871,277.584473 
	C536.143860,279.586945 548.941589,280.589752 551.166992,278.927612 
	C551.552185,278.639923 552.065979,278.222565 552.107788,277.822052 
	C552.775940,271.414856 553.267029,264.997009 551.842346,258.626190 
	C551.719055,258.074738 551.048950,257.341156 550.521240,257.232178 
	C545.843018,256.266113 546.898132,252.609650 546.548767,249.422516 
	C546.243591,246.638504 548.376770,241.858765 543.630249,241.829559 
	C538.465271,241.797775 540.965515,246.794373 540.408325,249.678085 
	C540.160278,250.961746 540.345947,252.325836 540.294983,253.651901 
	C540.248047,254.874252 539.944519,255.922668 538.545837,256.310974 
	C533.869812,257.609070 533.282410,261.255371 533.368652,265.325623 
	C533.449463,269.140442 533.441528,272.957092 533.679871,277.584473 
M422.401581,544.065918 
	C422.881836,550.709961 420.040009,558.204163 427.556061,563.041138 
	C428.761475,563.816833 428.306183,565.831726 428.349854,567.314453 
	C428.408478,569.304138 428.331665,571.303101 428.493835,573.283203 
	C428.670380,575.439026 430.010498,576.513489 432.156372,576.539551 
	C434.425415,576.567078 435.487427,575.300354 435.564423,573.147644 
	C435.635559,571.158325 435.513641,569.158691 435.653137,567.176086 
	C435.796234,565.142700 435.047363,562.943542 437.417633,561.377930 
	C441.099365,558.946106 441.810852,555.255615 441.690674,550.971741 
	C441.283051,536.443665 443.707031,538.446838 427.741608,538.514099 
	C424.759430,538.526672 422.615479,539.841858 422.401581,544.065918 
M344.628113,474.766083 
	C345.248840,469.992523 343.178680,467.955780 338.379272,468.362854 
	C335.903839,468.572876 333.395233,468.365692 330.902679,468.408173 
	C328.385803,468.451019 324.898010,468.481018 324.017883,470.428375 
	C321.466492,476.073517 316.941895,475.474182 312.312531,475.431580 
	C310.146301,475.411652 307.588531,475.311920 307.562042,478.423126 
	C307.532806,481.854004 310.220215,481.616638 312.590942,481.614929 
	C314.419220,481.613586 316.249115,481.599854 318.075195,481.671173 
	C319.384644,481.722290 320.726685,481.693085 321.336060,483.329437 
	C323.127197,488.138855 327.188660,488.603638 331.535950,488.634277 
	C344.631531,488.726593 344.631348,488.752075 344.628113,474.766083 
M622.361389,320.308899 
	C626.192444,315.331757 631.239258,313.683197 637.381226,314.487030 
	C639.239685,314.730225 640.425171,313.316437 640.510681,311.359406 
	C640.595093,309.429199 639.572754,308.198608 637.736633,307.775452 
	C636.619385,307.518005 635.440918,307.414551 634.291931,307.426758 
	C630.476135,307.467377 626.580566,307.915009 624.703613,303.286285 
	C624.402527,302.543732 623.139404,301.795776 622.276672,301.740356 
	C616.515808,301.370056 610.064270,299.592499 605.196655,302.367615 
	C600.925354,304.802734 604.132507,310.964722 603.388794,315.403107 
	C603.334839,315.725098 603.400940,316.065613 603.392395,316.397034 
	C603.317627,319.298096 604.725952,320.662323 607.628418,320.619019 
	C612.271790,320.549744 616.915955,320.541260 622.361389,320.308899 
M639.552185,448.710022 
	C638.474976,448.312164 637.389282,447.552795 636.322083,447.578003 
	C631.278870,447.697083 626.511597,447.749390 623.648376,442.276093 
	C622.769897,440.596893 620.289307,440.347046 618.205078,440.377075 
	C615.209778,440.420288 612.203369,440.536560 609.219788,440.342529 
	C604.970154,440.066101 602.919983,441.720032 603.359009,446.119659 
	C603.490601,447.437958 603.375854,448.780731 603.375610,450.112274 
	C603.374023,459.616974 603.375061,459.690918 612.865540,459.582306 
	C616.492249,459.540802 621.268127,461.224426 623.510193,458.740570 
	C627.512878,454.306213 632.065613,454.742462 636.939514,454.521210 
	C640.223938,454.372101 641.176392,452.324951 639.552185,448.710022 
M374.759430,538.434814 
	C367.218597,538.602905 366.440857,539.371460 366.388275,546.764587 
	C366.372894,548.926453 366.330841,551.091064 366.415222,553.249939 
	C366.536316,556.349792 367.304321,559.229553 370.170563,560.957886 
	C372.002502,562.062561 372.420349,563.641907 372.374939,565.593323 
	C372.320740,567.919678 372.361328,570.250061 372.425842,572.576904 
	C372.491302,574.939209 373.752960,576.342957 376.109558,576.448730 
	C378.699707,576.565002 379.557617,574.884094 379.592102,572.592285 
	C379.627167,570.264343 379.559723,567.932312 379.678314,565.609314 
	C379.735718,564.484741 379.780273,562.664062 380.402161,562.370911 
	C386.958832,559.279846 385.597443,553.432556 385.613464,548.075684 
	C385.642273,538.434753 385.619019,538.434692 374.759430,538.434814 
M625.876526,388.924805 
	C621.562256,383.407593 615.448608,385.742554 610.032104,385.481354 
	C603.796021,385.180634 603.355591,385.780792 603.394287,391.835052 
	C603.486023,406.187805 601.574341,404.528778 616.172180,404.609863 
	C618.965698,404.625366 622.498230,405.447388 624.071838,402.737549 
	C626.752869,398.120544 630.763855,398.550385 634.918274,398.609283 
	C637.645569,398.647980 640.596558,398.840607 640.561035,394.836395 
	C640.526978,390.996429 637.519226,391.731262 635.127380,391.381836 
	C632.177917,390.950989 628.729675,392.808929 625.876526,388.924805 
M603.391174,333.991760 
	C603.390808,337.324646 603.388123,340.657501 603.391113,343.990387 
	C603.392456,345.525574 603.548767,346.980560 605.011414,347.941833 
	C607.551086,349.610870 622.424622,349.008392 624.245056,346.436279 
	C627.062317,342.455627 630.729248,342.530670 634.732239,342.600861 
	C637.373230,342.647186 640.475891,343.057983 640.540039,339.016357 
	C640.606201,334.850677 637.381592,335.480530 634.804138,335.406708 
	C630.899597,335.294861 626.671021,336.281189 624.679016,331.261597 
	C624.208740,330.076691 622.662903,329.537750 621.252991,329.522583 
	C616.588074,329.472443 611.922424,329.429321 607.257446,329.455841 
	C604.894104,329.469269 603.538391,330.687805 603.391174,333.991760 
M321.359863,315.640594 
	C322.993164,319.458771 325.772339,321.100647 330.000305,320.681763 
	C332.960907,320.388397 335.974548,320.561249 338.962250,320.627960 
	C342.967255,320.717316 344.505615,318.745819 344.660950,314.835297 
	C345.196503,301.354095 345.273651,301.357147 331.727417,301.376160 
	C331.561340,301.376373 331.395142,301.380798 331.229218,301.376221 
	C327.348145,301.269348 323.480164,301.020142 321.798279,305.812592 
	C321.331390,307.142883 319.734619,307.328247 318.349579,307.341370 
	C316.190918,307.361816 314.032196,307.388641 311.873871,307.430084 
	C309.486237,307.475922 307.512115,308.118439 307.480713,310.998260 
	C307.449310,313.881104 309.354309,314.520782 311.787506,314.618134 
	C314.759277,314.736969 317.769073,314.229492 321.359863,315.640594 
M636.512817,475.558228 
	C631.831604,475.408112 627.062866,476.071533 624.089539,470.747009 
	C622.954346,468.714081 619.803650,468.459961 617.250305,468.425934 
	C614.919983,468.394897 612.589172,468.390381 610.258545,468.395782 
	C603.741577,468.410919 603.325256,468.728912 603.395691,475.075439 
	C603.568970,490.702911 601.081726,488.437714 617.315918,488.615356 
	C621.231812,488.658203 624.636108,487.515472 626.409119,483.741943 
	C627.201843,482.054718 628.345825,481.663086 629.936462,481.645813 
	C632.099976,481.622375 634.269775,481.656616 636.424377,481.497528 
	C637.933899,481.386078 639.555054,481.004547 639.978455,479.271301 
	C640.500305,477.134979 638.912903,476.364258 636.512817,475.558228 
M333.485260,329.418945 
	C328.753937,329.466553 323.613373,328.325806 321.098236,334.257416 
	C320.502258,335.662872 318.794189,335.331573 317.497589,335.382355 
	C315.339203,335.466949 313.171570,335.381653 311.018860,335.528809 
	C308.678528,335.688873 307.412079,336.973816 307.424805,339.421997 
	C307.437561,341.873901 308.994446,342.503693 311.031281,342.563141 
	C313.024963,342.621338 315.022308,342.572815 317.014557,342.655090 
	C318.624451,342.721588 320.387085,342.366028 321.453217,344.172180 
	C323.817108,348.176849 327.685516,348.631989 331.834595,348.646851 
	C344.957184,348.693848 344.816193,348.731079 344.697540,335.639130 
	C344.656006,331.060608 342.727844,329.263153 338.404358,329.426910 
	C337.076508,329.477203 335.744781,329.425140 333.485260,329.418945 
M540.366699,568.496582 
	C540.390259,569.995361 540.354553,571.498108 540.452332,572.992004 
	C540.578186,574.912170 541.633667,576.155884 543.578064,576.243652 
	C545.735107,576.341064 546.391479,574.780945 546.539185,572.971924 
	C546.647339,571.646423 546.661865,570.306335 546.614624,568.976440 
	C546.488953,565.434204 546.357117,562.066284 550.414551,560.156189 
	C552.328674,559.255127 552.667786,557.028809 552.633057,554.906738 
	C552.575806,551.408691 552.406738,547.891724 552.682312,544.414246 
	C553.051208,539.758789 551.055176,538.275818 546.560547,538.361023 
	C531.549500,538.645508 533.570923,536.880127 533.334351,551.372314 
	C533.274353,555.047546 533.460754,558.536255 537.032288,560.502625 
	C540.012390,562.143433 540.619629,564.603821 540.366699,568.496582 
M343.950928,402.644806 
	C344.172058,401.343994 344.535065,400.049377 344.592407,398.741394 
	C345.176819,385.410492 345.162903,385.403442 331.931335,385.426208 
	C328.963379,385.431305 325.214966,384.595825 323.540222,387.321228 
	C320.928467,391.571533 317.327240,391.511810 313.312256,391.432465 
	C310.669037,391.380219 307.526672,391.090088 307.497192,395.040802 
	C307.467010,399.091919 310.693451,398.383820 313.283661,398.650116 
	C315.992157,398.928558 319.211090,397.436218 321.316498,399.965240 
	C327.830017,407.789429 335.807129,404.702545 343.950928,402.644806 
M625.676453,512.946594 
	C626.674377,510.160950 628.741028,509.401215 631.529785,509.591309 
	C633.674622,509.737549 635.859009,509.653564 637.998352,509.420258 
	C639.693848,509.235382 640.596741,508.067963 640.536621,506.289093 
	C640.482483,504.690308 639.542603,503.806030 638.064636,503.658386 
	C636.085999,503.460724 634.081421,503.532562 632.098999,503.360962 
	C630.351501,503.209686 627.984009,504.151581 627.031311,502.273773 
	C624.962769,498.196411 621.655945,497.219543 617.533997,497.399414 
	C613.557251,497.572968 609.021790,496.441864 605.725647,497.994141 
	C600.885559,500.273529 604.043762,505.750275 603.479065,509.784302 
	C603.161194,512.055054 602.446899,515.886047 605.616394,516.115356 
	C612.190186,516.590881 619.255493,518.819946 625.676453,512.946594 
M617.211426,357.422028 
	C614.886414,357.413483 612.561401,357.390472 610.236450,357.399170 
	C603.733093,357.423462 603.361206,357.731110 603.391479,364.082794 
	C603.458130,378.043701 601.735962,376.506622 615.853699,376.644928 
	C620.423889,376.689697 624.539917,375.995728 626.639648,371.278717 
	C627.341309,369.702362 628.633057,369.713318 629.943848,369.673615 
	C632.267212,369.603149 634.594727,369.656769 636.917053,369.568268 
	C638.956543,369.490601 640.522095,368.709625 640.514771,366.350464 
	C640.507935,364.157410 638.923035,363.616425 637.150818,363.490906 
	C635.496826,363.373840 633.822144,363.513123 632.174377,363.354584 
	C630.155884,363.160431 627.703491,364.181335 626.426697,361.586700 
	C624.703308,358.084808 621.668274,357.243988 617.211426,357.422028 
M344.461823,372.647278 
	C344.513672,368.986847 344.531158,365.325531 344.628998,361.666321 
	C344.698792,359.057281 343.668030,357.487213 340.906250,357.475525 
	C336.245300,357.455841 331.583496,357.439789 326.923340,357.508911 
	C324.984833,357.537689 323.174500,358.276642 322.445190,360.154419 
	C321.214447,363.323151 318.761353,363.537964 315.955566,363.414642 
	C314.130798,363.334473 312.288361,363.383331 310.468842,363.544342 
	C309.049103,363.669983 307.856720,364.385864 307.752167,365.978333 
	C307.641052,367.670776 308.511536,368.906128 310.157532,369.313721 
	C311.267975,369.588654 312.462280,369.577545 313.620697,369.596619 
	C317.365234,369.658295 321.306335,368.849152 322.975281,373.916534 
	C323.584747,375.766998 325.904968,376.549530 328.031006,376.571777 
	C331.692993,376.610168 335.358368,376.655853 339.017242,376.539551 
	C341.242889,376.468781 343.345673,375.911438 344.461823,372.647278 
M338.066132,497.431793 
	C334.739044,497.430206 331.411896,497.435059 328.084839,497.424438 
	C326.381287,497.419006 324.113770,497.427307 323.540192,498.889465 
	C321.384399,504.384705 316.836212,503.286224 312.636841,503.426086 
	C310.517609,503.496674 307.744415,503.176086 307.775604,506.269318 
	C307.807129,509.392181 310.468964,509.580078 312.920410,509.580261 
	C314.583801,509.580353 316.247650,509.597565 317.910492,509.639526 
	C319.427185,509.677795 320.733002,509.801331 321.519440,511.584808 
	C323.501221,516.078979 327.333740,516.776123 331.856293,516.698669 
	C345.898254,516.458252 344.503815,518.049194 344.671204,503.687042 
	C344.719482,499.546204 343.235382,497.344849 338.066132,497.431793 
z"/>
<path fill="#000000" opacity="1.000000" stroke="none" 
	d="
M1.000000,475.468658 
	C3.985819,481.764801 4.103555,489.160522 5.152799,496.267181 
	C6.396786,504.692963 8.907462,512.758667 11.192822,520.817932 
	C14.431840,532.240295 18.694954,543.450317 24.146868,554.057251 
	C32.413422,570.140198 41.617554,585.649719 53.952194,599.072876 
	C57.181484,602.587158 58.656155,606.047913 57.073071,611.486511 
	C52.969448,625.584290 49.549561,639.864807 49.179569,654.782715 
	C48.994919,662.227661 48.176117,669.701965 48.409584,677.168701 
	C48.895718,692.716064 50.144104,708.096069 53.567181,723.434875 
	C57.852531,742.637573 64.099014,761.062134 73.063187,778.375732 
	C84.047340,799.590698 97.939186,818.890808 115.032318,835.835938 
	C133.121201,853.768433 153.430023,868.469421 176.307968,879.574585 
	C179.974136,881.354187 180.834061,884.254089 181.269974,887.512878 
	C183.795776,906.395569 188.748581,924.631470 197.898483,941.326599 
	C206.742752,957.463867 217.744736,972.094604 231.608124,984.532349 
	C246.741257,998.109192 263.925537,1008.095581 282.640228,1015.644165 
	C292.961151,1019.807129 304.070526,1021.191223 314.840790,1024.677734 
	C210.386337,1025.000000 105.772675,1025.000000 1.000000,1025.000000 
	C1.000000,841.979126 1.000000,658.958252 1.000000,475.468658 
z"/>
<path fill="#000000" opacity="1.000000" stroke="none" 
	d="
M338.531342,1.000000 
	C334.626373,3.426560 329.660522,4.163972 324.931854,5.086578 
	C311.204102,7.764996 298.811462,13.625426 286.838470,20.366299 
	C267.578857,31.209599 252.065094,46.194336 240.207336,64.866547 
	C238.333771,67.816803 235.947845,68.555367 232.685837,68.448196 
	C217.524475,67.950081 203.218094,71.952477 188.880173,76.394379 
	C170.020554,82.237122 153.458267,92.062355 138.410004,104.435661 
	C124.517097,115.859001 113.225800,129.650101 103.846649,145.090012 
	C96.194794,157.686478 90.438515,171.072586 86.721535,185.192215 
	C81.228668,206.057922 79.133156,227.308044 83.008659,248.784836 
	C84.390106,256.440430 86.064362,264.047913 87.808685,271.630493 
	C88.353325,273.998016 87.017403,275.030762 85.578514,276.135895 
	C64.384407,292.413910 47.721764,312.691406 33.827629,335.311005 
	C23.465822,352.179962 15.726031,370.304657 10.066359,389.250061 
	C6.038221,402.733978 4.147931,416.707092 1.345283,430.769897 
	C1.000000,287.748322 1.000000,144.496643 1.000000,1.000000 
	C113.354111,1.000000 225.708389,1.000000 338.531342,1.000000 
z"/>
<path fill="#000000" opacity="1.000000" stroke="none" 
	d="
M929.000000,380.531342 
	C927.169250,376.395966 925.263367,371.820129 923.522583,367.182312 
	C919.196350,355.655945 913.259949,344.946747 907.064026,334.361603 
	C898.737671,320.136902 888.473145,307.371613 877.147583,295.490387 
	C871.237305,289.290253 865.263367,283.067841 858.233215,278.035095 
	C854.900024,275.648895 853.174133,273.203583 854.666260,268.421295 
	C860.701660,249.077560 860.524963,229.011795 859.322754,209.134995 
	C858.701782,198.867828 855.963806,188.662140 852.761292,178.661392 
	C847.240784,161.422180 839.089844,145.660904 828.282715,131.246613 
	C814.291077,112.584755 797.097046,97.590630 776.541321,86.442719 
	C759.270752,77.076500 740.650146,71.995476 721.464172,68.679001 
	C718.382263,68.146271 715.078003,67.980949 712.010254,68.475494 
	C705.505005,69.524216 701.866577,66.081848 698.638611,61.252045 
	C684.335571,39.852207 664.791565,24.846991 641.777466,13.683735 
	C629.501282,7.729053 616.284729,5.461576 603.230286,1.315288 
	C711.599304,1.000000 820.198608,1.000000 929.000000,1.000000 
	C929.000000,127.354156 929.000000,253.708420 929.000000,380.531342 
z"/>
<path fill="#000000" opacity="1.000000" stroke="none" 
	d="
M626.468628,1025.000000 
	C627.963928,1022.828735 630.772095,1023.105103 633.258789,1022.649414 
	C649.050598,1019.755493 664.254395,1014.691040 678.173584,1006.993958 
	C704.144104,992.632568 724.965820,972.679993 740.219910,946.872803 
	C751.474426,927.832092 757.602234,907.316101 760.588379,885.673218 
	C761.217163,881.116211 764.756042,879.828552 767.839844,878.266174 
	C788.368896,867.865479 806.839294,854.732727 823.476013,838.761047 
	C838.770081,824.078308 851.518616,807.459106 862.630188,789.594727 
	C869.180908,779.063049 873.610840,767.371765 878.381348,755.887329 
	C881.457092,748.482788 882.708008,740.590759 885.789246,733.231873 
	C887.488831,729.172913 886.598389,724.296509 889.904358,719.686035 
	C890.466980,725.895691 890.620728,731.055725 889.535950,736.747803 
	C887.911499,745.272095 884.185669,752.708862 880.857300,760.438110 
	C876.635803,770.241699 869.824158,778.591614 865.400879,788.301697 
	C862.026917,795.708191 857.925537,802.783020 854.541504,810.185486 
	C850.953369,818.034058 852.337891,824.151917 858.568909,830.075134 
	C866.678284,837.783997 876.578735,842.935120 886.749878,846.807007 
	C892.994141,849.183899 900.280090,849.338562 907.064819,850.835632 
	C912.150757,851.957825 916.844238,849.467896 920.565308,845.726196 
	C923.260986,843.015686 925.869080,840.218079 928.758118,837.229675 
	C929.000000,889.020874 929.000000,941.041809 928.671631,993.442017 
	C918.141541,994.059326 909.500183,997.108704 902.670288,1005.449707 
	C897.775391,1011.427673 894.943604,1017.327393 897.000000,1025.000000 
	C806.979126,1025.000000 716.958191,1025.000000 626.468628,1025.000000 
z"/>
<path fill="#000000" opacity="1.000000" stroke="none" 
	d="
M929.000000,676.531372 
	C928.348999,675.295471 927.823242,673.529724 927.025269,671.897034 
	C923.665161,665.021851 919.425476,663.966553 913.382385,668.407349 
	C912.577820,668.998596 911.754944,669.565247 910.935059,670.135315 
	C905.728577,673.755188 905.288818,673.677368 901.613892,668.372559 
	C901.234131,667.824402 900.988953,667.183044 900.963501,667.133484 
	C898.328613,667.164917 898.148193,668.687134 897.563599,669.822632 
	C896.970276,670.975159 896.832581,672.419617 895.073853,673.296570 
	C893.221191,669.757629 892.954895,665.974304 892.728577,662.112244 
	C892.041565,650.390015 891.896729,638.570496 888.578918,627.188293 
	C886.634216,620.516602 886.266052,613.433594 883.215820,607.063538 
	C882.106140,604.746277 883.671814,603.336060 885.048462,601.860901 
	C900.595764,585.201294 912.077759,565.917236 921.326782,545.238159 
	C923.944092,539.386230 926.000183,533.283325 928.656860,527.147766 
	C929.000000,576.687561 929.000000,626.375122 929.000000,676.531372 
z"/>
<path fill="#000000" opacity="1.000000" stroke="none" 
	d="
M929.000000,750.531372 
	C923.179260,739.611511 924.940002,728.141724 928.815674,716.325562 
	C929.000000,727.354248 929.000000,738.708435 929.000000,750.531372 
z"/>
<path fill="#000000" opacity="1.000000" stroke="none" 
	d="
M568.359253,696.231689 
	C566.011047,701.204102 562.628052,704.100037 557.234802,703.180054 
	C553.114807,702.477234 550.422058,699.960938 549.954529,695.600464 
	C549.456360,690.954346 551.586853,687.681824 555.592651,685.561523 
	C559.140991,683.683411 562.386169,684.584412 565.164368,687.131836 
	C567.678589,689.437134 569.361694,692.214661 568.359253,696.231689 
z"/>
<path fill="#000000" opacity="1.000000" stroke="none" 
	d="
M673.442993,565.350342 
	C670.547974,559.753540 670.987854,555.660339 674.470520,552.422729 
	C677.623718,549.491333 681.037842,548.658081 684.859741,551.084656 
	C689.578003,554.080383 690.954102,560.568298 687.823914,564.951416 
	C684.807739,569.174866 679.049805,569.460876 673.442993,565.350342 
z"/>
<path fill="#000000" opacity="1.000000" stroke="none" 
	d="
M704.945312,380.073730 
	C699.762634,383.695465 696.125549,383.104126 691.677490,378.243256 
	C688.848999,375.152222 688.903992,370.933411 691.818787,367.398956 
	C694.563110,364.071381 700.372742,363.012848 704.013672,365.177063 
	C707.997559,367.545105 709.300903,372.174866 707.213989,376.966736 
	C706.763855,378.000214 705.907593,378.856781 704.945312,380.073730 
z"/>
<path fill="#000000" opacity="1.000000" stroke="none" 
	d="
M612.050537,855.280029 
	C604.677856,853.276917 601.810913,848.635437 604.258301,842.915283 
	C605.869690,839.149353 608.731567,836.786743 613.057678,836.688354 
	C617.676147,836.583313 619.666626,839.839966 621.512756,843.300110 
	C623.529114,847.079529 621.234436,849.581604 618.934509,852.065735 
	C617.192078,853.947754 615.159485,855.307434 612.050537,855.280029 
z"/>
<path fill="#000000" opacity="1.000000" stroke="none" 
	d="
M589.580750,96.647995 
	C594.832947,93.564034 599.482056,93.791695 602.439453,97.022881 
	C604.649353,99.437378 605.038940,105.625053 603.144958,108.226974 
	C600.017822,112.522987 594.697083,113.743454 591.110168,110.987465 
	C585.902039,106.985786 585.227905,101.824135 589.580750,96.647995 
z"/>
<path fill="#000000" opacity="1.000000" stroke="none" 
	d="
M833.119507,452.397949 
	C827.117004,455.558319 823.744324,454.592102 820.353638,449.121735 
	C817.822510,445.038147 818.599670,440.795654 822.448669,437.684814 
	C826.184875,434.665131 831.188293,435.012817 834.538269,438.524963 
	C838.207825,442.372101 837.821472,446.812958 833.119507,452.397949 
z"/>
<path fill="#000000" opacity="1.000000" stroke="none" 
	d="
M787.044922,560.665222 
	C783.742249,560.398010 781.699036,559.368347 782.275940,555.888672 
	C784.494263,555.251648 785.450623,557.322021 787.044312,557.477417 
	C788.621643,557.631165 790.225769,557.511047 792.157471,557.511047 
	C791.720764,560.532959 789.409973,560.374146 787.044922,560.665222 
z"/>
<path fill="#000000" opacity="1.000000" stroke="none" 
	d="
M382.986816,703.323242 
	C377.615936,702.842163 374.174103,700.264465 372.944702,695.459534 
	C372.023743,691.859985 374.135101,688.950623 376.754242,686.886353 
	C379.565582,684.670776 382.934204,683.578003 386.421387,685.744690 
	C390.134644,688.051819 391.949036,691.386719 391.265320,695.786865 
	C390.573822,700.236938 387.847931,702.716003 382.986816,703.323242 
z"/>
<path fill="#000000" opacity="1.000000" stroke="none" 
	d="
M319.742462,844.362061 
	C321.343140,839.732666 324.100464,836.918701 328.805817,836.697998 
	C332.467407,836.526184 335.040894,838.275940 336.742798,841.547485 
	C339.420013,846.693665 337.860016,852.023560 332.830414,854.446045 
	C328.005463,856.770020 322.440948,854.383423 320.268158,849.143921 
	C319.669769,847.700867 319.680725,846.252258 319.742462,844.362061 
z"/>
<path fill="#000000" opacity="1.000000" stroke="none" 
	d="
M152.480957,542.957886 
	C157.604614,542.817322 161.133682,544.421387 162.753677,549.368286 
	C164.132324,553.578247 162.219208,556.592102 159.464462,559.049194 
	C155.178436,562.872070 149.458359,561.801208 146.159912,556.947998 
	C142.955460,552.233032 144.213150,547.405090 149.437073,544.436951 
	C150.302444,543.945251 151.212708,543.532654 152.480957,542.957886 
z"/>
<path fill="#000000" opacity="1.000000" stroke="none" 
	d="
M234.489395,367.666260 
	C238.336227,364.153625 241.962601,362.684631 246.806152,365.386505 
	C251.314514,367.901459 252.336136,371.678589 251.070541,375.814819 
	C249.851761,379.798065 246.406616,382.311890 242.029984,382.238434 
	C237.591782,382.163971 234.716812,379.650269 233.701447,375.223999 
	C233.134232,372.751404 233.258179,370.325195 234.489395,367.666260 
z"/>
<path fill="#000000" opacity="1.000000" stroke="none" 
	d="
M260.175537,549.817993 
	C267.822144,551.324707 271.168610,555.899902 269.664948,561.695923 
	C268.463928,566.325500 265.356079,568.214783 261.008850,568.284119 
	C256.500824,568.356079 253.455612,565.737732 252.083282,561.674866 
	C250.627960,557.366272 252.384338,553.904968 256.195831,551.547241 
	C257.310211,550.857910 258.579071,550.418335 260.175537,549.817993 
z"/>
<path fill="#000000" opacity="1.000000" stroke="none" 
	d="
M115.565887,435.888977 
	C121.218552,437.237366 122.557991,441.105408 122.304184,445.804169 
	C122.052979,450.454865 118.753487,452.987000 114.842766,454.094147 
	C110.539185,455.312531 107.444855,452.323456 105.419418,449.055328 
	C103.406509,445.807434 103.708115,442.079865 106.225731,438.963196 
	C108.502174,436.144958 111.668907,435.398010 115.565887,435.888977 
z"/>
<path fill="#000000" opacity="1.000000" stroke="none" 
	d="
M354.337830,103.046204 
	C353.916290,109.710686 351.130249,112.503372 345.471832,112.373055 
	C340.455109,112.257523 336.708160,108.493004 336.660645,103.520592 
	C336.610046,98.225151 340.301514,94.237770 345.539764,93.929695 
	C350.305725,93.649391 353.763245,97.060974 354.337830,103.046204 
z"/>
<path fill="#000000" opacity="1.000000" stroke="none" 
	d="
M503.156128,435.909424 
	C507.882172,447.214752 512.587463,458.124084 516.050232,470.316162 
	C507.914185,470.316162 500.458801,470.469330 493.014954,470.242859 
	C489.916016,470.148590 489.413300,467.132355 488.694733,464.814545 
	C486.583710,458.005371 483.746124,451.490143 481.010406,444.925781 
	C479.957916,442.400330 478.300812,441.412598 475.640778,441.421509 
	C461.312408,441.469421 446.983063,441.515930 432.655548,441.391724 
	C427.694580,441.348724 426.548492,445.043365 425.600250,448.442657 
	C423.864136,454.666260 421.312347,460.569916 419.169281,466.629700 
	C418.500122,468.521820 417.478088,470.349731 415.008148,470.353607 
	C407.879974,470.364899 400.751831,470.357605 393.370514,470.357605 
	C394.338348,461.693665 398.283203,454.662231 400.976593,447.257416 
	C404.704041,437.009827 409.219849,427.067200 412.821899,416.747620 
	C416.308655,406.758484 420.579712,397.044525 424.443817,387.185242 
	C429.518402,374.237457 434.614807,361.296844 439.501862,348.278076 
	C440.480042,345.672241 441.759064,344.522614 444.529266,344.600861 
	C449.190552,344.732544 453.858429,344.625824 458.523529,344.626007 
	C466.446838,344.626312 467.524536,345.344177 470.194122,352.522095 
	C475.619415,367.109406 481.390259,381.551392 487.462708,395.887756 
	C492.999939,408.960571 497.839752,422.328796 503.156128,435.909424 
M454.306488,375.573212 
	C451.652496,374.491180 452.174469,377.174103 451.808838,378.057434 
	C447.257660,389.053864 442.918365,400.145630 439.476532,411.542480 
	C438.595703,414.459015 436.550873,417.171814 437.180756,420.642303 
	C437.789032,420.914703 438.378998,421.405548 438.973572,421.411163 
	C448.276703,421.498962 457.583130,421.668213 466.882660,421.493622 
	C470.662628,421.422699 470.853119,418.581146 470.019928,415.697296 
	C468.917480,411.881500 466.890472,408.438293 465.557678,404.678345 
	C462.139893,395.036377 459.220703,385.186798 454.306488,375.573212 
z"/>
<path fill="#000000" opacity="1.000000" stroke="none" 
	d="
M555.375854,408.000214 
	C555.374451,427.136688 555.262512,445.774292 555.452271,464.408783 
	C555.497314,468.835907 554.309082,470.848572 549.592285,470.458679 
	C545.626099,470.130890 541.585571,470.114197 537.623779,470.470245 
	C532.647278,470.917450 531.505188,468.781158 531.534058,464.142426 
	C531.711365,435.689667 531.620789,407.235229 531.622070,378.781372 
	C531.622498,368.963959 531.763245,359.143951 531.568542,349.330475 
	C531.491882,345.466736 533.128113,344.432617 536.641907,344.586365 
	C541.126038,344.782593 545.639587,344.857208 550.113831,344.569336 
	C554.371094,344.295471 555.470764,346.096527 555.438904,350.093750 
	C555.286438,369.228180 555.373657,388.364532 555.375854,408.000214 
z"/>
<path fill="#000000" opacity="1.000000" stroke="none" 
	d="
M369.659485,517.469727 
	C366.176971,516.056335 363.551910,513.875244 364.163849,510.396820 
	C364.586700,507.993073 366.320129,505.405609 369.269073,504.813324 
	C371.575531,504.350128 374.224792,504.259369 375.724854,506.334656 
	C377.522614,508.821808 378.211090,511.994141 376.800323,514.831848 
	C375.523315,517.400330 372.962219,518.302673 369.659485,517.469727 
z"/>
</svg>