<?xml version="1.0" encoding="UTF-8"?>
<!DOCTYPE svg PUBLIC "-//W3C//DTD SVG 1.1//EN" "http://www.w3.org/Graphics/SVG/1.1/DTD/svg11.dtd">
<svg xmlns="http://www.w3.org/2000/svg" version="1.1" width="1091px" height="1162px" style="shape-rendering:geometricPrecision; text-rendering:geometricPrecision; image-rendering:optimizeQuality; fill-rule:evenodd; clip-rule:evenodd" xmlns:xlink="http://www.w3.org/1999/xlink">
<g><path style="opacity:0.999" fill="#faf4f8" d="M 398.5,-0.5 C 403.5,-0.5 408.5,-0.5 413.5,-0.5C 453.099,2.19887 487.599,16.8655 517,43.5C 517.667,394.5 517.667,745.5 517,1096.5C 516,1098.83 515,1101.17 514,1103.5C 482.048,1137.39 442.881,1156.73 396.5,1161.5C 386.833,1161.5 377.167,1161.5 367.5,1161.5C 298.39,1153.21 248.557,1117.87 218,1055.5C 210.345,1037.21 205.345,1018.21 203,998.5C 117.954,955.826 68.6206,887.16 55,792.5C 50.8794,755.874 54.3794,720.04 65.5,685C 23.3805,636.824 1.38049,580.657 -0.5,516.5C -0.5,513.833 -0.5,511.167 -0.5,508.5C 2.79597,427.575 35.6293,361.575 98,310.5C 82.06,250.126 92.3933,194.792 129,144.5C 165.341,100.58 212.174,77.2463 269.5,74.5C 300.211,28.6357 343.211,3.63571 398.5,-0.5 Z M 390.5,27.5 C 427.782,24.3201 460.949,34.3201 490,57.5C 490.667,79.5 490.667,101.5 490,123.5C 460.818,97.6968 427.652,91.0302 390.5,103.5C 378.528,97.7767 366.861,98.2767 355.5,105C 340.833,120.333 340.833,135.667 355.5,151C 380.831,162.501 397.164,154.835 404.5,128C 439.391,119.535 465.891,130.702 484,161.5C 485.864,166.091 487.53,170.757 489,175.5C 490.661,427.472 490.995,679.472 490,931.5C 482.722,966.612 461.222,985.612 425.5,988.5C 417.974,988.523 410.64,987.357 403.5,985C 398.645,961.572 384.645,952.906 361.5,959C 347.247,966.731 342.08,978.565 346,994.5C 355.764,1014.12 370.597,1019.12 390.5,1009.5C 420.509,1020.41 449.176,1017.57 476.5,1001C 481.279,997.522 485.779,993.689 490,989.5C 490.667,1022.5 490.667,1055.5 490,1088.5C 451.198,1126.21 405.032,1140.38 351.5,1131C 293.494,1116.66 254.994,1081.16 236,1024.5C 223.432,953.537 244.599,894.704 299.5,848C 329.633,824.065 363.967,811.399 402.5,810C 412.311,822.205 424.644,825.538 439.5,820C 455.931,809.358 459.765,795.191 451,777.5C 439.328,763.7 425.494,761.2 409.5,770C 405.743,773.086 402.743,776.752 400.5,781C 372.189,783.493 345.189,790.493 319.5,802C 325.527,767.609 318.527,736.109 298.5,707.5C 301.606,681.227 289.939,669.061 263.5,671C 244.235,678.746 238.068,692.579 245,712.5C 252.801,724.774 263.968,729.941 278.5,728C 298.056,759.578 299.556,792.078 283,825.5C 238.219,862.708 211.886,910.375 204,968.5C 129.789,926.142 88.7886,862.142 81,776.5C 79.1663,742.335 84.4996,709.335 97,677.5C 108.468,653.012 127.635,640.178 154.5,639C 161.846,648.497 171.513,652.163 183.5,650C 202.743,644.022 209.909,631.188 205,611.5C 196.677,594.719 183.511,589.219 165.5,595C 159.167,598.667 154.167,603.667 150.5,610C 118.693,613.64 94.1931,628.807 77,655.5C 32.7756,597.734 18.1089,533.068 33,461.5C 45.3335,410.792 71.3335,368.792 111,335.5C 122.333,355.842 136.999,373.509 155,388.5C 164.152,423.735 155.652,453.901 129.5,479C 104.675,479.486 93.842,491.986 97,516.5C 103.556,532.352 115.389,538.852 132.5,536C 151.177,528.813 157.51,515.646 151.5,496.5C 174.881,472.381 186.714,443.381 187,409.5C 200.21,416.52 214.043,422.02 228.5,426C 235.401,445.952 249.068,452.952 269.5,447C 282.221,440.396 287.721,429.896 286,415.5C 281.321,397.841 269.821,390.008 251.5,392C 246.033,393.316 241.2,395.816 237,399.5C 175.848,382.682 137.182,343.682 121,282.5C 112.336,219.022 133.502,168.189 184.5,130C 215.126,110.091 248.793,100.924 285.5,102.5C 307.987,60.0175 342.987,35.0175 390.5,27.5 Z M 371.5,118.5 C 381.641,119.426 384.808,124.426 381,133.5C 374.958,139.095 369.625,138.428 365,131.5C 363.476,125.215 365.642,120.882 371.5,118.5 Z M 267.5,252.5 C 278.577,251.994 282.41,256.994 279,267.5C 273.335,273.062 268.002,272.729 263,266.5C 260.773,260.623 262.273,255.956 267.5,252.5 Z M 253.5,411.5 C 265.044,410.587 268.877,415.587 265,426.5C 260.827,430.694 256.327,431.194 251.5,428C 245.942,421.736 246.608,416.236 253.5,411.5 Z M 121.5,498.5 C 133.287,498.448 136.787,503.782 132,514.5C 126.719,518.699 121.719,518.366 117,513.5C 114.064,507.058 115.564,502.058 121.5,498.5 Z M 290.5,573.5 C 298.796,573.96 302.63,578.293 302,586.5C 299.081,592.025 294.581,593.858 288.5,592C 283.847,589.058 282.347,584.891 284,579.5C 285.436,576.558 287.603,574.558 290.5,573.5 Z M 429.5,609.5 C 439.754,609.036 443.587,613.703 441,623.5C 434.882,630.423 429.215,630.09 424,622.5C 422.571,616.7 424.404,612.367 429.5,609.5 Z M 176.5,611.5 C 185.977,613.457 188.81,618.79 185,627.5C 180.041,632.816 175.041,632.816 170,627.5C 166.451,619.639 168.617,614.306 176.5,611.5 Z M 274.5,690.5 C 276.5,691.833 278.167,693.5 279.5,695.5C 280.833,697.833 280.833,700.167 279.5,702.5C 271.776,711.189 265.776,710.023 261.5,699C 262.148,697.56 262.481,696.06 262.5,694.5C 265.684,690.55 269.684,689.216 274.5,690.5 Z M 423.5,784.5 C 435.308,784.466 438.808,789.799 434,800.5C 422.461,805.967 417.128,802.301 418,789.5C 419.73,787.598 421.563,785.931 423.5,784.5 Z M 373.5,975.5 C 379.143,976.477 382.477,979.81 383.5,985.5C 379.974,995.359 374.14,997.025 366,990.5C 363.191,982.784 365.691,977.784 373.5,975.5 Z"/></g>
<g><path style="opacity:0.999" fill="#faf4f8" d="M 676.5,-0.5 C 681.833,-0.5 687.167,-0.5 692.5,-0.5C 747.764,3.97299 790.764,29.1397 821.5,75C 890.914,78.4996 943.08,110 978,169.5C 1001.12,214.231 1005.62,260.731 991.5,309C 1049.07,355.472 1082.07,415.638 1090.5,489.5C 1090.5,504.5 1090.5,519.5 1090.5,534.5C 1084.95,591.831 1063.28,642.164 1025.5,685.5C 1050.41,773.04 1035.58,853.04 981,925.5C 955.261,956.576 924.261,980.909 888,998.5C 878.696,1067.43 842.863,1116.93 780.5,1147C 762.056,1154.53 743.056,1159.36 723.5,1161.5C 713.833,1161.5 704.167,1161.5 694.5,1161.5C 648.061,1156.7 608.894,1137.36 577,1103.5C 575.725,1101.28 574.725,1098.95 574,1096.5C 573.825,1040.48 573.325,984.478 572.5,928.5C 573.833,680.5 573.833,432.5 572.5,184.5C 573.324,137.522 573.824,90.5222 574,43.5C 603.127,17.0696 637.293,2.40297 676.5,-0.5 Z M 669.5,27.5 C 730.848,24.3307 776.182,49.4974 805.5,103C 866.835,100.418 914.668,124.251 949,174.5C 972.484,213.402 978.151,254.735 966,298.5C 945.899,351.226 908.566,384.893 854,399.5C 841.209,389.448 828.043,388.948 814.5,398C 802.604,410.913 801.438,424.746 811,439.5C 825.389,452.406 840.056,452.739 855,440.5C 858.423,436.153 860.923,431.32 862.5,426C 876.816,421.673 890.649,416.173 904,409.5C 903.98,442.795 915.314,471.462 938,495.5C 938,499.679 937.5,503.845 936.5,508C 937.396,522.486 944.729,531.819 958.5,536C 974.435,538.783 985.935,532.95 993,518.5C 997.734,499.801 991.234,486.967 973.5,480C 969.5,479.667 965.5,479.333 961.5,479C 935.331,453.825 926.831,423.658 936,388.5C 954.001,373.509 968.667,355.842 980,335.5C 1041.62,389.45 1068.95,457.45 1062,539.5C 1056.5,582.689 1040.5,621.355 1014,655.5C 996.815,628.863 972.315,613.863 940.5,610.5C 928.925,591.751 913.591,587.917 894.5,599C 885.938,607.021 882.771,616.855 885,628.5C 890.567,645.05 902.067,652.217 919.5,650C 926.708,648.572 932.375,644.905 936.5,639C 962.176,640.43 981.01,652.596 993,675.5C 1022.41,754.885 1013.41,829.551 966,899.5C 944.605,928.233 918.272,951.233 887,968.5C 879.16,910.475 852.826,862.808 808,825.5C 792.105,793.505 792.772,761.839 810,730.5C 812.53,727.276 815.697,726.609 819.5,728.5C 842.629,724.859 851.795,711.525 847,688.5C 836.063,669.313 820.896,665.146 801.5,676C 791.802,684.838 788.802,695.505 792.5,708C 776.826,729.521 768.826,753.688 768.5,780.5C 769.395,787.838 769.895,795.171 770,802.5C 744.916,790.27 718.416,783.103 690.5,781C 680.023,764.901 666.023,760.901 648.5,769C 634.525,780.395 631.691,794.228 640,810.5C 649.186,821.45 660.686,824.95 674.5,821C 680.077,818.416 684.743,814.749 688.5,810C 755.879,814.928 806.046,846.761 839,905.5C 858.118,941.535 863.784,979.535 856,1019.5C 843.039,1067.46 813.872,1101.63 768.5,1122C 705.959,1145.16 650.125,1134.32 601,1089.5C 600.167,1056.49 600.333,1023.49 601.5,990.5C 630.714,1016.09 663.714,1022.43 700.5,1009.5C 715.837,1017.67 729.337,1015.33 741,1002.5C 749.07,986.672 746.57,972.839 733.5,961C 716.942,952.766 703.109,955.933 692,970.5C 689.736,974.887 688.403,979.554 688,984.5C 659.404,993.434 635.071,986.768 615,964.5C 607.903,955.302 603.236,944.969 601,933.5C 600.333,682.5 600.333,431.5 601,180.5C 608.987,146 630.654,127.333 666,124.5C 672.97,124.856 679.804,126.023 686.5,128C 691.909,152.046 706.576,160.712 730.5,154C 745.872,143.533 749.705,129.7 742,112.5C 733.946,101.476 723.112,97.3098 709.5,100C 706.495,101.17 703.495,102.336 700.5,103.5C 663.293,90.7804 630.126,97.4471 601,123.5C 600.167,101.159 600.334,78.8259 601.5,56.5C 621.61,40.7765 644.277,31.1099 669.5,27.5 Z M 714.5,118.5 C 725.131,119.43 728.298,124.764 724,134.5C 717.195,139.271 711.862,137.938 708,130.5C 707.339,124.989 709.506,120.989 714.5,118.5 Z M 815.5,252.5 C 823.154,250.988 827.82,253.988 829.5,261.5C 827.372,269.561 822.372,272.395 814.5,270C 807.696,263.729 808.029,257.896 815.5,252.5 Z M 829.5,411.5 C 841.13,410.803 844.964,415.803 841,426.5C 835.423,431.741 830.089,431.408 825,425.5C 822.606,419.517 824.106,414.851 829.5,411.5 Z M 962.5,498.5 C 974.287,498.448 977.787,503.782 973,514.5C 966.597,519.157 961.263,518.157 957,511.5C 955.571,505.7 957.404,501.367 962.5,498.5 Z M 795.5,573.5 C 804.424,573.353 808.257,577.687 807,586.5C 804.549,592.089 800.383,593.922 794.5,592C 788.043,588.108 786.876,582.942 791,576.5C 792.652,575.601 794.152,574.601 795.5,573.5 Z M 654.5,609.5 C 665.379,609.204 669.212,614.204 666,624.5C 659.555,630.21 653.888,629.543 649,622.5C 647.571,616.7 649.404,612.367 654.5,609.5 Z M 912.5,611.5 C 921.627,613.466 924.46,618.799 921,627.5C 912.344,633.927 906.511,631.927 903.5,621.5C 904.469,616.204 907.469,612.87 912.5,611.5 Z M 816.5,689.5 C 827.817,689.813 831.317,695.146 827,705.5C 821.093,709.895 815.76,709.228 811,703.5C 809.268,697.314 811.101,692.647 816.5,689.5 Z M 660.5,784.5 C 671.379,784.204 675.212,789.204 672,799.5C 665.039,805.44 659.373,804.44 655,796.5C 653.873,791.089 655.707,787.089 660.5,784.5 Z M 716.5,975.5 C 726.97,978.585 728.97,984.419 722.5,993C 714.521,996.344 709.521,993.844 707.5,985.5C 708.446,980.225 711.446,976.892 716.5,975.5 Z"/></g>
<g><path style="opacity:0.997" fill="#faf4f8" d="M 319.5,227.5 C 363.37,228.551 393.87,249.218 411,289.5C 425.194,325.857 430.527,363.524 427,402.5C 425.345,428.789 418.845,453.789 407.5,477.5C 435.638,511.24 449.305,550.24 448.5,594.5C 459.599,602.272 463.765,612.939 461,626.5C 453.953,644.274 441.12,650.774 422.5,646C 407.202,638.903 401.368,627.07 405,610.5C 407.455,602.378 412.455,596.378 420,592.5C 421.31,560.274 412.477,531.274 393.5,505.5C 378.152,528.018 359.819,547.851 338.5,565C 332.913,568.71 327.413,572.543 322,576.5C 322.286,602.888 309.453,614.388 283.5,611C 267.64,603.78 261.473,591.614 265,574.5C 271.87,558.313 284.037,551.979 301.5,555.5C 352.961,524.644 384.794,479.644 397,420.5C 403.488,380.622 400.154,341.622 387,303.5C 379.778,284.955 367.611,270.788 350.5,261C 334.14,254.366 317.64,253.866 301,259.5C 299.124,282.017 286.957,292.184 264.5,290C 247.454,284.264 240.288,272.43 243,254.5C 251.015,234.747 265.182,228.414 285.5,235.5C 296.521,230.909 307.855,228.243 319.5,227.5 Z M 267.5,252.5 C 262.273,255.956 260.773,260.623 263,266.5C 268.002,272.729 273.335,273.062 279,267.5C 282.41,256.994 278.577,251.994 267.5,252.5 Z M 290.5,573.5 C 287.603,574.558 285.436,576.558 284,579.5C 282.347,584.891 283.847,589.058 288.5,592C 294.581,593.858 299.081,592.025 302,586.5C 302.63,578.293 298.796,573.96 290.5,573.5 Z M 429.5,609.5 C 424.404,612.367 422.571,616.7 424,622.5C 429.215,630.09 434.882,630.423 441,623.5C 443.587,613.703 439.754,609.036 429.5,609.5 Z"/></g>
<g><path style="opacity:0.996" fill="#faf4f8" d="M 764.5,227.5 C 778.675,227.602 792.341,230.268 805.5,235.5C 820.881,229.552 833.714,232.886 844,245.5C 851.267,259.674 849.434,272.507 838.5,284C 827.75,291.366 816.417,292.366 804.5,287C 795.212,280.264 790.212,271.097 789.5,259.5C 749.743,249.128 721.577,262.794 705,300.5C 689.97,341.527 686.637,383.527 695,426.5C 708.234,481.863 738.734,524.697 786.5,555C 809.912,550.693 823.579,560.193 827.5,583.5C 823.304,606.934 809.637,615.767 786.5,610C 772.944,603.055 767.111,591.888 769,576.5C 739.995,557.995 716.162,534.329 697.5,505.5C 689.294,515.234 683.127,526.234 679,538.5C 672.427,555.934 669.761,573.934 671,592.5C 685.238,601.066 689.904,613.399 685,629.5C 674.858,647.665 660.358,652.165 641.5,643C 630.923,634.606 627.09,623.772 630,610.5C 632.238,602.928 636.738,597.095 643.5,593C 642.233,549.634 655.233,511.134 682.5,477.5C 661.075,424.454 657.242,370.121 671,314.5C 677.532,288.592 690.365,266.425 709.5,248C 725.704,235.322 744.037,228.489 764.5,227.5 Z M 815.5,252.5 C 808.029,257.896 807.696,263.729 814.5,270C 822.372,272.395 827.372,269.561 829.5,261.5C 827.82,253.988 823.154,250.988 815.5,252.5 Z M 795.5,573.5 C 794.152,574.601 792.652,575.601 791,576.5C 786.876,582.942 788.043,588.108 794.5,592C 800.383,593.922 804.549,592.089 807,586.5C 808.257,577.687 804.424,573.353 795.5,573.5 Z M 654.5,609.5 C 649.404,612.367 647.571,616.7 649,622.5C 653.888,629.543 659.555,630.21 666,624.5C 669.212,614.204 665.379,609.204 654.5,609.5 Z"/></g>
<g><path style="opacity:0.259" fill="#e4e0e1" d="M 274.5,690.5 C 274.897,689.475 275.563,689.308 276.5,690C 277.667,691.167 278.833,692.333 280,693.5C 280.692,694.437 280.525,695.103 279.5,695.5C 278.167,693.5 276.5,691.833 274.5,690.5 Z"/></g>
<g><path style="opacity:0.773" fill="#dddadb" d="M 262.5,694.5 C 262.481,696.06 262.148,697.56 261.5,699C 265.776,710.023 271.776,711.189 279.5,702.5C 280.525,702.897 280.692,703.563 280,704.5C 274,711.167 268,711.167 262,704.5C 259.882,700.901 260.049,697.568 262.5,694.5 Z"/></g>
</svg>
