<svg version="1.1" id="Layer_1" xmlns="http://www.w3.org/2000/svg" xmlns:xlink="http://www.w3.org/1999/xlink" x="0px" y="0px"
	 width="100%" viewBox="0 0 1091 1162" enable-background="new 0 0 1091 1162" xml:space="preserve">
<path fill="#FBF5F9" opacity="1.000000" stroke="none" 
	d="
M665.614258,1.269140 
	C679.020874,1.000000 692.041809,1.000000 705.531372,1.000000 
	C708.151550,2.860886 710.815247,1.818798 713.219727,2.216051 
	C743.750122,7.260156 770.541321,20.065849 793.883118,40.370426 
	C804.651184,49.737331 813.748230,60.474361 821.764954,72.194427 
	C823.309021,74.451797 825.215027,75.513779 827.976501,75.652565 
	C851.852295,76.852501 874.691956,82.339325 896.541077,92.108505 
	C913.430420,99.660057 928.754944,109.670197 942.344849,122.070366 
	C968.674316,146.094757 986.987854,175.202286 996.221985,209.834991 
	C1004.510071,240.919785 1004.659607,272.055206 996.697998,303.158539 
	C995.350952,308.420990 996.088440,311.677124 1000.404053,315.174164 
	C1028.643311,338.057343 1050.691040,366.012787 1066.702271,398.587128 
	C1078.523315,422.636566 1086.737305,447.927124 1090.724854,474.515625 
	C1091.069214,476.812164 1090.469482,479.202881 1091.754272,481.702271 
	C1092.000000,503.020905 1092.000000,524.041809 1092.000000,545.531372 
	C1090.091064,550.860107 1090.513916,556.093750 1089.594604,561.125916 
	C1081.419189,605.883484 1062.630737,645.669006 1033.621582,680.602600 
	C1029.880737,685.107483 1028.977661,689.000732 1030.643188,694.622253 
	C1038.617188,721.535889 1041.792114,749.198914 1040.188232,777.128784 
	C1036.785522,836.376892 1016.286133,889.122253 977.713562,934.498840 
	C955.311462,960.852417 928.563904,981.800964 897.538879,997.112427 
	C892.489075,999.604492 890.018127,1002.769104 889.251465,1008.331055 
	C884.416077,1043.411255 870.557495,1074.683472 847.463562,1101.434082 
	C819.384521,1133.958984 784.122803,1154.453369 741.486694,1161.715088 
	C739.189636,1162.106323 736.798035,1161.468750 734.297974,1162.754150 
	C718.312439,1163.000000 702.624878,1163.000000 686.468628,1163.000000 
	C681.969116,1161.142822 677.525024,1161.771851 673.317261,1160.880493 
	C642.320679,1154.313599 614.916382,1140.603882 591.060425,1119.781738 
	C588.800110,1117.808716 586.417725,1115.976196 584.236572,1113.917236 
	C577.146790,1107.224854 573.184998,1099.455566 573.247864,1089.233765 
	C573.527649,1043.738403 573.369507,998.240295 573.369446,952.743164 
	C573.369202,702.775635 573.372253,452.808136 573.366882,202.840637 
	C573.365784,154.026520 573.580261,105.210785 573.184998,56.399773 
	C573.114258,47.668701 575.768921,41.770844 582.629639,36.469055 
	C603.401978,20.416822 626.211731,8.917219 651.895386,3.229376 
	C656.298279,2.254338 660.819519,2.373769 665.614258,1.269140 
z"/>
<path fill="#FBF5F9" opacity="1.000000" stroke="none" 
	d="
M1.246114,538.299438 
	C1.000000,522.645752 1.000000,507.291534 1.000000,491.468658 
	C3.132783,487.310760 1.872162,483.191986 2.393322,479.292511 
	C7.234529,443.068787 19.442753,409.540283 38.401726,378.354401 
	C49.461975,360.161255 62.814579,343.824432 77.823105,328.818329 
	C83.233025,323.409302 88.991379,318.319366 95.059105,313.639740 
	C98.008690,311.364960 98.474991,308.935486 97.588326,305.380859 
	C83.544243,249.078491 92.209251,196.598236 126.585327,149.654083 
	C156.294662,109.082840 196.819595,85.127144 246.763931,77.578094 
	C252.859055,76.656815 258.994965,76.035805 265.136078,75.717560 
	C268.535828,75.541374 270.629517,74.124779 272.450287,71.419830 
	C285.383789,52.205887 301.669769,36.417618 321.483093,24.406136 
	C341.514740,12.262289 362.852997,3.716874 386.481873,1.857146 
	C386.806091,1.831630 387.108887,1.657099 387.701355,1.245998 
	C400.687561,1.000000 413.375122,1.000000 426.531342,1.000000 
	C428.723572,2.441155 430.827515,1.787954 432.766754,2.059334 
	C465.295746,6.611500 493.381317,20.484669 517.583069,42.506001 
	C519.556946,44.302071 520.433472,46.542057 520.548645,49.156841 
	C520.658813,51.656055 520.632324,54.155632 520.632324,56.655163 
	C520.634583,399.975067 520.604797,743.294983 520.772217,1086.614746 
	C520.777466,1097.403931 517.575439,1105.678833 509.808838,1113.227539 
	C485.370911,1136.979858 456.561859,1152.358521 423.568665,1160.272095 
	C418.361206,1161.520874 413.021301,1161.603394 407.387756,1162.729858 
	C391.312439,1163.000000 375.624878,1163.000000 359.468658,1163.000000 
	C356.869629,1161.185669 354.190308,1162.038086 351.791809,1161.612915 
	C317.050598,1155.452881 286.844879,1140.345215 260.898193,1116.421997 
	C237.318649,1094.681274 220.737167,1068.593994 211.103287,1038.062012 
	C207.888763,1027.874634 205.529541,1017.468445 204.283585,1006.850464 
	C203.815063,1002.857788 202.137878,1000.438538 198.352600,998.549072 
	C169.748505,984.271301 144.182419,965.694824 122.723091,941.987610 
	C85.337204,900.685547 62.428101,852.484070 55.517597,796.953430 
	C51.226673,762.473145 53.505138,728.450500 62.935455,695.010925 
	C64.623817,689.023926 63.520905,684.766479 59.608734,680.047913 
	C27.508396,641.330872 8.458120,596.910095 2.174651,547.002563 
	C1.822088,544.202271 2.584652,541.326050 1.246114,538.299438 
z"/>
<path fill="#FFFFFF" opacity="1.000000" stroke="none" 
	d="
M407.468658,1163.000000 
	C407.159088,1161.581421 408.030884,1161.166138 409.371368,1160.994263 
	C435.187469,1157.684692 458.841278,1148.417236 480.696136,1134.526367 
	C493.221985,1126.564941 504.536926,1117.026367 514.459045,1105.950195 
	C517.273376,1102.808594 518.565796,1098.795776 518.975037,1094.585327 
	C519.119507,1093.099487 518.999878,1091.588135 518.999878,1090.088379 
	C518.999939,745.148987 518.967834,400.209503 519.216370,55.270290 
	C519.221680,47.903065 516.798767,43.321499 511.538574,38.983742 
	C490.208221,21.394005 465.911499,10.088348 439.008362,4.198644 
	C435.075928,3.337745 430.851013,3.886054 427.085632,1.382004 
	C506.354218,1.000000 585.708435,1.000000 665.531372,1.000000 
	C665.840881,2.418274 664.970581,2.838563 663.628784,3.004875 
	C634.162170,6.657267 608.402771,19.005909 584.942444,36.689186 
	C582.562500,38.483017 580.427124,40.599953 578.060120,42.412640 
	C575.372925,44.470463 574.942078,47.151176 574.948242,50.342152 
	C575.026611,91.163254 575.000000,131.984558 575.000000,172.805817 
	C575.000000,421.316193 575.000000,669.826599 575.000000,918.336975 
	C575.000000,975.237366 575.192627,1032.138916 574.824341,1089.036987 
	C574.757202,1099.413940 578.809570,1107.007568 586.007019,1113.426758 
	C600.560242,1126.406250 616.213379,1137.775391 634.014771,1146.072388 
	C649.627747,1153.349121 665.924805,1158.158813 682.860474,1160.979980 
	C683.979797,1161.166382 685.256348,1160.844116 685.917664,1162.622803 
	C593.312439,1163.000000 500.624878,1163.000000 407.468658,1163.000000 
z"/>
<path fill="#FFFFFF" opacity="1.000000" stroke="none" 
	d="
M1.000000,538.468628 
	C3.125443,538.263794 2.882063,539.872559 3.014117,541.378052 
	C4.818902,561.953430 9.388755,581.942017 16.295504,601.368042 
	C24.014027,623.077271 34.327099,643.517395 47.681831,662.327087 
	C52.759903,669.479309 58.217022,676.378296 63.794205,683.151611 
	C65.725746,685.497437 66.256577,687.478394 65.419044,690.369751 
	C60.991203,705.655457 57.708694,721.228394 56.157398,737.044006 
	C54.553356,753.397278 54.469280,769.800171 55.842777,786.262268 
	C57.645039,807.863220 61.834717,828.888062 68.991142,849.292969 
	C79.248474,878.539673 94.001472,905.279907 113.713264,929.322754 
	C135.693939,956.132996 161.825226,977.714905 192.517715,993.823730 
	C195.894394,995.595886 199.077454,997.697815 202.667053,999.106323 
	C206.822021,1000.736572 205.372284,1005.033264 205.750259,1007.858704 
	C209.755112,1037.798096 220.389740,1065.190430 238.334808,1089.294434 
	C266.398102,1126.989380 303.557892,1150.963623 349.989502,1160.005005 
	C352.963623,1160.583984 356.229919,1160.164185 358.917572,1162.622803 
	C241.219116,1163.000000 123.438179,1162.969360 5.657494,1163.123779 
	C1.410661,1163.129395 0.899733,1162.025269 0.901811,1158.161499 
	C1.012823,951.753418 1.000000,745.345398 1.000000,538.468628 
z"/>
<path fill="#FFFFFF" opacity="1.000000" stroke="none" 
	d="
M734.468628,1163.000000 
	C734.159180,1161.582031 735.030029,1161.165771 736.370789,1160.994629 
	C770.998535,1156.573242 801.525085,1142.467407 827.535950,1119.651611 
	C859.948303,1091.220581 880.331604,1055.546997 887.079346,1012.568298 
	C887.386963,1010.609009 887.822632,1008.665405 888.038818,1006.696960 
	C888.559509,1001.955627 890.599854,998.927795 895.294922,996.693848 
	C916.407776,986.648438 935.315918,973.324524 952.859192,957.806335 
	C980.071594,933.734985 1000.756470,904.964294 1015.821228,872.141052 
	C1025.895996,850.190063 1032.489380,827.108643 1036.121826,803.148865 
	C1038.646484,786.496216 1039.760254,769.775146 1038.860352,753.038452 
	C1037.775269,732.855713 1035.090454,712.803101 1028.882446,693.449829 
	C1027.371216,688.738770 1027.725464,685.159424 1031.050659,681.391968 
	C1052.795044,656.755676 1068.069824,628.322021 1078.873901,597.499817 
	C1084.464722,581.550232 1088.341064,565.064087 1090.020386,548.157471 
	C1090.107788,547.276733 1090.358643,546.544983 1091.617920,546.085693 
	C1092.000000,750.075012 1091.985474,954.150085 1092.107422,1158.224976 
	C1092.109741,1162.221436 1091.390137,1163.120728 1087.279053,1163.115723 
	C969.831970,1162.972168 852.384583,1163.000000 734.468628,1163.000000 
z"/>
<path fill="#FFFFFF" opacity="1.000000" stroke="none" 
	d="
M387.531342,1.000000 
	C385.834564,4.830803 381.776215,3.248478 378.730560,3.798891 
	C359.373230,7.297121 341.328522,14.169655 324.456604,24.104298 
	C312.115051,31.371332 300.863403,40.156116 290.992584,50.568844 
	C284.260773,57.670231 277.964294,65.170273 272.761627,73.500137 
	C271.223389,75.962952 269.391571,76.945267 266.330566,77.101608 
	C243.817520,78.251411 222.140915,82.993958 201.259521,91.779533 
	C176.071320,102.377144 154.924683,118.443344 136.993546,138.676682 
	C115.977219,162.391357 102.800453,190.226151 95.985649,221.155640 
	C92.189720,238.383759 92.484489,255.850433 93.224365,273.228302 
	C93.693047,284.236481 95.807259,295.250000 99.157074,305.866608 
	C100.224976,309.251099 100.063843,311.341797 96.885872,313.895721 
	C65.827644,338.854950 41.951817,369.572845 25.229248,405.692230 
	C14.446717,428.981628 7.145761,453.367920 3.753544,478.923798 
	C3.233437,482.842163 4.460207,487.221191 1.389582,490.908844 
	C1.000000,329.247406 1.019547,167.494797 0.887874,5.742302 
	C0.884565,1.677601 1.711129,0.884523 5.753168,0.888833 
	C132.856232,1.024365 259.959473,1.000000 387.531342,1.000000 
z"/>
<path fill="#FFFFFF" opacity="1.000000" stroke="none" 
	d="
M1092.000000,481.531342 
	C1088.094727,480.070740 1089.744751,476.046692 1089.264282,473.221130 
	C1085.372559,450.335510 1078.607300,428.412170 1069.152954,407.227783 
	C1058.017334,382.276093 1042.997559,360.044220 1024.603149,339.838257 
	C1015.943604,330.325897 1006.346619,322.020874 996.555481,313.851990 
	C993.886536,311.625183 993.511108,309.223846 994.400330,306.347992 
	C1000.563904,286.414795 1002.270996,265.875763 1000.828125,245.291534 
	C998.284546,209.004929 986.048645,176.131973 963.695679,147.140579 
	C947.179077,125.718994 926.890564,108.811623 902.905640,96.609261 
	C885.095215,87.548164 866.175842,81.369904 846.179504,78.939514 
	C839.444519,78.120926 832.746460,76.901970 825.936829,77.039116 
	C823.501160,77.088181 822.403015,75.715759 821.310242,73.931671 
	C815.909851,65.115242 809.330078,57.099380 802.114929,49.855297 
	C785.420288,33.093716 766.161438,19.958536 743.749390,11.789061 
	C732.035034,7.519026 720.139282,4.058941 707.666931,2.867191 
	C707.138123,2.816656 706.668518,2.145843 706.085693,1.381993 
	C833.269043,1.000000 960.538086,1.022154 1087.807007,0.891327 
	C1091.563232,0.887466 1092.086670,1.847999 1092.084473,5.302931 
	C1091.987061,163.889465 1092.000000,322.476074 1092.000000,481.531342 
z"/>
<path fill="#FFFFFF" opacity="1.000000" stroke="none" 
	d="
M612.273865,999.756714 
	C626.729187,1009.887146 642.269043,1015.589294 659.654846,1017.223694 
	C673.059265,1018.483765 685.670349,1016.185425 698.227295,1012.339172 
	C700.925110,1011.512939 703.102356,1011.535706 705.757751,1012.792480 
	C722.435181,1020.685913 741.717285,1012.734680 746.142395,995.393677 
	C750.690186,977.571838 742.229919,961.875000 723.875854,958.363831 
	C706.408081,955.022278 691.949707,966.847168 690.083191,982.819763 
	C689.782593,985.392822 688.942261,986.665771 686.467285,987.340881 
	C663.259827,993.670837 642.350220,989.337219 624.145264,973.556641 
	C612.445496,963.414917 605.433594,950.431213 602.512146,935.198547 
	C602.128784,933.199829 602.009644,931.249817 602.009583,929.264771 
	C601.999451,682.108398 601.921021,434.952026 602.157654,187.795883 
	C602.175598,169.071915 611.160400,153.835251 625.455811,141.705231 
	C638.051331,131.017624 652.672363,126.214012 668.966125,126.032120 
	C675.152344,125.963058 681.063049,127.859238 687.037292,129.192429 
	C689.047607,129.641052 689.839966,130.934509 690.061401,133.126938 
	C691.352051,145.904282 702.524231,157.176468 714.048279,158.036758 
	C733.565308,159.493713 743.482727,149.772110 746.558167,136.052292 
	C748.891052,125.645332 746.887512,115.236626 738.111511,107.827843 
	C728.461975,99.681610 717.436340,98.637222 705.956665,103.620094 
	C703.291687,104.776833 701.063049,104.884216 698.352356,104.012779 
	C665.556152,93.469513 635.488281,98.938057 608.010193,119.544014 
	C606.261414,120.855423 605.092773,124.364288 602.742615,123.101547 
	C600.846313,122.082695 602.049194,118.792694 602.040100,116.533058 
	C601.968018,98.700760 602.077026,80.867386 601.924500,63.036095 
	C601.898987,60.050014 602.776245,58.085293 605.121094,56.335293 
	C624.106689,42.166046 645.127808,33.022552 668.733521,29.949884 
	C707.669067,24.881800 742.215271,35.441189 772.259949,60.093914 
	C785.649048,71.080154 797.078308,84.262680 804.517883,100.255135 
	C806.296448,104.078232 808.582458,105.262932 812.603394,105.062302 
	C833.217102,104.033691 853.289185,106.609215 872.806580,113.734642 
	C889.390442,119.789062 904.409912,128.402771 917.996887,139.544067 
	C941.368652,158.708939 957.559814,182.823227 966.703003,211.597809 
	C972.380127,229.464233 975.118530,247.865738 973.875000,266.571350 
	C971.972656,295.185730 961.493530,320.667023 944.082397,343.379639 
	C922.370422,371.702759 893.819824,389.743774 859.785767,399.539856 
	C857.057068,400.325287 854.462769,400.389740 851.798706,398.416412 
	C840.714417,390.206146 824.647949,391.377258 814.634766,400.868866 
	C805.033447,409.970123 803.105103,425.966827 810.377197,437.605438 
	C816.650024,447.644714 826.317505,451.855042 837.587708,450.786865 
	C849.266052,449.679993 858.150452,443.468658 862.059265,431.860657 
	C863.284363,428.222412 865.330383,426.431580 868.853699,425.529480 
	C880.160217,422.634674 890.962830,418.330658 901.427917,413.217682 
	C905.046265,411.449860 905.984253,412.298737 906.058472,416.178986 
	C906.602661,444.642426 916.031921,469.767700 934.784790,491.282440 
	C938.230530,495.235718 940.331055,499.088531 939.121033,504.922882 
	C935.722168,521.310974 946.943054,534.208252 959.337891,537.292175 
	C979.343506,542.269653 995.587036,527.694458 996.260315,510.200195 
	C996.853455,494.787476 982.912537,479.281067 967.295898,481.013153 
	C964.550354,481.317657 962.676575,480.105530 960.706848,478.292725 
	C945.491394,464.289215 937.259888,446.619141 934.244873,426.547729 
	C932.598022,415.584534 933.426392,404.474792 936.023132,393.588287 
	C936.640137,391.001740 938.123840,389.044983 940.082703,387.461151 
	C956.057129,374.544769 968.224060,358.421967 978.826477,341.059235 
	C980.839905,337.762085 982.273071,337.712708 984.856628,339.905029 
	C993.000610,346.815796 1000.540344,354.406891 1007.607056,362.334259 
	C1021.025635,377.387207 1032.192505,394.119354 1041.064331,412.255737 
	C1051.854370,434.313416 1059.289673,457.515350 1062.873535,481.819885 
	C1065.056396,496.623505 1065.901733,511.623108 1064.888062,526.545898 
	C1062.975464,554.701294 1056.682129,581.852722 1045.195312,607.791382 
	C1038.013184,624.009277 1028.813232,638.916016 1018.521851,653.267578 
	C1016.043945,656.723206 1014.741028,656.570251 1012.450867,653.176941 
	C997.668640,631.275024 976.973938,618.324280 951.195251,613.247864 
	C949.903381,612.993469 948.533813,612.925842 947.220581,613.028442 
	C943.639832,613.308105 941.587891,611.757568 939.673401,608.633911 
	C928.063660,589.691833 902.234558,589.046387 890.218384,607.229065 
	C882.082764,619.539490 885.380615,637.825500 897.320251,646.608459 
	C909.298889,655.420105 926.853271,653.488892 936.461426,642.170654 
	C939.306519,638.819275 942.956909,639.635742 946.172302,640.319031 
	C972.018921,645.811768 989.507324,660.941772 997.898193,686.165955 
	C1005.412170,708.754211 1010.258728,731.745972 1011.170593,755.728455 
	C1012.945251,802.397583 1001.410156,845.297302 977.532043,885.207947 
	C967.310852,902.291931 955.021606,917.714294 940.820129,931.514343 
	C926.015381,945.900452 909.489807,958.161621 891.334595,968.123840 
	C888.388916,969.740173 887.303345,968.989624 886.942566,965.595764 
	C884.731750,944.801025 878.887268,924.988831 870.453674,905.892090 
	C858.365845,878.520569 841.071411,854.758972 818.474060,835.393860 
	C805.406372,824.195251 801.413269,809.950317 798.969299,794.345886 
	C795.738281,773.716003 799.934509,754.453918 809.406189,736.082764 
	C811.821960,731.397034 813.904358,729.176453 820.543091,729.449829 
	C835.494629,730.065613 847.836060,720.324097 849.880066,704.644165 
	C851.689941,690.759949 845.433899,679.470886 833.180664,674.164917 
	C817.143555,667.220520 796.153198,675.242493 792.899963,695.016541 
	C792.327637,698.494995 791.686462,701.769836 792.796021,705.297424 
	C793.680908,708.110840 792.644226,710.719971 790.944397,713.229004 
	C779.933960,729.481445 773.406372,747.505066 771.164612,766.917236 
	C769.934570,777.568970 769.527222,788.369934 771.813965,799.034119 
	C772.056335,800.164490 772.346863,801.479858 771.395691,802.353699 
	C770.121094,803.524475 768.894287,802.376770 767.740601,801.869080 
	C750.653931,794.348511 733.026062,788.606750 714.539612,785.713562 
	C708.338440,784.743164 702.135193,783.653137 695.890076,783.155518 
	C692.991150,782.924500 691.473389,781.744446 689.959778,779.528992 
	C679.927368,764.844360 661.239502,761.642822 647.223511,772.538635 
	C634.437866,782.478210 633.885132,803.307251 643.726257,814.535095 
	C655.023315,827.424072 678.355835,827.249512 688.773804,812.981445 
	C691.699341,808.974670 696.689880,810.734009 700.528076,811.246277 
	C722.902344,814.232666 744.342468,820.437012 764.341125,831.153076 
	C784.912598,842.176086 802.758423,856.470581 817.958923,874.281372 
	C839.184204,899.151611 852.668762,927.668640 858.601501,959.620728 
	C864.025635,988.833618 861.523071,1017.294861 849.232910,1044.844238 
	C840.112793,1065.287964 827.443054,1082.942993 810.765259,1097.578003 
	C789.614319,1116.138428 765.117981,1128.180664 737.225403,1133.074829 
	C727.570801,1134.768921 717.843323,1136.299683 708.107117,1135.881470 
	C673.461060,1134.392944 642.140808,1123.588989 614.922363,1101.589111 
	C611.033447,1098.445679 607.880615,1094.504761 603.657166,1091.799927 
	C601.945374,1090.703735 601.999939,1089.069824 602.000061,1087.391357 
	C602.001465,1056.892700 601.995850,1026.393921 602.020630,995.895203 
	C602.021484,994.792542 601.490662,993.303223 602.710571,992.690186 
	C604.296204,991.893250 604.939087,993.656433 605.899414,994.424744 
	C607.968384,996.079834 609.977051,997.810364 612.273865,999.756714 
z"/>
<path fill="#FFFFFF" opacity="1.000000" stroke="none" 
	d="
M963.273254,518.094727 
	C957.230774,513.251343 956.300598,507.544464 960.491028,503.052277 
	C964.336060,498.930389 970.427429,498.701874 974.167114,502.779388 
	C977.438599,506.346466 977.805847,510.293732 975.213623,514.586243 
	C972.359985,519.311829 968.352905,519.756287 963.273254,518.094727 
z"/>
<path fill="#FFFFFF" opacity="1.000000" stroke="none" 
	d="
M923.973083,623.007690 
	C923.348816,629.110291 918.970886,633.312805 914.036560,632.960144 
	C909.854431,632.661194 905.065796,627.420105 905.021118,623.093079 
	C904.974854,618.603271 908.830505,614.283813 913.120300,614.019897 
	C919.722961,613.613708 923.194580,616.356201 923.973083,623.007690 
z"/>
<path fill="#FFFFFF" opacity="1.000000" stroke="none" 
	d="
M812.026733,700.976440 
	C811.917908,695.741577 814.533569,692.633606 818.825378,691.335205 
	C822.783630,690.137695 826.371887,691.700256 828.896606,694.956543 
	C831.812073,698.716919 831.354797,702.602112 828.753113,706.414124 
	C826.345520,709.941956 822.741028,710.759521 819.113953,709.722595 
	C815.216248,708.608459 811.903564,706.267334 812.026733,700.976440 
z"/>
<path fill="#FFFFFF" opacity="1.000000" stroke="none" 
	d="
M674.096802,791.270264 
	C675.914673,798.598389 674.338806,801.939575 668.284119,804.309265 
	C664.449585,805.809937 659.810974,804.047485 657.665283,800.274658 
	C654.907349,795.425293 655.639160,791.062866 659.747131,787.865356 
	C663.573914,784.886719 668.623840,785.303650 672.399353,788.954346 
	C672.988831,789.524353 673.423035,790.254883 674.096802,791.270264 
z"/>
<path fill="#FFFFFF" opacity="1.000000" stroke="none" 
	d="
M825.125977,422.764648 
	C826.533325,415.821808 828.957153,413.290344 834.017639,413.028748 
	C840.035156,412.717682 843.676147,415.533417 844.517578,421.148834 
	C845.161743,425.447235 841.801270,429.806366 836.809692,431.147522 
	C832.561218,432.289032 827.751648,429.582642 825.894348,425.000000 
	C825.646362,424.388031 825.423340,423.765900 825.125977,422.764648 
z"/>
<path fill="#FFFFFF" opacity="1.000000" stroke="none" 
	d="
M709.909729,132.782806 
	C708.451843,127.129448 711.716309,121.507370 716.854919,120.196404 
	C721.018372,119.134193 726.328552,122.746483 727.703003,127.575783 
	C728.967102,132.017349 725.366516,137.572952 720.228516,138.741226 
	C715.293030,139.863464 712.649353,136.470612 709.909729,132.782806 
z"/>
<path fill="#FFFFFF" opacity="1.000000" stroke="none" 
	d="
M710.056580,990.709473 
	C708.388123,984.929688 710.368042,980.335266 715.050049,978.519409 
	C719.542969,976.777039 724.655212,978.706482 727.000549,983.029785 
	C729.103149,986.905640 727.491760,992.219055 723.450378,994.735840 
	C719.027588,997.490295 714.099060,996.137085 710.056580,990.709473 
z"/>
<path fill="#FFFFFF" opacity="1.000000" stroke="none" 
	d="
M492.000000,339.000000 
	C492.000000,534.826843 492.000244,730.153687 491.999756,925.480530 
	C491.999695,955.554688 468.776917,983.467346 439.257721,988.969788 
	C428.954071,990.890381 418.779572,990.268860 408.687775,987.718628 
	C406.301453,987.115662 404.456482,986.382751 403.835297,983.063660 
	C399.332733,959.003906 373.491211,949.684753 355.078003,965.746399 
	C344.100983,975.321655 342.866272,994.000122 352.829254,1005.412598 
	C361.947845,1015.857788 376.378845,1019.090942 388.922180,1012.453674 
	C391.311096,1011.189697 393.338562,1011.431213 395.532959,1012.314514 
	C405.534698,1016.340576 416.148468,1018.085022 426.688385,1017.801575 
	C449.728851,1017.182007 470.657684,1010.072571 488.145660,994.388489 
	C489.048737,993.578552 489.743500,991.833984 491.336060,992.716553 
	C492.500824,993.362061 491.980011,994.841248 491.980865,995.951172 
	C492.004181,1026.116821 491.967590,1056.282593 492.053711,1086.447998 
	C492.061340,1089.122681 490.784637,1090.750122 489.087860,1092.435913 
	C468.596191,1112.795776 443.913452,1125.410645 415.980743,1131.990356 
	C404.324463,1134.736206 392.441406,1136.448730 380.512878,1135.886963 
	C346.794617,1134.298950 315.943451,1124.105225 289.424072,1102.792725 
	C259.810730,1078.993774 241.375809,1048.284912 233.965942,1010.906982 
	C230.337570,992.604126 232.517746,974.637390 235.915131,956.670227 
	C241.430084,927.504517 253.993515,901.509949 272.425140,878.451233 
	C287.608643,859.456238 305.845947,843.871155 327.378632,832.266174 
	C345.686981,822.399109 365.090851,815.850281 385.547211,812.323425 
	C388.643372,811.789551 391.761658,811.193237 394.887512,811.067139 
	C399.408478,810.884766 403.318726,810.720947 407.136230,815.226990 
	C416.601746,826.399902 436.125580,827.048767 446.917999,817.570862 
	C458.863342,807.080627 460.562164,790.021362 451.200104,777.622925 
	C438.701935,761.071228 414.025696,763.269714 404.640106,778.946228 
	C402.016388,783.328613 398.131989,783.501038 394.525604,783.762329 
	C370.360077,785.513123 347.650177,792.467590 325.638885,802.157043 
	C320.894531,804.245544 321.694275,800.342407 322.137878,798.354553 
	C323.540955,792.066895 322.868195,785.753052 322.976288,779.456421 
	C323.392242,755.225952 315.625549,733.458984 302.791840,713.258057 
	C301.379913,711.035706 300.422058,709.107910 300.810181,706.047607 
	C302.703827,691.116699 297.048676,680.109497 284.697266,674.391418 
	C266.164398,665.811707 243.785110,678.710571 243.782822,699.684875 
	C243.781387,712.642700 250.880768,724.019470 263.546082,728.134521 
	C267.364655,729.375244 271.471771,730.394897 275.647919,729.260376 
	C278.681488,728.436157 280.601410,729.649109 282.200104,732.328125 
	C289.193512,744.047241 293.330750,756.605042 295.165771,770.173828 
	C297.728149,789.120544 293.955658,806.775085 286.073700,823.840210 
	C282.630768,831.294312 275.281769,835.017273 269.762207,840.421509 
	C260.247620,849.737183 251.497757,859.588745 243.790253,870.404968 
	C225.875488,895.545471 214.272690,923.389648 208.316086,953.621704 
	C207.613876,957.185608 207.496246,960.861389 206.884277,964.447266 
	C206.324234,967.728699 205.835403,969.870728 201.235138,967.319519 
	C179.805984,955.434875 160.760117,940.541931 144.241821,922.576721 
	C131.192734,908.384521 119.945366,892.810364 110.766945,875.714294 
	C99.443588,854.622925 91.125618,832.523132 86.552147,809.047852 
	C83.150620,791.587952 81.071518,773.927124 82.091095,756.141785 
	C83.704643,727.995422 88.299866,700.276367 100.853790,674.782410 
	C110.470161,655.253784 127.219940,644.018616 148.663498,640.146606 
	C152.151001,639.516907 155.083878,640.070496 158.273621,643.310120 
	C166.904739,652.076233 177.548904,654.629761 189.419830,650.158752 
	C201.796417,645.497375 207.996399,636.058350 208.000000,623.419861 
	C208.003494,611.159607 201.506134,600.894348 190.968277,596.510986 
	C179.152390,591.596008 167.591461,593.893188 158.509827,603.008179 
	C156.640808,604.884033 154.489639,606.535828 153.433975,609.108154 
	C152.266876,611.952087 149.914703,612.737061 147.054443,613.029968 
	C128.686264,614.911621 112.625320,621.997681 98.436043,633.888428 
	C91.587158,639.627869 86.140213,646.390259 81.030807,653.534119 
	C79.004776,656.366882 77.878357,656.498230 75.621086,653.504822 
	C52.682774,623.085999 38.122715,589.212891 31.766418,551.575989 
	C28.693285,533.379272 28.030439,515.105896 29.276274,496.950287 
	C31.020391,471.533264 37.362839,446.997375 47.650116,423.490753 
	C55.972584,404.473724 66.625717,386.931702 79.307045,370.634735 
	C88.178772,359.233521 98.131615,348.739349 109.170624,339.342010 
	C111.468781,337.385590 113.156136,337.553009 114.715004,340.351776 
	C123.936104,356.907227 135.381760,371.899292 149.897064,383.967590 
	C157.532028,390.315399 159.138397,398.175873 159.858124,406.594269 
	C161.672867,427.820923 156.972473,447.537292 144.522919,465.142090 
	C140.958160,470.182922 136.866959,474.730225 132.497726,479.076141 
	C130.745941,480.818604 128.808365,481.142853 126.586723,480.999115 
	C111.689613,480.035431 97.689224,491.085846 97.258949,508.933838 
	C96.907433,523.514954 107.657417,537.221436 124.485344,538.150269 
	C139.198975,538.962402 151.319809,529.579163 154.307236,517.578979 
	C155.698669,511.989746 156.011307,506.507202 154.103302,501.067322 
	C153.233688,498.587891 153.460342,496.911316 155.458908,494.938354 
	C173.802094,476.829559 183.239563,454.350037 186.813919,429.224731 
	C187.483475,424.518250 187.436981,419.651428 187.950729,414.866669 
	C188.229828,412.267151 189.145416,411.577423 191.456360,412.754608 
	C202.909073,418.588593 214.956436,422.832642 227.316559,426.270020 
	C229.274231,426.814423 230.442719,428.027954 231.135422,430.327850 
	C236.079987,446.744476 250.520859,452.326233 262.567413,450.772247 
	C278.383636,448.732025 288.721924,435.815033 287.996155,420.236420 
	C286.980011,398.424713 262.468048,385.750061 243.510361,397.375519 
	C240.175613,399.420471 237.256454,400.460785 233.278168,399.303833 
	C210.974350,392.817505 190.777588,382.613159 172.894623,367.562378 
	C155.518295,352.938019 142.452988,335.220154 132.532654,315.009125 
	C125.806854,301.306458 122.426781,286.757660 120.858437,271.553040 
	C118.350319,247.237686 121.915619,223.926712 130.804092,201.359695 
	C141.606247,173.933975 159.115112,151.540634 182.844742,134.127243 
	C204.133133,118.505295 227.937241,109.166122 254.217743,105.816010 
	C263.719940,104.604713 273.151672,105.379532 282.609497,105.066528 
	C285.205933,104.980614 286.817078,104.403862 288.125305,101.923180 
	C294.582214,89.679604 302.243896,78.133011 312.166321,68.500832 
	C333.941925,47.362152 359.574249,33.744202 390.097504,29.898615 
	C426.199707,25.350149 458.524841,34.691875 487.879059,55.555656 
	C490.529053,57.439190 492.129608,59.770832 492.090454,63.476913 
	C491.893250,82.140877 492.017029,100.808098 491.964783,119.473999 
	C491.960907,120.848991 492.790894,122.835686 490.964172,123.448013 
	C489.619171,123.898872 488.821625,122.156769 487.822968,121.335236 
	C467.348785,104.492241 443.847168,97.032364 417.462769,99.111839 
	C410.388245,99.669418 403.321106,101.026161 396.644928,103.680237 
	C393.346649,104.991432 390.563019,104.591316 387.181366,103.238625 
	C368.857025,95.908737 347.436584,105.123833 346.175537,128.859039 
	C345.399017,143.475113 356.804688,157.756943 374.799805,158.271149 
	C389.362457,158.687271 402.554779,146.807831 403.929352,133.035980 
	C404.182404,130.501144 405.455811,129.617981 407.513977,128.986588 
	C422.554840,124.372543 437.363800,125.214851 451.730042,131.415359 
	C471.781860,140.069763 484.379883,155.322906 490.185822,176.266174 
	C491.336304,180.416199 492.017151,184.658890 492.015106,189.008713 
	C491.991425,238.839142 492.000000,288.669556 492.000000,339.000000 
z"/>
<path fill="#FFFFFF" opacity="1.000000" stroke="none" 
	d="
M433.439545,787.256226 
	C438.701904,792.030029 439.445007,795.612793 436.492432,800.987244 
	C434.291840,804.992920 430.415253,806.148193 426.425476,805.535217 
	C420.533936,804.630127 417.526764,798.758850 419.104645,792.428711 
	C420.384888,787.292664 426.687042,784.873718 433.439545,787.256226 
z"/>
<path fill="#FFFFFF" opacity="1.000000" stroke="none" 
	d="
M281.402893,696.128357 
	C281.741058,698.271729 281.899536,700.074280 281.966736,701.880188 
	C282.097595,705.397644 280.449463,708.570251 277.408569,709.435730 
	C273.789185,710.465820 269.445923,711.347046 266.082184,708.446594 
	C263.099792,705.875000 262.313385,702.199585 263.397217,698.473938 
	C266.033844,689.410339 273.934174,688.266968 281.402893,696.128357 
z"/>
<path fill="#FFFFFF" opacity="1.000000" stroke="none" 
	d="
M258.939240,413.025879 
	C266.473724,413.741577 268.392578,416.182953 267.973846,423.985809 
	C267.678375,429.491669 264.331818,432.243042 258.228790,431.997681 
	C252.962753,431.785919 249.122772,427.701447 249.007401,422.189087 
	C248.902756,417.190582 252.989670,413.253174 258.939240,413.025879 
z"/>
<path fill="#FFFFFF" opacity="1.000000" stroke="none" 
	d="
M135.890991,510.576782 
	C134.205627,515.574036 132.838882,519.904480 126.135452,519.160339 
	C121.840874,518.683655 118.894295,517.856384 117.628632,513.380737 
	C116.072723,507.878723 117.180260,503.430481 121.782158,500.943176 
	C125.339310,499.020538 129.115646,499.479279 132.480423,502.014771 
	C135.221909,504.080597 136.587143,506.692566 135.890991,510.576782 
z"/>
<path fill="#FFFFFF" opacity="1.000000" stroke="none" 
	d="
M170.565125,619.007324 
	C173.181900,614.383484 176.741180,612.802368 181.557648,614.028015 
	C186.364532,615.251160 188.641800,618.976624 188.478104,623.229675 
	C188.308472,627.636841 185.827545,631.371826 180.855133,632.567993 
	C176.100418,633.711853 170.544327,629.869995 170.089691,624.809448 
	C169.928818,623.018921 170.276154,621.182617 170.565125,619.007324 
z"/>
<path fill="#FFFFFF" opacity="1.000000" stroke="none" 
	d="
M368.790283,122.801300 
	C373.366516,119.712151 377.414825,118.770615 381.610260,123.009743 
	C384.873810,126.307266 384.659393,129.919312 383.121063,133.541946 
	C380.802765,139.001282 375.694244,140.280853 370.300934,137.130997 
	C365.223328,134.165527 364.529755,128.759491 368.790283,122.801300 
z"/>
<path fill="#FFFFFF" opacity="1.000000" stroke="none" 
	d="
M377.473938,995.920410 
	C372.422363,996.487305 368.912140,994.730042 366.820251,990.525452 
	C365.155060,987.178467 365.869690,984.077271 368.244781,981.278015 
	C371.608276,977.313843 377.914490,976.737244 381.525299,980.083008 
	C385.364105,983.640015 385.442261,989.567932 381.567505,993.380981 
	C380.526215,994.405579 379.111298,995.050537 377.473938,995.920410 
z"/>
<path fill="#FBF5F9" opacity="1.000000" stroke="none" 
	d="
M650.990967,542.056824 
	C657.733032,519.810730 667.613770,499.627197 682.472046,482.124207 
	C685.111633,479.014771 683.429688,476.435791 682.332581,473.844208 
	C677.596191,462.655762 673.353210,451.307220 670.686707,439.434540 
	C667.341736,424.540924 665.857361,409.444885 664.700989,394.210632 
	C663.863647,383.178345 664.481323,372.303497 665.168457,361.450623 
	C666.704956,337.183594 671.332458,313.504395 681.399536,291.111755 
	C687.800842,276.873077 695.909485,263.858246 707.380554,253.145416 
	C720.217773,241.156738 735.271912,233.765884 752.695496,230.910065 
	C770.629211,227.970657 787.973267,229.513474 804.781189,236.417511 
	C807.509827,237.538361 809.648193,236.186600 811.965271,235.498840 
	C832.056702,229.535156 850.689270,243.691971 849.998352,264.433319 
	C849.505127,279.238251 836.897583,291.385162 822.478699,292.111816 
	C803.060242,293.090363 792.423462,277.455170 792.120972,265.081329 
	C792.028381,261.292816 789.991333,259.955444 787.215210,259.274933 
	C767.185059,254.365036 748.304932,256.535889 731.406860,269.162292 
	C717.738953,279.375153 709.604736,293.501556 703.812134,309.199799 
	C697.273682,326.919403 694.320312,345.263611 692.842285,364.074677 
	C690.427856,394.804199 693.581238,424.685760 704.091858,453.665833 
	C711.629700,474.449371 722.500793,493.440155 736.273865,510.744354 
	C750.147522,528.174866 766.744324,542.567688 785.387451,554.679688 
	C787.982727,556.365723 790.324585,556.991455 793.689575,556.432678 
	C813.475586,553.146851 828.683411,566.347961 828.632935,585.114319 
	C828.589905,601.116516 819.062683,612.472473 800.674744,613.694336 
	C787.184570,614.590759 775.398743,607.227051 771.245361,591.190369 
	C771.080627,590.554260 770.915649,589.843262 771.032959,589.220276 
	C772.558167,581.117737 769.023010,576.393250 762.061218,572.117371 
	C750.903381,565.264343 741.049622,556.433777 731.786987,547.158447 
	C720.632935,535.989197 710.690979,523.752075 702.002930,510.529663 
	C699.104370,506.118378 698.694885,506.176208 695.636230,510.638947 
	C682.993896,529.084595 675.872437,549.535278 672.849182,571.628052 
	C672.028259,577.626953 672.330933,583.561646 671.956665,589.515259 
	C671.767578,592.522278 672.744141,594.447388 675.412903,595.997620 
	C693.381348,606.435669 693.110107,637.067139 671.624023,646.625854 
	C651.069031,655.770264 630.425964,639.963989 630.803650,620.969177 
	C631.005981,610.791077 634.121521,602.830383 642.247925,596.890259 
	C644.088196,595.545105 643.899841,593.839966 644.012390,592.025391 
	C644.965332,576.657227 645.617249,561.248230 649.956238,546.318909 
	C650.326416,545.045166 650.617371,543.748352 650.990967,542.056824 
z"/>
<path fill="#FBF5F9" opacity="1.000000" stroke="none" 
	d="
M362.361023,504.367920 
	C374.325043,488.402557 383.389618,471.280487 390.153656,452.916779 
	C397.093903,434.074738 400.002136,414.584351 401.200684,394.549835 
	C402.773346,368.261688 400.132416,342.577484 392.786163,317.452576 
	C387.995422,301.067749 380.865356,285.487518 368.018036,273.679871 
	C350.010010,257.129120 328.768280,253.433105 305.439087,259.680511 
	C302.536926,260.457703 302.117676,262.174744 301.935455,264.783813 
	C301.035675,277.669769 292.629486,288.065063 280.987061,291.011932 
	C267.465851,294.434357 255.337280,289.937744 248.058044,278.512665 
	C242.440430,269.695557 241.678604,256.089355 250.041031,244.800156 
	C256.044891,236.695023 268.450165,231.932129 278.970276,234.952805 
	C284.666718,236.588440 289.707611,236.683838 295.183258,234.181458 
	C304.247589,230.039047 314.300903,229.128647 323.905304,229.281296 
	C345.774261,229.628860 365.947205,235.601501 383.061249,250.399246 
	C402.180389,266.930695 412.673401,288.350708 419.987915,311.834412 
	C429.013123,340.810364 430.330505,370.666565 428.787964,400.573517 
	C427.440857,426.691620 421.874695,452.132172 410.445862,475.945831 
	C409.232574,478.473969 409.613678,479.832428 411.343933,481.998962 
	C429.917908,505.255920 442.365295,531.284241 447.141418,560.893677 
	C448.767578,570.974854 449.178467,581.028687 448.927673,591.151123 
	C448.852264,594.194275 449.970764,595.952576 452.335968,597.699219 
	C462.875793,605.482605 464.968048,616.957275 462.164337,628.403870 
	C459.274445,640.202209 447.963623,648.295776 436.855865,649.120605 
	C420.990112,650.298828 407.296661,639.509827 405.073273,622.761047 
	C403.906036,613.968140 410.007233,600.712952 418.396606,595.928894 
	C421.112732,594.380005 422.089935,592.684875 422.053131,589.641235 
	C421.704926,560.851990 414.125214,534.327942 397.972351,510.312042 
	C395.284271,506.315491 394.053802,507.136597 391.908691,510.534912 
	C383.547485,523.780945 373.591034,535.848450 362.484619,546.791321 
	C351.622284,557.493530 339.898163,567.353088 326.849243,575.406372 
	C323.879272,577.239258 322.714081,579.369446 322.973724,582.733521 
	C324.172241,598.262390 314.115967,611.902405 296.647705,613.794189 
	C284.089783,615.154175 269.767914,607.168274 266.183594,591.890503 
	C261.173767,570.536560 278.727600,551.990723 301.031036,556.593811 
	C303.224518,557.046570 304.961670,556.680176 306.693542,555.588867 
	C328.277771,541.987854 346.844727,525.096008 362.361023,504.367920 
z"/>
<path fill="#FFFFFF" opacity="1.000000" stroke="none" 
	d="
M666.760498,626.652710 
	C659.200012,631.418030 651.094055,629.143250 650.088440,622.268311 
	C649.417969,617.684509 651.075195,613.999329 655.274658,611.967651 
	C659.410217,609.966858 663.403076,610.586426 666.540466,614.131104 
	C669.974243,618.010681 669.936829,622.171387 666.760498,626.652710 
z"/>
<path fill="#FFFFFF" opacity="1.000000" stroke="none" 
	d="
M813.369019,257.410889 
	C817.549988,253.696381 822.724792,252.796402 826.269836,255.241104 
	C829.464783,257.444336 830.962830,260.593262 830.237061,264.608978 
	C829.375732,269.374115 826.128540,271.610931 821.775574,272.544067 
	C818.068970,273.338654 815.445740,271.288269 813.270264,268.668060 
	C810.315308,265.108948 810.702454,261.404083 813.369019,257.410889 
z"/>
<path fill="#FFFFFF" opacity="1.000000" stroke="none" 
	d="
M790.922241,588.751465 
	C789.175049,582.034424 791.575806,577.268799 797.297913,575.415161 
	C801.415894,574.081177 806.031738,576.555969 808.070129,581.190735 
	C809.968872,585.508057 808.955444,589.551086 804.804199,592.576904 
	C801.318298,595.117798 797.569397,594.531311 794.121277,592.357727 
	C792.908325,591.593201 792.085571,590.209778 790.922241,588.751465 
z"/>
<path fill="#FFFFFF" opacity="1.000000" stroke="none" 
	d="
M291.805542,575.604370 
	C297.574860,574.805298 303.062042,578.584595 303.918274,583.544495 
	C304.655975,587.817749 301.421844,592.658508 297.072876,593.790466 
	C292.172455,595.065918 286.667938,592.415405 285.236816,588.091187 
	C283.525787,582.921143 285.940735,578.123535 291.805542,575.604370 
z"/>
<path fill="#FFFFFF" opacity="1.000000" stroke="none" 
	d="
M442.271606,625.113403 
	C438.295197,629.984375 434.017639,631.228699 429.937714,628.935974 
	C425.821991,626.623108 423.907501,621.766907 425.382416,617.380981 
	C426.824402,613.093018 431.340424,610.417053 436.062256,611.052551 
	C442.086487,611.863464 445.274414,618.672241 442.271606,625.113403 
z"/>
<path fill="#FFFFFF" opacity="1.000000" stroke="none" 
	d="
M266.944031,255.710312 
	C275.488312,251.823090 282.018341,255.361969 282.005493,263.347412 
	C281.998352,267.762817 279.894470,270.292023 275.907318,271.944702 
	C271.354767,273.831757 268.125641,271.706543 265.420166,268.726135 
	C262.786682,265.825073 262.158783,262.297760 264.643372,258.765625 
	C265.304199,257.826141 265.973694,256.892731 266.944031,255.710312 
z"/>
</svg>